<?xml version="1.0" standalone="no"?>
<!DOCTYPE svg PUBLIC "-//W3C//DTD SVG 20010904//EN"
 "http://www.w3.org/TR/2001/REC-SVG-20010904/DTD/svg10.dtd">
<svg version="1.0" xmlns="http://www.w3.org/2000/svg"
 width="728.000000pt" height="406.000000pt" viewBox="0 0 728.000000 406.000000"
 preserveAspectRatio="xMidYMid meet">

<g transform="translate(0.000000,406.000000) scale(0.100000,-0.100000)"
fill="#000000" stroke="none">
<path d="M4067 3899 c18 -19 39 -43 48 -54 8 -11 15 -17 15 -14 0 11 -50 72
-72 87 -16 11 -13 5 9 -19z"/>
<path d="M4151 3775 c1 -19 18 -51 18 -35 0 8 -4 22 -9 30 -5 8 -9 11 -9 5z"/>
<path d="M3522 3705 c0 -16 2 -22 5 -12 2 9 2 23 0 30 -3 6 -5 -1 -5 -18z"/>
<path d="M4171 3704 c0 -11 3 -14 6 -6 3 7 2 16 -1 19 -3 4 -6 -2 -5 -13z"/>
<path d="M4182 3655 c0 -16 2 -22 5 -12 2 9 2 23 0 30 -3 6 -5 -1 -5 -18z"/>
<path d="M3511 3644 c0 -11 3 -14 6 -6 3 7 2 16 -1 19 -3 4 -6 -2 -5 -13z"/>
<path d="M3948 3623 c12 -2 30 -2 40 0 9 3 -1 5 -23 4 -22 0 -30 -2 -17 -4z"/>
<path d="M3512 3595 c0 -16 2 -22 5 -12 2 9 2 23 0 30 -3 6 -5 -1 -5 -18z"/>
<path d="M3658 3613 c23 -2 61 -2 85 0 23 2 4 4 -43 4 -47 0 -66 -2 -42 -4z"/>
<path d="M4018 3613 c6 -2 18 -2 25 0 6 3 1 5 -13 5 -14 0 -19 -2 -12 -5z"/>
<path d="M4182 3590 c0 -19 2 -27 5 -17 2 9 2 25 0 35 -3 9 -5 1 -5 -18z"/>
<path d="M4181 3520 c1 -19 3 -27 6 -17 2 9 12 17 21 18 14 0 14 2 2 6 -8 3
-18 11 -22 17 -4 6 -7 -5 -7 -24z"/>
<path d="M3490 3533 c8 -3 18 -11 22 -17 5 -7 8 -4 8 7 0 11 -7 17 -22 16 -16
0 -18 -2 -8 -6z"/>
<path d="M3606 3521 c-3 -4 11 -7 32 -6 20 1 40 -3 44 -9 4 -7 15 -6 32 3 13
8 34 11 45 8 12 -3 21 -1 21 4 0 12 -167 12 -174 0z"/>
<path d="M3917 3523 c-4 -3 -7 -16 -6 -27 0 -20 1 -20 9 2 10 24 46 30 53 10
3 -10 9 -10 30 1 14 7 35 11 46 8 12 -3 21 -1 21 4 0 10 -143 13 -153 2z"/>
<path d="M4252 3480 c0 -14 2 -19 5 -12 2 6 2 18 0 25 -3 6 -5 1 -5 -13z"/>
<path d="M3451 3464 c0 -11 3 -14 6 -6 3 7 2 16 -1 19 -3 4 -6 -2 -5 -13z"/>
<path d="M3503 3470 c-24 -10 -32 -53 -13 -65 6 -3 7 1 4 9 -3 9 -1 16 5 16
10 0 16 -16 24 -70 3 -14 5 8 6 48 0 39 0 72 -1 71 -2 0 -13 -4 -25 -9z m7
-14 c0 -3 -4 -8 -10 -11 -5 -3 -10 -1 -10 4 0 6 5 11 10 11 6 0 10 -2 10 -4z"/>
<path d="M4166 3431 c-4 -30 -9 -68 -12 -85 -3 -25 -2 -23 9 9 7 22 18 40 25
40 15 0 16 4 4 35 -5 14 -11 32 -14 40 -3 8 -8 -9 -12 -39z"/>
<path d="M4210 3463 c0 -4 5 -15 10 -23 8 -13 10 -13 10 2 0 9 -4 20 -10 23
-5 3 -10 3 -10 -2z"/>
<path d="M3831 3414 c0 -11 3 -14 6 -6 3 7 2 16 -1 19 -3 4 -6 -2 -5 -13z"/>
<path d="M3430 3416 c0 -11 40 -86 45 -86 3 0 -4 19 -16 43 -23 45 -29 54 -29
43z"/>
<path d="M3823 3325 c0 -22 2 -30 4 -17 2 12 2 30 0 40 -3 9 -5 -1 -4 -23z"/>
<path d="M4205 3304 c-9 -15 -12 -23 -6 -20 11 7 35 46 28 46 -3 0 -12 -12
-22 -26z"/>
<path d="M3531 3298 c-1 -12 -7 -16 -18 -12 -16 5 -16 4 0 -6 22 -14 30 -8 24
17 -4 16 -5 16 -6 1z"/>
<path d="M4137 3290 c-3 -11 -1 -23 4 -26 5 -3 9 6 9 20 0 31 -6 34 -13 6z"/>
<path d="M3541 3224 c0 -11 3 -14 6 -6 3 7 2 16 -1 19 -3 4 -6 -2 -5 -13z"/>
<path d="M3555 3176 c3 -16 18 -44 32 -62 31 -42 42 -45 13 -5 -11 16 -27 45
-36 63 -14 32 -15 32 -9 4z"/>
<path d="M4089 3139 c-15 -27 -23 -46 -18 -43 11 6 52 84 47 89 -2 2 -15 -19
-29 -46z"/>
<path d="M3768 3153 c7 -3 16 -2 19 1 4 3 -2 6 -13 5 -11 0 -14 -3 -6 -6z"/>
<path d="M3808 3143 c6 -2 18 -2 25 0 6 3 1 5 -13 5 -14 0 -19 -2 -12 -5z"/>
<path d="M3868 3133 c6 -2 18 -2 25 0 6 3 1 5 -13 5 -14 0 -19 -2 -12 -5z"/>
<path d="M3643 3054 c39 -47 17 -80 -103 -158 -37 -25 -54 -29 -97 -27 -45 2
-56 -2 -86 -28 -19 -17 -44 -53 -56 -81 -19 -44 -25 -50 -51 -50 -37 0 -58
-21 -66 -68 -3 -20 -10 -52 -15 -71 -4 -19 -5 -39 -2 -45 13 -21 11 -420 -2
-511 -7 -49 -16 -133 -19 -185 -4 -52 -12 -157 -18 -232 l-12 -138 -28 0 c-38
0 -43 -27 -25 -141 18 -113 21 -432 6 -609 -6 -69 -21 -178 -34 -243 -13 -65
-21 -125 -18 -135 4 -9 24 -45 46 -80 l39 -62 58 0 c41 0 64 5 82 19 13 11 32
21 42 23 17 3 18 -6 17 -114 l-2 -118 53 0 53 1 -42 40 -43 40 0 85 c0 54 4
83 10 79 6 -4 10 14 10 47 0 29 4 68 10 87 5 19 6 39 2 45 -4 6 -7 34 -8 61
-1 28 -5 69 -9 92 -9 53 6 53 64 0 47 -43 116 -80 139 -75 10 2 -7 15 -42 32
-81 39 -146 103 -147 145 -1 17 -2 39 -3 49 -1 27 67 19 146 -16 36 -17 69
-28 72 -24 8 8 -97 56 -168 76 -34 10 -54 21 -52 29 2 6 9 35 16 62 15 63 43
135 53 136 4 1 12 3 17 4 6 1 25 3 43 4 25 1 29 3 17 12 -11 8 -6 9 20 5 l35
-6 -3 112 c-3 91 -1 114 11 123 9 6 15 20 14 31 -2 16 5 19 51 20 29 1 58 7
65 14 10 10 7 11 -13 6 -14 -3 -45 -6 -68 -6 -36 0 -45 -4 -49 -21 -5 -19 -11
-21 -51 -15 -25 3 -53 6 -64 6 -19 0 -19 12 -16 508 2 279 7 515 12 524 4 10
24 28 44 40 19 12 30 24 24 26 -6 2 -25 -6 -41 -17 l-29 -21 -7 70 c-4 39 -11
70 -16 70 -12 0 -11 -23 5 -97 7 -35 10 -63 6 -63 -4 0 -19 39 -34 88 -16 48
-30 92 -32 97 -7 17 4 -99 11 -120 5 -16 5 -17 -4 -5 -18 25 -23 3 -7 -29 9
-16 16 -37 16 -46 0 -9 7 -28 16 -43 15 -25 15 -25 0 -8 -20 25 -20 12 0 -47
9 -26 14 -52 12 -59 -5 -15 -63 131 -73 185 -7 37 -25 62 -25 34 0 -41 78
-249 91 -241 5 3 9 -133 9 -336 0 -291 -2 -341 -14 -337 -8 3 -69 9 -136 13
l-122 7 5 56 c3 31 10 126 17 211 6 85 20 218 30 295 14 106 17 153 9 191 -6
32 -6 100 -1 175 8 114 11 127 38 166 16 23 33 42 37 43 5 0 35 -16 67 -36 88
-54 117 -51 188 19 l58 57 39 -41 c22 -23 54 -47 71 -55 l31 -13 6 -122 c4
-67 7 -159 7 -204 0 -97 -4 -95 131 -95 l87 0 6 31 c3 17 6 117 6 221 0 104 3
187 8 184 14 -8 67 21 112 63 25 22 47 41 50 40 3 0 19 -19 35 -41 54 -75 73
-83 196 -86 109 -4 110 -4 121 -30 7 -18 7 -66 2 -142 -5 -63 -7 -294 -6 -514
l4 -398 -39 6 c-21 3 -75 8 -120 12 l-83 6 0 122 c0 66 7 159 15 206 8 47 21
139 30 205 8 66 16 126 17 133 1 6 5 12 9 12 11 0 27 89 34 190 4 47 10 102
15 123 4 20 5 37 1 37 -5 0 -13 -26 -20 -57 -7 -32 -20 -83 -28 -113 l-16 -55
-8 40 c-4 22 -4 64 -2 93 4 35 2 52 -6 52 -7 0 -11 -24 -12 -67 -1 -38 -3 -79
-4 -93 -2 -14 2 -31 7 -38 16 -19 1 -249 -28 -431 -18 -119 -24 -194 -24 -326
0 -95 -3 -193 -6 -219 l-7 -46 -103 0 c-103 0 -104 0 -104 24 0 32 -17 44 -70
47 -25 1 -54 9 -65 16 -35 23 -41 13 -7 -13 63 -50 92 -147 68 -226 -8 -27
-11 -46 -6 -43 17 10 30 94 21 139 -8 45 -2 64 19 51 11 -7 13 -98 4 -168 -5
-37 -11 -46 -30 -50 -13 -2 -25 0 -26 5 -2 5 -13 0 -25 -12 -25 -23 -59 -38
-118 -50 -36 -9 -35 -9 15 -5 107 9 398 13 410 5 6 -4 11 -11 10 -16 -1 -5 1
-34 5 -64 4 -30 7 -127 7 -217 0 -89 3 -165 8 -168 5 -3 -3 -28 -18 -54 -22
-41 -25 -52 -15 -72 11 -23 18 -52 28 -109 3 -14 9 -47 14 -75 5 -27 10 -78
10 -112 1 -35 6 -65 12 -69 11 -7 9 67 -7 199 -6 48 -6 48 20 41 40 -10 143
16 168 43 34 36 40 116 22 288 -25 226 -17 281 90 665 38 137 37 143 -18 185
l-33 25 -5 368 c-4 209 -2 391 3 422 5 30 10 90 10 133 0 42 1 77 3 77 2 0 23
-37 46 -82 176 -345 257 -476 568 -928 214 -310 259 -373 376 -513 202 -242
267 -337 467 -676 24 -41 52 -88 62 -105 10 -17 32 -57 48 -90 17 -32 33 -55
36 -52 5 5 -68 137 -185 335 -18 31 -40 71 -49 89 -9 17 -20 32 -25 32 -4 0
-8 5 -8 12 0 20 -128 204 -233 333 -223 277 -292 366 -393 515 -58 85 -173
254 -256 375 -82 121 -152 227 -155 235 -4 8 -14 27 -24 41 -10 14 -45 77 -79
140 -139 255 -199 376 -206 414 -9 50 -46 121 -84 160 -16 17 -31 41 -35 55
-13 51 -62 90 -112 90 -23 0 -40 8 -54 24 -12 14 -34 30 -51 37 -16 7 -40 31
-54 56 -15 24 -35 48 -45 54 -11 6 -19 20 -19 36 0 26 0 26 -37 -12 -47 -49
-88 -65 -165 -65 -68 0 -102 16 -178 84 -19 17 -27 22 -17 10z m156 -105 c14
0 35 -2 46 -5 32 -6 121 26 146 52 12 13 25 24 29 24 3 0 7 -44 9 -98 2 -92 1
-99 -22 -120 -13 -13 -46 -31 -73 -42 -27 -10 -43 -19 -36 -20 27 -1 112 43
127 66 8 13 15 39 15 59 0 45 15 38 41 -19 24 -53 24 -97 0 -123 -32 -34 -107
-93 -120 -93 -8 0 -11 -52 -11 -182 0 -101 -3 -214 -7 -252 l-6 -68 -91 7
c-50 4 -94 12 -98 18 -4 7 -8 62 -8 123 0 61 -3 159 -6 217 -7 105 -7 106 -36
118 -36 15 -98 73 -98 92 0 8 17 36 37 63 l38 49 -4 102 -3 103 52 -35 c29
-19 64 -35 79 -36z m165 -1655 c9 -3 16 -15 16 -25 0 -31 -54 -26 -68 6 -11
23 -10 25 12 25 14 0 31 -3 40 -6z m256 -274 c0 -5 -10 -10 -22 -9 -22 0 -22
1 -3 9 11 5 21 9 23 9 1 1 2 -3 2 -9z m-767 -7 c-13 -2 -35 -2 -50 0 -16 2 -5
4 22 4 28 0 40 -2 28 -4z m497 -22 c0 -15 -7 -19 -35 -18 -40 2 -48 19 -13 29
39 11 48 9 48 -11z m134 0 c4 -5 -3 -7 -14 -4 -23 6 -26 13 -6 13 8 0 17 -4
20 -9z m53 3 c-3 -3 -12 -4 -19 -1 -8 3 -5 6 6 6 11 1 17 -2 13 -5z m-140 -10
c-3 -3 -12 -4 -19 -1 -8 3 -5 6 6 6 11 1 17 -2 13 -5z"/>
<path d="M3740 2750 c8 -5 22 -9 30 -9 10 0 8 3 -5 9 -27 12 -43 12 -25 0z"/>
<path d="M3804 2678 c0 -35 -4 -76 -9 -92 -6 -22 -4 -32 8 -41 14 -10 17 -37
19 -160 2 -97 7 -150 14 -152 8 -3 13 44 18 144 6 125 10 151 26 168 19 21 18
65 -2 65 -6 0 -8 27 -6 65 l3 65 -35 0 -35 0 -1 -62z"/>
<path d="M4170 2521 c0 -20 61 -151 71 -151 5 0 9 3 9 8 -2 16 -79 156 -80
143z"/>
<path d="M4150 2463 c0 -14 72 -133 80 -133 15 0 13 6 -31 75 -38 61 -49 74
-49 58z"/>
<path d="M3470 2315 c-13 -14 -20 -28 -17 -32 8 -7 57 35 57 49 0 15 -16 8
-40 -17z"/>
<path d="M3600 1693 c0 -6 28 -13 63 -17 34 -3 105 -11 157 -16 52 -6 138 -21
192 -35 156 -40 180 -33 34 9 -49 15 -150 33 -225 41 -75 8 -155 18 -178 21
-26 4 -43 2 -43 -3z"/>
<path d="M3455 1652 c-11 -3 34 -11 100 -17 66 -6 124 -8 129 -4 4 4 -27 10
-70 13 -44 4 -92 8 -109 10 -16 2 -39 1 -50 -2z"/>
<path d="M3465 1402 c16 -15 162 -64 182 -60 10 2 -18 16 -62 32 -95 34 -134
43 -120 28z"/>
<path d="M3758 1343 c12 -2 32 -2 45 0 12 2 2 4 -23 4 -25 0 -35 -2 -22 -4z"/>
<path d="M4055 1300 c-3 -4 19 -10 48 -14 74 -8 103 -8 92 3 -12 11 -134 20
-140 11z"/>
<path d="M3632 1264 c-22 -24 -27 -152 -8 -198 20 -48 20 -46 -6 -47 -18 -1
-17 -3 6 -8 41 -8 45 -29 6 -25 -41 5 -53 13 -46 30 3 8 -1 14 -9 14 -19 0
-19 -10 -1 -36 11 -15 27 -21 63 -22 26 -2 57 -5 68 -9 13 -4 9 4 -14 23 -65
55 -91 168 -56 251 17 41 16 48 -3 27z"/>
<path d="M3745 1263 c-11 -3 -24 -10 -30 -15 -7 -7 -2 -8 15 -3 52 15 64 30
15 18z"/>
<path d="M3842 1230 c28 -28 30 -35 26 -81 -3 -30 -2 -45 3 -37 24 38 -9 148
-45 148 -9 0 -3 -11 16 -30z"/>
<path d="M3673 1160 c0 -25 2 -35 4 -22 2 12 2 32 0 45 -2 12 -4 2 -4 -23z"/>
<path d="M3778 1053 c7 -3 16 -2 19 1 4 3 -2 6 -13 5 -11 0 -14 -3 -6 -6z"/>
<path d="M3032 848 c-17 -51 -51 -158 -77 -238 -117 -363 -183 -596 -172 -606
3 -3 10 19 17 48 21 89 97 339 186 616 47 145 83 266 80 269 -2 3 -18 -37 -34
-89z"/>
<path d="M3808 821 c-12 -98 -10 -297 2 -285 7 7 9 74 8 180 -2 135 -4 156
-10 105z"/>
<path d="M3500 583 c1 -9 81 -64 125 -86 17 -8 54 -22 82 -31 29 -10 56 -22
59 -28 4 -6 2 -8 -3 -5 -12 8 -33 -65 -33 -112 0 -16 -5 -31 -10 -33 -11 -3
-36 -276 -26 -285 11 -11 14 2 36 150 11 81 28 169 36 196 14 47 38 80 50 68
4 -3 16 -98 28 -211 18 -177 23 -206 38 -206 14 0 16 11 12 88 -11 258 -19
327 -43 375 -12 26 -27 47 -31 47 -22 0 -40 -14 -40 -30 0 -16 -4 -17 -37 -8
-55 15 -153 62 -192 92 -35 26 -51 32 -51 19z m320 -103 c0 -5 -4 -10 -10 -10
-5 0 -10 5 -10 10 0 6 5 10 10 10 6 0 10 -4 10 -10z m-15 -30 c-3 -5 -12 -10
-18 -10 -7 0 -6 4 3 10 19 12 23 12 15 0z"/>
<path d="M4067 574 c-3 -3 -42 -18 -87 -34 -45 -15 -77 -31 -72 -34 11 -7 98
18 139 39 15 8 33 15 40 15 6 0 15 5 18 10 7 11 -27 14 -38 4z"/>
<path d="M3946 494 c-26 -9 -46 -18 -43 -21 7 -7 117 18 123 29 8 12 -24 9
-80 -8z"/>
</g>
</svg>
