<?xml version="1.0" standalone="no"?>
<!DOCTYPE svg PUBLIC "-//W3C//DTD SVG 20010904//EN"
 "http://www.w3.org/TR/2001/REC-SVG-20010904/DTD/svg10.dtd">
<svg version="1.0" xmlns="http://www.w3.org/2000/svg"
 width="728.000000pt" height="760.000000pt" viewBox="0 0 728.000000 760.000000"
 preserveAspectRatio="xMidYMid meet">

<g transform="translate(0.000000,760.000000) scale(0.100000,-0.100000)"
fill="#000000" stroke="none">
<path d="M2485 7059 c-354 -35 -709 -201 -956 -448 -110 -110 -259 -326 -333
-481 -100 -210 -137 -495 -106 -810 8 -79 7 -97 -5 -106 -20 -15 -19 -22 2
-20 12 1 19 -7 21 -24 4 -31 58 -249 77 -310 24 -78 37 -225 45 -540 10 -378
23 -453 112 -625 53 -103 220 -346 337 -489 31 -38 90 -119 131 -179 117 -171
194 -212 395 -211 l111 0 33 -75 c87 -198 149 -381 136 -401 -3 -6 -12 -10
-19 -10 -23 0 -120 -47 -152 -72 -20 -17 -71 -34 -169 -57 -216 -52 -375 -106
-443 -151 -64 -43 -113 -94 -211 -218 -36 -45 -69 -82 -75 -82 -14 0 -198 -93
-217 -109 -8 -6 -26 -21 -42 -32 -43 -32 -101 -126 -147 -235 -22 -54 -56
-135 -75 -179 -45 -109 -125 -314 -125 -322 0 -4 -18 -25 -39 -48 -52 -53
-214 -375 -367 -728 -39 -91 -40 -97 -16 -97 12 0 25 18 42 57 13 32 39 87 57
123 18 35 33 68 33 72 0 14 208 438 243 495 17 29 37 53 44 53 7 0 13 6 13 13
0 11 58 57 73 57 16 0 5 -18 -14 -23 -12 -3 -18 -10 -14 -16 3 -6 0 -9 -8 -5
-8 3 -17 -1 -20 -9 -4 -10 4 -14 34 -14 38 0 38 1 17 15 l-21 15 22 9 c13 4
21 15 19 25 -2 13 14 27 57 50 33 18 62 33 65 33 3 0 21 -25 40 -56 81 -129
204 -245 325 -307 51 -26 74 -31 151 -35 77 -4 101 -1 154 19 83 30 162 82
248 164 56 52 80 85 114 153 24 48 44 89 46 91 3 6 247 -49 263 -60 14 -8 16
3 -72 -567 -27 -178 -49 -330 -49 -338 0 -23 29 -16 35 8 9 37 126 807 132
869 6 66 21 56 -142 94 -60 14 -121 27 -134 30 -21 6 -23 10 -17 48 7 43 78
305 96 351 l10 26 52 -21 c118 -47 368 -128 444 -144 l81 -18 -42 -41 c-65
-62 -80 -134 -44 -210 l20 -44 -21 -128 c-22 -134 -20 -143 23 -144 9 0 17 -7
17 -15 0 -8 -23 -162 -50 -341 -45 -291 -51 -348 -36 -333 2 2 25 146 50 319
59 405 52 373 86 365 15 -3 31 -2 34 3 3 5 13 64 23 131 l17 121 37 25 c46 30
63 76 57 154 -3 38 -11 68 -27 89 l-22 32 83 0 c231 1 624 93 961 226 85 33
107 39 102 26 -6 -16 -46 -252 -60 -353 -4 -32 -11 -49 -23 -52 -9 -3 -80 -28
-157 -55 -161 -57 -304 -88 -588 -128 -36 -5 -51 -12 -57 -28 -5 -11 -32 -196
-60 -411 -28 -215 -54 -407 -57 -427 -5 -34 -3 -38 16 -38 12 0 21 6 21 15 0
29 111 839 115 843 2 3 71 15 153 28 225 35 294 51 447 103 77 27 148 52 158
56 16 7 17 -2 17 -106 0 -120 17 -226 46 -280 60 -116 215 -143 459 -80 311
82 450 146 970 446 705 408 703 407 807 420 65 7 219 -8 321 -31 l67 -16 73
-98 c80 -108 118 -166 354 -545 89 -143 167 -267 172 -275 15 -23 14 362 -1
397 -32 75 -178 338 -231 417 -94 141 -226 260 -454 410 -63 41 -80 60 -147
160 -41 63 -110 150 -153 193 -86 88 -144 121 -269 153 -81 21 -263 50 -313
50 -20 0 -48 13 -81 38 -81 61 -278 168 -365 199 -113 39 -210 38 -370 -6
-120 -32 -281 -91 -427 -157 -43 -19 -79 -34 -81 -34 -9 0 -127 159 -192 259
-202 308 -289 592 -290 946 l0 170 54 165 c56 173 94 274 236 634 148 377 192
552 202 806 12 311 -72 701 -212 980 -132 263 -342 469 -600 590 -211 98 -503
187 -695 210 -95 11 -276 11 -395 -1z m595 -72 c279 -73 501 -163 652 -263 90
-60 240 -208 307 -304 243 -346 365 -916 292 -1362 -26 -159 -75 -310 -229
-698 -83 -210 -138 -369 -178 -510 l-58 -205 0 -180 c-1 -160 2 -194 27 -310
52 -243 114 -387 267 -620 94 -142 127 -186 233 -307 l58 -66 -64 -90 c-99
-137 -165 -245 -229 -378 -32 -67 -58 -126 -58 -131 0 -21 -300 -130 -527
-192 -362 -99 -564 -119 -783 -74 -173 35 -529 155 -538 181 -7 21 90 174 223
350 l40 53 3 -75 c2 -42 7 -76 11 -76 12 0 17 73 20 265 3 283 -24 423 -138
694 l-57 137 56 21 c92 33 695 440 955 644 117 91 216 185 250 237 60 92 100
282 112 530 9 197 -10 187 -26 -14 -13 -178 -37 -306 -77 -414 -24 -65 -38
-86 -108 -156 -79 -79 -265 -231 -372 -304 -13 -8 -60 -42 -106 -75 -95 -68
-403 -275 -525 -352 -108 -68 -157 -84 -283 -90 -207 -11 -290 35 -410 227
-19 31 -56 81 -81 111 -73 86 -191 246 -269 364 -169 257 -210 404 -210 758
-1 200 -29 423 -90 702 -16 77 -30 154 -30 172 0 32 1 32 98 64 154 50 255 50
500 1 73 -14 84 -15 92 -2 11 17 11 102 0 145 -6 24 -8 19 -9 -30 -1 -33 -5
-66 -9 -73 -7 -10 -33 -7 -123 14 -63 14 -159 28 -214 31 -91 5 -106 3 -175
-22 -41 -15 -96 -38 -121 -51 l-46 -23 -7 76 c-11 133 -6 384 9 486 29 191 93
339 248 571 202 305 529 528 902 617 144 34 193 38 430 34 226 -3 232 -4 365
-38z m1817 -4543 c-3 -3 -12 -4 -19 -1 -8 3 -5 6 6 6 11 1 17 -2 13 -5z m-40
-10 c-3 -3 -12 -4 -19 -1 -8 3 -5 6 6 6 11 1 17 -2 13 -5z m563 -49 c14 -8 21
-14 15 -14 -5 0 -21 6 -35 14 -14 8 -20 14 -15 14 6 0 21 -6 35 -14z m-720 -5
c-8 -5 -19 -10 -25 -10 -5 0 -3 5 5 10 8 5 20 10 25 10 6 0 3 -5 -5 -10z m-50
-20 c-8 -5 -22 -9 -30 -9 -10 0 -8 3 5 9 27 12 43 12 25 0z m942 -71 c28 -17
29 -19 8 -14 -14 4 -32 13 -40 21 -21 20 -5 17 32 -7z m1378 -974 c14 -19 14
-19 -2 -6 -10 7 -18 18 -18 24 0 6 1 8 3 6 1 -2 9 -13 17 -24z"/>
<path d="M2745 5680 c-194 -17 -295 -67 -529 -262 l-39 -33 6 54 c4 30 3 50
-2 45 -8 -9 -41 -125 -41 -144 0 -24 36 -5 105 55 234 204 364 258 655 272 74
4 116 9 105 14 -24 9 -150 9 -260 -1z"/>
<path d="M3635 5635 c-70 -36 -191 -128 -176 -133 5 -2 31 14 58 34 68 53 165
96 215 96 61 1 122 -33 194 -109 117 -123 173 -258 174 -414 0 -170 -61 -318
-222 -537 -70 -95 -85 -140 -22 -67 131 152 202 266 245 395 30 91 31 99 27
230 -4 116 -8 144 -30 196 -55 133 -176 275 -270 319 -73 34 -113 32 -193 -10z"/>
<path d="M3730 5457 c-59 -39 -75 -79 -75 -187 1 -106 13 -141 101 -291 33
-56 50 -101 65 -170 11 -51 23 -96 26 -99 3 -3 3 37 1 88 -5 80 -10 101 -37
150 -120 218 -145 300 -121 401 13 56 63 110 103 112 21 0 21 1 2 9 -29 12
-29 12 -65 -13z"/>
<path d="M2250 5168 c-17 -27 -30 -91 -16 -77 8 8 46 109 41 109 -3 0 -14 -15
-25 -32z"/>
<path d="M2835 5155 c-71 -12 -237 -39 -368 -60 l-238 -38 6 -26 c11 -45 77
-154 122 -202 53 -57 139 -104 215 -118 172 -31 349 76 399 241 27 88 32 222
9 224 -8 1 -73 -8 -145 -21z m129 -72 c-3 -32 -15 -87 -26 -122 -24 -79 -86
-149 -167 -188 -48 -24 -68 -28 -141 -28 -74 0 -92 4 -143 30 -33 16 -79 52
-106 81 -49 53 -110 158 -99 169 6 6 384 70 568 96 41 6 77 13 79 15 2 2 13 4
23 4 18 0 19 -5 12 -57z"/>
<path d="M2725 5046 c-12 -9 -15 -19 -10 -35 9 -30 59 -26 63 6 4 29 -28 47
-53 29z"/>
<path d="M1700 5112 c0 -10 83 -92 93 -92 15 0 -24 59 -52 79 -31 23 -41 26
-41 13z"/>
<path d="M1511 4945 c-260 -28 -261 -29 -261 -59 0 -28 30 -118 59 -173 55
-108 240 -167 356 -114 43 19 104 81 130 131 20 38 45 151 45 203 l0 37 -57
-1 c-32 -1 -154 -12 -272 -24z m286 -64 c-23 -215 -175 -320 -351 -243 -22 10
-55 33 -73 50 -29 30 -68 112 -80 172 l-5 26 254 26 c139 14 255 26 257 27 2
0 1 -26 -2 -58z"/>
<path d="M1687 4894 c-25 -25 8 -70 43 -59 32 10 24 59 -10 63 -14 2 -29 0
-33 -4z"/>
<path d="M1855 4733 c-25 -145 -38 -202 -74 -306 -56 -164 -67 -224 -48 -268
8 -20 30 -53 48 -74 40 -46 129 -118 137 -111 3 3 -27 39 -65 80 -110 116
-113 136 -39 359 24 72 47 161 50 197 4 36 9 86 12 113 7 57 -12 66 -21 10z"/>
<path d="M2020 4048 l-25 -11 24 -5 c35 -6 131 8 131 19 0 13 -99 10 -130 -3z"/>
<path d="M2072 3538 c-61 -20 -179 -145 -157 -166 3 -3 40 5 83 17 149 45 191
51 382 50 240 0 230 0 230 9 0 9 -220 65 -315 81 -103 17 -189 20 -223 9z
m328 -49 l105 -24 -190 -6 c-143 -5 -210 -11 -270 -27 -44 -11 -81 -19 -83
-17 -6 6 53 69 83 87 26 17 44 19 140 15 64 -3 154 -15 215 -28z"/>
<path d="M2640 3545 c0 -3 9 -19 20 -37 11 -18 20 -43 20 -55 0 -30 10 -54 21
-47 16 9 10 55 -13 95 -18 32 -48 60 -48 44z"/>
<path d="M3315 1727 c-148 -212 -185 -267 -178 -267 20 0 244 323 232 335 -2
1 -26 -29 -54 -68z"/>
<path d="M2676 1613 c9 -37 49 -123 68 -147 27 -33 29 -10 3 31 -14 21 -33 62
-43 91 -19 54 -39 72 -28 25z"/>
<path d="M5203 6239 c-143 -29 -183 -234 -58 -294 77 -36 181 0 224 76 67 118
-32 246 -166 218z m101 -69 c86 -102 -16 -251 -130 -190 -70 38 -72 154 -4
207 8 7 36 13 62 13 39 0 50 -4 72 -30z"/>
<path d="M4968 6165 c-24 -41 -46 -75 -50 -75 -3 0 -26 31 -50 70 -50 80 -77
93 -68 30 1 -8 24 -43 52 -77 l49 -63 -27 -50 c-20 -36 -24 -54 -17 -61 16
-16 33 -2 50 40 8 20 44 80 80 134 36 55 62 104 59 113 -12 31 -37 11 -78 -61z"/>
<path d="M5945 6235 c-5 -2 -27 -6 -47 -10 -44 -7 -70 -29 -61 -51 5 -13 15
-15 44 -10 l39 6 0 -92 c0 -110 6 -138 30 -138 16 0 17 12 16 123 l-1 122 48
3 c51 3 63 22 28 42 -19 9 -74 13 -96 5z"/>
<path d="M6184 6232 c-6 -4 -26 -45 -43 -92 -18 -47 -44 -105 -57 -129 -13
-24 -24 -50 -24 -58 0 -21 29 -28 43 -10 7 9 46 22 89 30 78 14 78 14 93 -10
9 -12 20 -23 26 -23 24 0 19 35 -15 100 -20 38 -47 97 -60 132 -24 63 -33 73
-52 60z m44 -131 c12 -29 22 -57 22 -61 0 -9 -95 -34 -108 -28 -5 1 5 38 21
81 17 42 34 74 37 70 4 -5 16 -32 28 -62z"/>
<path d="M5435 6220 c-7 -12 -4 -246 3 -267 6 -19 34 -16 107 12 l65 24 6 -25
c4 -16 12 -24 22 -22 14 3 16 24 17 146 0 137 -1 143 -20 140 -18 -3 -21 -13
-25 -97 l-5 -94 -63 -24 c-77 -28 -77 -29 -69 113 4 96 3 104 -13 104 -11 0
-22 -5 -25 -10z"/>
<path d="M6361 6216 c-9 -10 -10 -49 -4 -143 l8 -128 33 -3 c75 -7 196 37 179
65 -5 8 -24 7 -65 -3 -31 -7 -69 -13 -84 -14 -24 0 -27 4 -34 46 -4 26 -4 80
0 120 4 59 3 74 -8 74 -7 0 -19 -6 -25 -14z"/>
<path d="M6611 6216 c-9 -10 -10 -51 -5 -145 6 -113 9 -131 23 -129 9 2 17 15
19 31 4 32 2 32 45 7 41 -24 137 -39 137 -22 0 7 -26 25 -57 41 -107 54 -106
47 -13 134 65 60 79 78 66 83 -20 8 -75 -29 -131 -86 -21 -22 -42 -40 -46 -40
-3 0 -4 32 -1 70 4 58 2 70 -10 70 -9 0 -21 -6 -27 -14z"/>
<path d="M5545 5815 c-5 -2 -22 -6 -37 -9 -34 -8 -94 -59 -114 -97 -41 -81 12
-188 102 -205 57 -10 102 4 150 48 62 57 73 108 42 190 -16 42 -104 87 -143
73z m73 -80 c45 -49 45 -109 1 -160 -26 -30 -37 -35 -74 -35 -74 0 -125 67
-111 144 6 31 45 77 76 89 31 12 76 -4 108 -38z"/>
<path d="M6105 5808 c-3 -7 -16 -53 -30 -103 -15 -49 -28 -91 -30 -93 -6 -7
-36 70 -49 128 -16 70 -36 72 -53 5 -8 -27 -25 -87 -39 -132 -25 -77 -26 -113
-6 -113 4 0 21 41 37 91 16 50 32 92 36 94 3 3 17 -34 30 -81 13 -47 27 -91
31 -97 13 -21 28 7 53 98 14 48 26 90 28 92 3 2 17 -38 33 -88 16 -51 34 -94
40 -96 24 -8 22 30 -5 115 -16 48 -34 111 -41 140 -12 50 -26 66 -35 40z"/>
<path d="M4838 5794 c-41 -12 -48 -18 -48 -40 0 -25 2 -26 43 -20 l43 7 0 -58
c1 -157 3 -173 24 -173 19 0 20 6 17 123 l-2 122 48 3 c32 2 47 7 47 17 0 36
-87 45 -172 19z"/>
<path d="M5125 5794 c-72 -38 -99 -84 -93 -162 4 -48 10 -60 41 -88 61 -56
148 -55 217 2 81 68 81 186 1 243 -36 26 -122 28 -166 5z m137 -54 c73 -80 24
-205 -80 -202 -53 2 -102 56 -102 112 0 113 111 168 182 90z"/>
<path d="M6660 5801 c-126 -40 -194 -156 -145 -250 17 -33 33 -41 85 -41 61 0
181 72 158 95 -3 4 -30 -6 -59 -21 -128 -64 -209 -5 -137 99 35 50 138 88 138
51 0 -9 7 -14 18 -12 13 2 17 13 17 43 0 35 -3 40 -25 42 -14 1 -36 -2 -50 -6z"/>
<path d="M6982 5798 c-7 -7 -12 -31 -12 -54 0 -41 0 -42 -42 -48 -24 -4 -54
-10 -67 -13 -24 -6 -24 -5 -17 51 6 56 6 57 -16 54 -30 -4 -32 -18 -23 -165 6
-108 9 -124 24 -121 13 3 16 15 14 65 -1 58 0 62 25 71 15 6 44 13 64 17 l37
6 7 -71 c6 -61 9 -70 27 -70 18 0 19 5 15 70 -4 58 -2 72 11 80 15 9 15 11 0
23 -13 10 -15 24 -11 65 3 41 1 52 -10 52 -8 0 -19 -5 -26 -12z"/>
<path d="M6234 5789 c-3 -6 -3 -71 1 -145 6 -118 9 -134 24 -134 16 0 91 24
144 45 14 6 17 2 17 -20 0 -20 4 -26 18 -23 15 3 17 19 18 146 1 130 0 142
-16 142 -25 0 -30 -20 -30 -111 l0 -79 -37 -16 c-21 -8 -53 -18 -72 -21 l-34
-6 7 116 c7 113 7 117 -13 117 -11 0 -23 -5 -27 -11z"/>
<path d="M4948 5393 c-1 -5 -19 -20 -38 -35 -19 -15 -81 -64 -136 -110 -56
-46 -148 -121 -205 -167 -220 -179 -217 -175 -179 -199 25 -15 23 -16 125 67
44 36 114 93 155 126 272 221 350 287 350 295 0 20 -64 40 -72 23z"/>
<path d="M985 910 c-13 -6 -15 -9 -5 -9 8 0 22 4 30 9 18 12 2 12 -25 0z"/>
<path d="M950 890 c0 -5 5 -10 11 -10 5 0 7 5 4 10 -3 6 -8 10 -11 10 -2 0 -4
-4 -4 -10z"/>
<path d="M936 855 c-11 -8 -15 -15 -9 -15 6 0 16 7 23 15 16 19 11 19 -14 0z"/>
<path d="M917 819 c7 -7 15 -10 18 -7 3 3 -2 9 -12 12 -14 6 -15 5 -6 -5z"/>
<path d="M5202 683 c-112 -158 -181 -270 -224 -362 -48 -103 -128 -298 -128
-311 0 -6 8 -10 19 -10 14 0 25 16 42 62 83 227 154 366 295 579 46 69 84 129
84 132 0 23 -28 -5 -88 -90z"/>
<path d="M786 762 c-3 -5 1 -9 9 -9 8 0 15 4 15 9 0 4 -4 8 -9 8 -6 0 -12 -4
-15 -8z"/>
<path d="M771 730 c0 -8 4 -24 9 -35 5 -13 9 -14 9 -5 0 8 -4 24 -9 35 -5 13
-9 14 -9 5z"/>
<path d="M751 700 c0 -8 4 -22 9 -30 12 -18 12 -2 0 25 -6 13 -9 15 -9 5z"/>
<path d="M707 613 c-15 -32 -20 -49 -11 -38 15 19 16 19 9 -14 -5 -25 -4 -32
5 -26 8 5 10 20 7 41 -3 18 -1 34 4 36 6 2 11 10 12 18 2 8 6 21 10 28 5 6 4
12 0 12 -5 0 -21 -26 -36 -57z"/>
<path d="M1006 558 c-3 -13 -8 -72 -11 -133 -3 -60 -16 -181 -29 -268 l-22
-158 20 3 c19 3 22 15 37 145 23 202 33 419 20 427 -6 4 -12 -3 -15 -16z"/>
<path d="M661 515 c-13 -22 -16 -35 -9 -33 14 5 43 57 35 64 -2 3 -14 -11 -26
-31z"/>
<path d="M619 438 c-21 -43 -40 -101 -35 -106 6 -5 25 32 30 60 3 13 5 28 6
33 1 6 6 -3 10 -20 6 -25 7 -23 7 18 -1 26 -2 47 -2 47 0 0 -8 -15 -16 -32z"/>
<path d="M622 350 c0 -14 2 -19 5 -12 2 6 2 18 0 25 -3 6 -5 1 -5 -13z"/>
<path d="M547 261 c-4 -17 -3 -21 5 -13 5 5 8 16 6 23 -3 8 -7 3 -11 -10z"/>
<path d="M533 222 c-7 -4 -17 -20 -22 -35 -7 -18 -7 -26 -1 -22 6 3 10 13 10
21 0 8 5 14 11 14 6 0 8 -10 5 -22 -3 -13 -3 -17 0 -10 3 6 10 9 15 6 6 -3 7
6 3 23 -8 35 -7 33 -21 25z"/>
<path d="M552 115 c0 -16 2 -22 5 -12 2 9 2 23 0 30 -3 6 -5 -1 -5 -18z"/>
<path d="M466 87 c3 -10 9 -15 12 -12 3 3 0 11 -7 18 -10 9 -11 8 -5 -6z"/>
<path d="M493 56 c-13 -6 -23 -14 -23 -19 0 -4 5 -5 10 -2 6 3 10 -1 10 -9 0
-20 17 -21 36 -2 29 30 7 50 -33 32z"/>
</g>
</svg>
