<?xml version="1.0" standalone="no"?>
<!DOCTYPE svg PUBLIC "-//W3C//DTD SVG 20010904//EN"
 "http://www.w3.org/TR/2001/REC-SVG-20010904/DTD/svg10.dtd">
<svg version="1.0" xmlns="http://www.w3.org/2000/svg"
 width="728.000000pt" height="542.000000pt" viewBox="0 0 728.000000 542.000000"
 preserveAspectRatio="xMidYMid meet">

<g transform="translate(0.000000,542.000000) scale(0.100000,-0.100000)"
fill="#000000" stroke="none">
<path d="M5870 5409 c-87 -24 -162 -70 -225 -137 -136 -145 -196 -235 -279
-421 -114 -254 -182 -617 -193 -1026 -6 -229 -11 -251 -74 -331 -34 -43 -33
-55 4 -65 42 -11 85 -47 112 -93 23 -39 41 -118 60 -261 24 -184 69 -432 89
-491 60 -178 146 -273 335 -369 130 -66 219 -87 356 -86 214 2 382 77 537 237
125 130 188 250 256 494 65 228 68 245 91 402 32 215 44 458 38 748 -10 480
-61 742 -200 1030 -69 144 -151 228 -287 293 -142 69 -234 87 -426 86 -88 0
-175 -5 -194 -10z m440 -59 c251 -72 371 -183 466 -430 105 -274 139 -479 152
-917 9 -299 9 -303 -19 -568 -25 -233 -46 -343 -104 -550 -81 -287 -174 -442
-336 -563 -135 -100 -265 -145 -424 -145 -116 1 -194 23 -355 102 -122 60
-199 134 -246 237 -46 99 -56 143 -109 484 -51 334 -66 381 -142 435 -23 17
-42 33 -42 37 -1 4 14 30 32 59 l32 52 6 226 c7 241 13 299 60 568 32 191 60
287 125 439 131 307 321 515 506 554 78 16 314 5 398 -20z"/>
<path d="M6275 3920 c-60 -60 -113 -110 -117 -110 -4 0 -8 42 -8 93 0 106 -9
132 -37 104 -16 -15 -18 -41 -21 -195 -4 -213 1 -262 29 -262 17 0 19 7 19 69
0 38 3 76 6 85 16 42 156 -2 232 -73 72 -67 86 -17 15 53 -25 25 -71 58 -100
72 -30 14 -53 29 -51 34 2 5 40 47 86 94 68 71 83 91 80 113 -2 14 -8 28 -14
30 -5 2 -59 -46 -119 -107z"/>
<path d="M5805 4001 c-86 -40 -163 -152 -172 -250 -7 -71 8 -121 49 -161 25
-26 37 -30 82 -30 98 0 195 69 251 180 50 99 43 194 -20 249 -31 27 -43 31
-93 31 -34 0 -73 -8 -97 -19z m168 -61 c57 -45 38 -151 -42 -241 -39 -43 -61
-59 -97 -69 -148 -42 -216 115 -107 248 20 24 55 53 77 63 56 25 136 25 169
-1z"/>
<path d="M2515 5323 c-172 -22 -312 -79 -508 -207 -152 -100 -180 -123 -256
-221 -169 -215 -269 -433 -337 -730 -15 -64 -18 -298 -5 -398 7 -55 6 -59 -19
-77 -33 -23 -82 -115 -106 -195 -21 -74 -21 -234 0 -354 19 -109 76 -223 156
-316 87 -100 132 -126 217 -128 37 0 74 1 80 4 8 2 25 -30 46 -91 66 -188 159
-345 268 -450 l57 -56 3 -156 4 -155 -50 -40 c-27 -22 -72 -67 -98 -100 -37
-47 -56 -62 -82 -66 -18 -3 -50 -16 -72 -30 -178 -112 -236 -141 -301 -149
-55 -6 -71 -13 -99 -40 -18 -18 -38 -46 -44 -63 -11 -29 -14 -30 -68 -31 -149
-1 -275 -128 -316 -316 -24 -113 -51 -177 -125 -293 -106 -166 -153 -278 -209
-501 -37 -142 -38 -164 -12 -164 11 0 23 5 26 10 4 6 11 8 16 4 29 -18 651 1
722 22 30 9 9 22 -31 19 -20 -2 -126 -6 -234 -10 l-198 -8 0 25 0 25 310 6
c180 3 317 10 328 16 23 14 14 14 -345 12 -194 -1 -294 2 -298 9 -4 6 -4 23
-1 38 l6 27 163 -3 c189 -4 389 6 381 19 -3 5 -65 9 -138 9 -73 0 -194 3 -269
7 -135 6 -137 6 -137 30 l0 23 238 0 c240 0 316 5 306 21 -3 5 -124 9 -270 9
l-265 0 3 48 3 47 95 6 c52 4 165 8 250 9 85 1 164 5 175 9 38 16 -92 24 -307
19 l-209 -5 6 26 c4 14 8 27 10 29 2 2 158 6 347 9 188 3 359 9 378 13 65 13
-231 23 -481 15 -263 -8 -250 -11 -233 51 5 20 13 21 267 28 289 7 370 14 360
28 -3 7 -115 8 -311 3 l-305 -8 6 33 c4 18 7 39 7 47 0 13 32 14 233 8 227 -7
358 -2 341 15 -5 4 -133 10 -284 13 -297 6 -276 2 -272 57 2 19 9 20 212 20
l210 0 110 -56 c125 -65 167 -72 263 -50 52 12 126 16 305 17 178 0 231 3 212
11 -14 6 -97 11 -187 12 -90 0 -163 3 -163 6 0 3 38 20 84 38 67 25 99 32 156
32 68 0 74 -2 118 -38 26 -22 63 -48 82 -59 49 -29 159 -61 236 -69 35 -4 67
-10 70 -15 9 -15 34 -395 34 -526 l0 -133 30 0 30 0 -7 249 -6 250 58 -30 c32
-16 66 -29 75 -29 10 0 21 -8 25 -17 4 -10 10 -109 13 -220 l5 -203 93 0 94 0
0 216 c0 118 -4 223 -10 233 -7 15 -2 23 28 42 101 66 119 193 37 272 -24 24
-31 37 -24 44 17 17 14 143 -4 185 -9 21 -27 49 -42 64 -14 14 -23 30 -19 35
3 5 28 21 57 35 57 29 156 120 188 171 11 18 24 33 29 33 4 0 27 -32 50 -71
23 -38 61 -95 86 -124 24 -30 44 -59 44 -63 0 -18 -99 -149 -131 -173 -19 -15
-63 -41 -99 -59 -36 -18 -67 -34 -68 -35 -2 -2 4 -48 14 -102 15 -78 18 -149
18 -353 -1 -140 -4 -276 -8 -303 l-7 -47 29 0 30 0 7 178 c9 211 1 430 -20
526 -8 38 -14 70 -12 71 1 1 27 14 58 28 71 34 135 90 184 161 21 31 45 56 52
56 8 0 29 -11 47 -25 77 -59 119 -69 294 -73 l162 -4 83 41 c46 23 114 67 152
98 61 50 69 54 80 39 30 -40 111 -410 120 -546 14 -208 26 -282 55 -340 16
-31 36 -91 46 -133 17 -73 20 -77 45 -77 l27 0 -14 58 c-20 84 -29 111 -58
174 -23 50 -28 82 -41 250 -15 189 -34 296 -91 508 -28 105 -27 101 -18 182
14 122 -16 188 -91 202 -19 4 -38 13 -42 20 -5 7 -19 19 -31 25 -41 22 -103
83 -123 123 -37 73 -119 88 -212 39 l-55 -29 -47 39 c-54 45 -81 54 -129 45
-32 -6 -35 -4 -45 26 -6 18 -21 46 -34 61 -22 28 -27 29 -132 34 -95 5 -118
10 -165 34 -30 15 -74 31 -97 35 l-43 7 0 51 0 52 63 44 c131 93 226 204 325
383 145 260 174 369 192 718 13 255 13 822 0 929 -17 141 -108 465 -170 604
-97 218 -277 425 -485 558 -185 119 -335 160 -580 156 -49 0 -103 -3 -120 -5z
m283 -53 c123 -14 186 -32 288 -82 111 -55 200 -123 330 -252 128 -129 187
-217 256 -387 58 -143 89 -246 128 -438 l30 -150 -1 -348 c-2 -397 -13 -681
-29 -791 -24 -153 -107 -352 -224 -532 -79 -120 -146 -193 -250 -272 -159
-120 -235 -142 -461 -135 -132 4 -289 27 -305 44 -3 3 34 3 82 0 88 -6 158 0
158 13 0 4 -74 10 -164 13 l-165 6 -123 59 c-126 61 -222 131 -303 220 l-39
44 201 -8 c126 -4 206 -3 217 3 21 12 -109 23 -268 23 -141 0 -170 6 -189 40
-10 15 -17 30 -17 33 0 3 123 3 273 1 181 -3 262 -1 242 6 -16 5 -144 13 -284
17 l-254 8 -18 34 c-10 19 -17 36 -16 38 2 1 61 -2 133 -8 176 -14 536 -23
568 -15 63 16 6 26 -142 26 -86 0 -251 5 -365 12 l-209 12 -15 29 -15 30 306
-8 c196 -5 306 -4 306 2 0 16 -117 23 -377 23 -134 0 -243 3 -243 8 0 4 -3 18
-7 31 l-6 24 339 -3 c186 -2 371 -2 409 -1 l70 3 -45 9 c-25 5 -212 10 -417
11 l-371 3 -11 36 c-6 20 -11 42 -11 49 0 9 89 10 409 5 301 -6 410 -5 415 4
5 8 -18 11 -81 13 -48 0 -99 2 -113 3 -14 1 -168 5 -342 9 -308 6 -318 6 -328
-13 -13 -26 -89 -38 -140 -22 -39 11 -140 94 -129 105 3 3 147 2 320 -4 366
-11 693 -11 729 0 17 6 1 8 -55 9 -44 1 -201 6 -350 11 -148 5 -355 10 -460
11 -104 1 -198 3 -207 6 -16 4 -68 78 -68 96 0 4 27 7 59 7 51 0 61 -3 66 -20
9 -27 53 -60 82 -60 35 0 81 26 88 51 7 22 9 22 194 15 102 -3 258 -13 346
-21 176 -16 386 -19 325 -4 -47 11 -496 46 -697 55 -154 6 -163 7 -169 28 -7
21 -22 36 -36 36 -5 0 -8 -13 -8 -30 0 -29 -2 -30 -44 -30 -47 0 -56 11 -56
74 l0 29 128 -7 c70 -3 285 -8 477 -10 414 -6 378 8 -65 23 -162 6 -327 13
-366 17 l-70 5 2 40 c1 22 3 41 5 43 2 2 201 0 443 -5 241 -5 445 -5 453 0 24
13 -78 20 -383 26 -154 3 -333 8 -400 11 l-120 6 -14 46 c-8 26 -16 53 -18 60
-4 13 -3 13 287 -8 175 -13 638 -13 626 -1 -6 6 -154 15 -330 21 -176 6 -369
15 -430 20 -60 5 -126 9 -145 10 -29 0 -39 7 -57 35 -13 19 -23 37 -23 40 0 7
135 6 142 0 3 -3 61 -8 129 -10 133 -5 501 -31 559 -41 23 -4 32 -2 25 4 -16
16 -198 40 -447 58 l-226 18 -16 34 c-9 19 -15 36 -14 38 2 2 31 -1 65 -6 34
-4 124 -11 200 -15 76 -3 194 -11 261 -16 77 -7 128 -7 133 -2 11 11 -114 30
-246 38 -49 2 -168 10 -264 17 -160 11 -176 14 -200 35 l-26 24 105 -5 c271
-14 502 -18 497 -9 -8 12 -100 21 -332 34 -255 14 -315 19 -372 31 -49 10 -53
13 -53 40 l0 29 128 -6 c70 -4 218 -13 329 -21 238 -17 243 -17 243 -5 0 5
-28 14 -62 20 -82 14 -543 44 -596 39 -42 -4 -52 4 -52 40 0 16 28 17 323 17
315 0 443 8 432 25 -3 5 -162 7 -368 4 -199 -3 -367 -2 -373 3 -7 4 -14 23
-15 41 l-4 34 428 -2 c248 0 427 3 427 8 0 18 -95 22 -471 22 l-379 0 0 28 0
29 182 6 c101 3 331 4 513 2 210 -3 319 -2 300 4 -43 14 -587 29 -805 24
l-186 -5 4 41 4 41 257 0 c357 0 686 -17 861 -45 l35 -5 -30 14 c-81 38 -444
65 -883 66 l-224 0 7 33 c4 17 10 36 13 41 7 13 461 0 662 -18 263 -24 427
-31 414 -16 -7 7 -77 17 -175 26 -90 7 -225 19 -299 25 -74 7 -238 12 -363 13
l-228 1 6 35 c4 19 9 38 11 42 14 23 534 3 754 -28 149 -21 325 -30 317 -17
-4 6 -44 16 -89 22 -345 45 -438 53 -696 58 -229 5 -272 8 -268 20 33 85 81
183 90 184 6 0 99 0 206 -1 191 -1 355 -11 455 -29 83 -15 155 -21 155 -12 0
27 -266 62 -537 70 -134 4 -246 10 -249 13 -3 4 0 16 6 28 10 19 18 21 53 16
77 -10 544 -19 613 -11 125 14 39 22 -301 29 -181 4 -330 8 -332 9 -1 2 7 17
19 35 l20 32 308 0 c313 0 434 6 424 21 -3 5 -162 9 -355 9 -192 0 -349 3
-349 7 0 3 11 21 25 38 l24 33 321 7 c176 4 320 11 320 16 0 8 -297 16 -395
12 -16 -1 -68 1 -115 4 l-84 5 26 23 c23 20 40 23 145 28 65 3 190 6 278 6
151 2 175 4 163 16 -2 3 -112 8 -244 11 -131 4 -240 8 -242 9 -1 1 20 16 48
33 34 21 59 30 78 27 60 -9 442 -15 442 -7 0 5 -82 15 -182 22 -100 7 -194 16
-208 20 l-25 7 32 16 c50 26 269 21 372 -9 18 -5 23 -4 19 7 -3 8 -26 19 -52
24 -46 10 -53 25 -12 25 24 0 53 16 45 24 -3 3 -46 -1 -95 -9 -49 -8 -107 -14
-129 -14 -38 1 -37 2 33 25 129 42 264 52 440 34z m-1268 -1620 l35 -19 -77
-1 c-78 0 -100 12 -55 30 34 13 59 11 97 -10z m106 -87 c19 -20 32 -39 29 -41
-5 -6 -308 -3 -313 3 -2 2 1 20 8 39 l12 36 115 0 115 0 34 -37z m-226 -72 c0
-4 -5 -22 -11 -40 -9 -27 -16 -31 -46 -31 -34 0 -34 1 -28 33 4 17 9 35 12 40
6 10 73 9 73 -2z m100 -48 l22 -28 -37 -3 c-49 -4 -66 3 -58 25 15 41 44 43
73 6z m-114 -68 c7 -17 34 -21 34 -5 0 6 27 10 60 10 59 0 60 0 80 -40 40 -78
38 -79 -112 -73 -73 3 -134 7 -136 8 -7 6 -13 88 -8 101 7 19 75 18 82 -1z
m202 -162 c3 -21 -1 -23 -36 -23 -30 0 -43 -5 -54 -22 -14 -21 -23 -23 -94
-23 -85 1 -90 5 -93 73 l-1 23 138 -3 c133 -3 137 -4 140 -25z m-103 -145 c0
-27 -3 -48 -7 -48 -5 0 -33 0 -63 0 -59 0 -63 3 -81 76 l-6 25 78 -3 79 -3 0
-47z m139 -99 c-8 -14 -64 -11 -64 4 0 9 11 12 35 9 19 -2 32 -8 29 -13z m544
-918 c3 -8 -1 -12 -9 -9 -7 2 -15 10 -17 17 -3 8 1 12 9 9 7 -2 15 -10 17 -17z
m102 -51 c22 -11 40 -23 40 -25 0 -3 -36 -5 -80 -5 -79 0 -80 0 -80 25 0 23 4
25 40 25 23 0 59 -9 80 -20z m171 -84 l54 -25 -172 0 -173 -1 0 25 0 25 119 0
c104 0 125 -3 172 -24z m798 -313 c1 -184 3 -223 15 -223 17 0 26 22 26 66 0
19 4 34 9 34 12 0 81 -80 81 -95 0 -22 -58 -101 -107 -147 -28 -25 -77 -60
-109 -76 -146 -74 -426 -68 -629 13 -80 32 -234 116 -235 128 0 4 38 5 84 1
50 -4 90 -3 101 3 20 12 -10 17 -148 29 -73 6 -107 20 -107 45 0 5 57 10 128
10 95 1 117 3 87 10 -22 4 -78 8 -125 9 -47 0 -90 4 -96 8 -11 7 -44 65 -44
77 0 3 53 5 118 5 148 1 131 18 -27 27 -109 6 -111 6 -111 30 0 24 2 25 78 23
42 -1 93 -1 112 -1 67 3 7 20 -92 27 -89 6 -95 8 -90 27 5 20 10 20 206 13
193 -6 266 -2 266 14 0 4 -106 11 -235 15 l-235 7 0 26 0 25 334 -7 c245 -5
336 -4 341 4 4 6 5 13 3 15 -2 2 -157 7 -345 11 -304 6 -341 9 -338 23 2 14
35 16 324 13 199 -2 321 0 321 6 0 17 -73 22 -362 22 -281 0 -288 0 -288 20 0
19 7 20 233 20 127 0 252 -5 277 -11 25 -6 117 -11 205 -12 167 -2 239 8 318
43 l42 19 7 -37 c4 -20 7 -137 7 -259z m127 163 c113 -52 161 -118 298 -406
149 -315 158 -329 176 -300 7 12 17 10 59 -9 45 -22 54 -23 97 -12 60 15 88
31 144 80 40 36 44 42 33 60 -24 39 -20 46 76 123 49 40 -1 54 -53 15 -17 -13
-36 -26 -42 -30 -6 -3 -28 10 -50 30 -49 45 -114 75 -183 82 l-54 6 -40 93
c-22 51 -37 95 -34 98 29 30 172 -86 196 -159 14 -40 36 -49 46 -17 4 13 -2
35 -15 57 -20 35 -21 38 -4 50 33 24 103 45 129 39 16 -4 38 -26 60 -59 50
-78 156 -168 206 -174 55 -8 69 -32 69 -116 0 -64 -1 -67 -19 -57 -33 17 -49
12 -89 -28 -52 -54 -119 -106 -172 -132 -52 -27 -212 -41 -321 -30 -140 15
-232 95 -395 342 -63 96 -121 171 -149 194 l-45 38 0 123 c0 92 3 123 13 123
6 0 35 -11 63 -24z m-1256 -71 c0 -17 -6 -25 -17 -25 -17 -1 -17 -1 0 -14 9
-7 17 -21 17 -30 0 -13 -11 -16 -62 -16 l-61 0 23 28 c32 36 83 81 93 82 4 0
7 -11 7 -25z m1571 -5 c17 -20 129 -262 129 -280 0 -5 -9 -10 -20 -10 -12 0
-34 -7 -49 -15 l-29 -14 -60 122 c-33 67 -76 143 -96 169 -20 26 -36 48 -36
50 0 2 33 2 73 0 55 -3 76 -8 88 -22z m-1600 -137 c8 -22 6 -23 -51 -23 -60 0
-76 9 -66 36 4 11 19 14 57 12 43 -2 53 -7 60 -25z m-181 -23 c0 -5 -9 -10
-21 -10 -11 0 -17 5 -14 10 3 6 13 10 21 10 8 0 14 -4 14 -10z m41 -70 c14
-47 9 -56 -21 -40 -16 9 -25 9 -33 1 -12 -12 -207 -16 -207 -3 0 4 31 24 68
44 55 31 77 37 124 38 l57 0 12 -40z m189 1 l20 -39 -71 -4 c-77 -3 -73 -6
-93 60 -7 21 -5 22 58 22 l66 0 20 -39z m-250 -91 c0 -19 -7 -20 -105 -20 -58
0 -105 2 -105 4 0 2 -3 11 -6 20 -5 14 8 16 105 16 104 0 111 -1 111 -20z m83
0 c4 -15 0 -20 -14 -20 -12 0 -19 7 -19 20 0 11 6 20 14 20 7 0 16 -9 19 -20z
m207 0 c11 -20 9 -21 -72 -18 -70 3 -83 6 -86 21 -3 15 6 17 72 17 66 0 77 -3
86 -20z m-617 -17 c-7 -2 -21 -2 -30 0 -10 3 -4 5 12 5 17 0 24 -2 18 -5z
m134 -30 l201 -5 4 -34 c2 -20 2 -36 -1 -38 -3 -1 -34 0 -67 2 -53 3 -63 7
-75 28 -16 30 -45 27 -42 -3 3 -22 1 -22 -157 -20 -88 1 -160 6 -160 11 0 5
10 24 21 43 19 30 25 34 48 28 14 -4 117 -9 228 -12z m291 -46 c3 -33 1 -38
-15 -35 -13 2 -19 14 -21 41 -3 33 -1 38 15 35 13 -2 19 -14 21 -41z m212 27
c13 -14 17 -69 4 -67 -6 1 -45 3 -86 4 l-76 2 -5 31 c-2 17 -2 35 1 40 6 11
150 2 162 -10z m177 -108 c115 -64 245 -111 329 -121 32 -3 75 -8 95 -11 l35
-5 -22 -47 c-13 -26 -25 -74 -29 -107 -6 -56 -4 -63 26 -108 31 -47 31 -49 13
-66 -17 -17 -29 -17 -114 -9 -119 11 -210 38 -275 80 l-50 33 30 3 c55 6 47
20 -17 27 -54 7 -68 12 -95 42 -18 19 -33 38 -33 43 0 5 25 12 55 15 70 9 71
23 3 27 l-53 3 -3 128 c-1 70 0 127 3 127 2 0 49 -24 102 -54z m-1022 20 c28
-8 68 -22 90 -32 l40 -19 -162 -3 c-90 -1 -163 -6 -163 -11 0 -5 91 -12 203
-16 199 -7 202 -8 220 -32 11 -13 17 -26 15 -28 -2 -2 -117 -5 -256 -7 -184
-2 -252 0 -252 8 0 28 92 113 143 133 63 24 60 24 122 7z m378 4 c2 -3 8 -15
11 -27 11 -34 -17 -42 -132 -36 -88 5 -102 8 -102 23 0 10 -10 25 -22 34 -22
15 -15 16 109 14 72 -2 133 -5 136 -8z m487 -120 l0 -110 -45 0 c-25 0 -45 -4
-45 -9 0 -10 35 -21 70 -21 23 0 22 -3 -20 -39 -43 -37 -49 -39 -132 -46 -86
-6 -124 -25 -51 -25 53 0 33 -12 -80 -49 -133 -43 -210 -50 -268 -23 -24 11
-53 27 -64 36 -19 16 -11 17 135 11 93 -3 161 -1 170 4 13 9 13 10 0 15 -8 2
-98 7 -200 10 l-186 5 -97 46 c-53 26 -97 49 -97 52 0 3 75 2 168 -2 138 -6
172 -11 193 -26 98 -69 218 -75 337 -17 76 37 78 39 92 91 6 20 16 37 23 37 8
0 9 3 1 8 -16 11 -15 82 2 82 8 0 14 5 14 10 0 6 -10 10 -23 10 -13 0 -36 14
-52 30 l-29 30 92 0 92 0 0 -110z m-553 19 c-14 -8 -22 -8 -30 0 -8 8 -3 11
19 11 25 -1 27 -2 11 -11z m1440 -75 c18 -14 33 -29 33 -35 0 -16 -62 -10 -82
8 -29 26 -83 22 -116 -10 -30 -29 -82 -37 -82 -13 0 7 9 25 20 39 21 26 29 28
159 35 23 1 45 -6 68 -24z m-1477 -35 l0 -30 -290 2 c-270 3 -290 4 -290 20 0
10 8 23 18 28 10 6 123 11 290 11 l272 0 0 -31z m1402 -21 c9 -7 19 -22 22
-34 16 -53 -72 -81 -96 -29 -22 48 33 95 74 63z m139 -45 c13 -34 7 -91 -15
-134 -21 -43 -21 -45 14 -57 65 -23 89 -124 44 -185 -42 -57 -149 -94 -238
-83 -68 9 -115 39 -140 89 -17 36 -17 40 -1 83 9 24 25 49 36 54 24 13 24 29
-1 108 -11 35 -20 79 -20 98 0 32 2 34 35 34 26 0 35 -4 35 -17 0 -32 41 -63
82 -63 44 0 88 35 88 69 0 21 12 29 48 30 16 1 26 -7 33 -26z m-1885 -38 c38
-15 73 -31 79 -36 5 -5 -62 -9 -159 -9 -153 0 -167 2 -164 17 2 10 19 28 38
41 44 30 106 26 206 -13z m-331 -225 c-3 -10 -12 -50 -19 -87 -10 -58 -15 -68
-34 -71 -28 -4 -29 -22 -1 -22 18 0 20 -4 14 -27 -4 -16 -7 -29 -8 -30 -1 0
-28 -4 -60 -8 l-58 -7 13 28 c23 53 60 119 101 182 41 61 64 80 52 42z m-99
-270 l45 0 -3 -47 -3 -48 -72 -3 c-40 -2 -73 1 -73 6 0 5 7 30 16 56 12 34 20
46 31 42 8 -3 35 -6 59 -6z m2242 -16 c31 -21 29 -54 -2 -54 -42 0 -56 11 -56
41 0 34 22 39 58 13z m-8 -99 c42 -22 43 -65 2 -65 -36 0 -52 16 -52 52 0 32
9 34 50 13z m-2246 -11 c43 -6 47 -9 44 -33 -3 -25 -5 -26 -87 -29 -83 -3 -84
-3 -77 20 3 13 6 29 6 36 0 13 41 16 114 6z m2266 -99 c5 -3 10 -17 10 -31 0
-18 -5 -24 -23 -24 -44 0 -85 49 -61 72 6 6 55 -5 74 -17z m-2222 0 c2 -2 1
-17 -3 -34 l-6 -30 -91 -3 c-49 -2 -92 0 -94 3 -2 3 1 22 6 41 l10 34 87 -4
c49 -2 90 -6 91 -7z m2206 -85 c19 -7 26 -17 26 -35 0 -22 -4 -25 -34 -25 -39
0 -57 17 -49 48 6 24 19 27 57 12z m-2214 -36 c0 -24 -1 -24 -99 -24 -55 0
-102 3 -104 8 -3 4 -1 16 3 27 7 18 15 20 104 17 94 -3 96 -4 96 -28z"/>
<path d="M1615 4520 c-10 -16 29 -19 320 -24 154 -3 336 -12 405 -20 141 -18
234 -20 226 -7 -7 11 -120 27 -326 46 -186 17 -615 20 -625 5z"/>
<path d="M2490 4044 c-106 -14 -155 -32 -137 -50 3 -4 86 1 184 11 123 12 209
16 285 11 108 -7 148 0 148 27 0 19 -336 19 -480 1z"/>
<path d="M3375 4040 c-22 -5 -61 -9 -87 -9 -34 -1 -48 -5 -48 -15 0 -19 52
-38 84 -30 15 3 107 12 204 18 146 9 177 14 177 26 0 13 -23 15 -145 16 -80 1
-163 -2 -185 -6z"/>
<path d="M3390 3911 c-132 -30 -200 -101 -185 -197 14 -93 113 -164 229 -164
75 0 99 8 172 56 66 44 93 87 100 156 6 63 -17 107 -67 133 -36 19 -193 29
-249 16z m239 -56 c32 -16 41 -33 41 -78 0 -52 -41 -107 -111 -150 -61 -37
-67 -39 -134 -34 -73 4 -135 28 -169 66 -22 25 -32 100 -17 129 15 28 88 70
142 82 60 13 213 4 248 -15z"/>
<path d="M3433 3813 c-7 -3 -13 -15 -13 -28 0 -13 6 -25 13 -28 17 -6 47 11
47 28 0 17 -30 34 -47 28z"/>
<path d="M2525 3899 c-184 -39 -197 -43 -221 -68 -24 -24 -26 -31 -20 -81 8
-68 24 -93 83 -130 70 -45 139 -65 223 -65 92 0 163 23 218 70 81 70 120 206
70 239 -61 40 -247 58 -353 35z m280 -53 c38 -11 40 -14 43 -56 5 -86 -74
-167 -187 -191 -97 -21 -250 19 -304 79 -22 24 -38 88 -31 118 12 46 369 83
479 50z"/>
<path d="M2653 3803 c-17 -6 -16 -38 2 -53 19 -15 55 -3 55 19 0 31 -26 47
-57 34z"/>
<path d="M3103 3714 c-11 -30 7 -298 26 -385 11 -47 31 -113 45 -145 22 -53
23 -61 10 -81 -18 -28 -18 -43 1 -43 19 0 55 39 55 61 0 9 -11 42 -25 73 -39
87 -66 227 -71 366 -3 69 -7 135 -10 148 -5 26 -22 29 -31 6z"/>
<path d="M3077 3124 c-9 -10 2 -24 19 -24 8 0 14 7 14 15 0 15 -21 21 -33 9z"/>
<path d="M3060 2744 c-57 -10 -70 -15 -70 -28 0 -23 113 -35 189 -20 25 5 31
11 29 28 -3 19 -10 21 -63 22 -33 1 -71 0 -85 -2z"/>
<path d="M2169 2170 c-6 -4 -7 -10 -3 -13 19 -10 432 -19 438 -9 4 7 -14 13
-46 16 -87 9 -377 13 -389 6z"/>
<path d="M2458 2073 c-81 -2 -138 -8 -138 -13 0 -11 339 -14 378 -4 43 12 21
24 -40 22 -35 -1 -125 -4 -200 -5z"/>
<path d="M2992 658 c-18 -18 -14 -36 13 -54 31 -20 65 -10 65 20 0 28 -18 46
-45 46 -12 0 -26 -5 -33 -12z"/>
<path d="M4277 703 c-2 -4 -8 -30 -12 -57 -3 -27 -20 -91 -35 -142 -41 -132
-60 -239 -67 -381 l-6 -123 26 0 27 0 0 88 0 89 56 83 c30 46 66 105 80 131
24 48 33 119 15 119 -6 0 -28 -35 -51 -79 -22 -43 -48 -87 -56 -97 -14 -18
-15 -16 -9 21 4 22 20 88 36 147 31 108 36 198 12 205 -6 2 -13 0 -16 -4z"/>
<path d="M1738 650 c-8 -12 -24 -20 -40 -20 -16 0 -28 -4 -28 -10 0 -5 15 -10
34 -10 28 0 35 -4 40 -27 4 -16 10 -142 13 -280 6 -251 5 -253 -15 -253 -12 0
-24 -4 -27 -10 -3 -5 3 -10 14 -10 12 0 21 -7 21 -15 0 -10 11 -15 35 -15 24
0 35 5 35 15 0 18 17 20 23 3 3 -10 9 -10 30 1 21 11 59 12 190 7 160 -7 277
-1 277 14 0 4 -97 9 -216 12 -118 3 -218 8 -221 12 -3 3 0 19 7 36 l12 30 221
0 c135 0 217 4 212 9 -6 5 -101 13 -212 17 -112 4 -203 9 -203 11 0 2 6 19 14
37 l14 33 177 6 c249 10 266 29 23 25 -188 -3 -188 -3 -188 19 0 42 -39 40
-58 -3 -12 -25 -52 -34 -52 -11 0 7 7 34 15 59 l16 45 167 12 c92 6 182 11
200 11 18 0 32 5 32 12 0 8 -49 10 -190 5 -122 -4 -190 -2 -190 4 0 5 6 25 14
43 l14 33 207 5 c130 4 211 10 218 17 8 8 -47 11 -201 11 l-211 0 6 31 c5 27
3 31 -13 27 -10 -2 -25 -16 -32 -31 -12 -25 -18 -27 -68 -27 -49 0 -54 2 -54
23 0 12 -3 32 -6 45 l-6 22 263 0 c280 0 409 7 387 21 -7 5 -156 9 -331 9
-198 0 -326 4 -337 10 -16 8 -22 6 -32 -10z m152 -157 c0 -4 -8 -27 -17 -50
-14 -33 -23 -43 -40 -43 -21 0 -23 5 -23 50 l0 50 40 0 c22 0 40 -3 40 -7z
m-51 -135 c-1 -16 -17 -55 -19 -48 -10 26 -7 60 6 60 8 0 14 -6 13 -12z m56
-160 c-10 -44 -13 -48 -36 -48 -18 0 -20 4 -14 33 10 43 13 47 36 47 18 0 20
-4 14 -32z m-31 -105 c-13 -56 -34 -60 -34 -8 0 28 4 35 20 35 17 0 19 -4 14
-27z"/>
</g>
</svg>
