<?xml version="1.0" standalone="no"?>
<!DOCTYPE svg PUBLIC "-//W3C//DTD SVG 20010904//EN"
 "http://www.w3.org/TR/2001/REC-SVG-20010904/DTD/svg10.dtd">
<svg version="1.0" xmlns="http://www.w3.org/2000/svg"
 width="236.000000pt" height="357.000000pt" viewBox="0 0 236.000000 357.000000"
 preserveAspectRatio="xMidYMid meet">

<g transform="translate(0.000000,357.000000) scale(0.100000,-0.100000)"
fill="#000000" stroke="none">
<path d="M0 2169 c0 -1117 3 -1399 13 -1393 9 6 9 5 1 -7 -7 -8 -12 -27 -12
-43 0 -28 1 -29 14 -11 17 23 18 39 2 29 -7 -5 -8 -3 -4 5 5 7 11 10 14 7 3
-4 16 3 28 15 16 15 24 17 29 8 6 -8 4 -10 -5 -4 -9 6 -12 4 -8 -6 3 -8 0 -26
-8 -40 -7 -13 -13 -20 -14 -16 0 5 5 17 10 28 6 10 7 19 2 19 -12 0 -55 -91
-58 -123 -3 -40 17 -18 22 24 2 18 9 38 14 43 13 13 13 0 0 -25 -6 -10 -9 -19
-6 -19 2 0 25 36 51 79 25 44 53 85 63 93 15 12 4 -9 -61 -119 -10 -18 -17
-33 -14 -33 3 0 29 38 57 85 49 78 80 118 80 100 0 -4 7 -2 15 5 8 7 15 9 15
4 0 -4 7 1 15 12 26 35 17 -8 -10 -49 -14 -20 -23 -42 -20 -47 3 -5 0 -28 -7
-50 -12 -39 -20 -45 -90 -81 -43 -21 -80 -39 -83 -39 -3 0 2 12 11 28 l16 27
-20 -25 c-11 -14 -19 -26 -17 -29 2 -2 -6 -12 -18 -22 -12 -10 -17 -18 -10
-19 6 0 14 4 18 9 4 7 160 91 169 91 1 0 1 -33 0 -72 -1 -40 0 -57 2 -38 15
125 10 116 67 139 29 11 64 23 80 27 26 6 38 24 16 24 -6 0 1 21 16 46 15 26
22 44 16 40 -6 -4 -11 -1 -11 6 0 9 -3 9 -10 -2 -7 -11 -10 -11 -10 -2 0 8 -5
10 -12 6 -7 -4 -2 9 10 30 13 21 21 40 19 43 -3 2 -13 -11 -24 -30 -11 -19
-28 -47 -38 -63 l-17 -29 22 25 c16 18 20 20 16 7 -4 -12 -2 -16 6 -11 8 5 9
2 5 -10 -5 -11 -3 -15 5 -10 8 5 9 2 4 -12 -5 -10 -9 -24 -9 -30 0 -12 -127
-66 -127 -55 1 40 69 189 97 213 29 23 21 -1 -22 -70 -25 -40 -43 -72 -40 -72
3 0 31 39 62 87 33 52 58 82 61 74 3 -10 10 -8 24 10 19 23 19 23 8 1 -6 -12
-8 -27 -5 -32 4 -6 1 -9 -6 -8 -6 2 -13 -2 -16 -9 -2 -6 3 -10 13 -9 18 3 38
32 30 44 -3 5 2 9 10 9 10 0 13 -6 8 -16 -18 -44 -76 -222 -85 -261 -12 -49
-13 -175 -3 -256 6 -50 5 -52 -22 -63 l-29 -11 33 6 c26 5 32 2 32 -13 0 -31
72 -317 82 -328 7 -7 8 -3 4 10 -21 74 -68 300 -82 396 -15 109 -14 231 3 275
6 17 8 17 14 -6 6 -22 7 -20 7 10 -2 68 46 224 83 269 26 31 30 25 18 -29 -5
-24 -8 -53 -7 -64 2 -12 9 14 16 57 13 71 15 77 38 77 13 0 25 -4 25 -10 1 -5
2 -16 3 -22 1 -7 8 -12 15 -10 10 2 12 -12 8 -68 -5 -64 -3 -70 14 -70 11 0
20 -7 20 -17 4 -52 4 -93 2 -93 -2 0 -8 10 -12 23 -8 19 -9 18 -9 -11 1 -18
-2 -35 -5 -39 -4 -3 -7 7 -8 23 0 16 -2 39 -5 52 -4 23 11 31 19 10 3 -7 6 -1
6 15 1 21 -4 27 -19 27 -20 0 -20 -4 -15 -92 5 -87 14 -129 16 -77 1 13 5 2
10 -26 4 -27 23 -91 42 -141 l34 -91 -41 23 c-23 13 -50 23 -61 23 -15 -1 -14
-3 7 -9 54 -16 116 -70 154 -132 20 -35 44 -70 51 -80 13 -15 11 -15 -24 -7
-21 5 -47 8 -58 8 -11 0 6 -7 38 -15 53 -13 65 -21 140 -99 59 -61 76 -84 60
-80 -57 14 -112 15 -158 1 l-50 -14 129 -1 129 -1 -71 70 c-40 39 -72 77 -72
85 0 8 -4 15 -9 15 -11 0 -71 91 -115 174 -34 63 -35 68 -30 153 2 48 7 150
10 226 3 77 10 135 14 130 11 -12 40 -183 40 -238 0 -32 4 -44 11 -39 13 8 8
67 -19 221 -10 56 -14 99 -10 97 4 -3 8 -9 8 -14 0 -11 58 -107 86 -143 12
-15 27 -27 34 -27 6 0 21 -10 32 -23 l20 -22 -16 27 c-24 40 -20 42 14 8 28
-28 87 -130 75 -130 -2 0 -16 23 -31 51 -28 56 -44 62 -20 8 34 -78 67 -171
62 -176 -3 -3 6 -28 21 -55 14 -26 28 -47 30 -45 2 2 -8 25 -23 50 -14 26 -24
47 -21 47 10 0 50 -76 53 -100 1 -14 5 -36 9 -50 4 -14 -10 5 -31 42 -21 37
-40 66 -42 64 -5 -6 69 -146 77 -146 4 0 22 -32 39 -71 29 -65 34 -70 49 -58
15 12 16 12 10 -4 -5 -12 -3 -16 5 -11 8 5 9 1 4 -12 -4 -10 -4 -15 0 -11 4 4
13 -1 20 -11 8 -9 4 7 -8 36 -21 53 -22 53 -35 30 l-14 -23 6 25 c5 20 4 22
-5 10 -9 -12 -10 -10 -5 10 5 19 4 22 -4 10 -13 -19 -14 0 -1 20 8 12 10 12
10 1 0 -8 2 -12 5 -9 3 3 -3 38 -14 77 -11 39 -16 71 -10 71 5 0 9 -12 10 -27
l1 -28 7 25 c7 25 7 25 19 4 8 -16 8 -29 0 -52 -10 -27 -8 -38 27 -106 22 -41
41 -74 43 -72 2 2 -5 21 -16 43 -10 21 -22 51 -26 68 -4 16 -11 32 -16 35 -5
3 -6 11 -1 18 4 8 16 -9 31 -45 12 -32 27 -62 32 -68 6 -5 3 7 -6 29 -18 44
-20 60 -6 51 6 -3 7 1 4 9 -4 11 0 16 10 16 9 0 16 8 16 20 0 11 4 20 8 20 9
0 7 78 -2 87 -3 4 -6 -7 -6 -24 0 -17 -3 -45 -6 -63 -8 -39 -24 -21 -24 28 0
17 -4 32 -10 32 -5 0 -10 11 -10 24 0 16 -7 27 -19 31 -11 3 -23 15 -26 26 -4
10 -10 19 -15 19 -5 0 -11 14 -15 30 -4 17 -11 28 -16 24 -5 -3 -9 -2 -9 3 -1
4 -7 34 -14 65 -10 42 -11 57 -3 55 7 -1 15 -6 19 -12 5 -6 8 -5 8 3 0 10 5
10 22 1 17 -9 20 -9 15 3 -6 18 27 18 45 0 7 -7 17 -12 22 -12 6 0 0 7 -12 16
-37 26 -24 37 16 13 35 -21 34 -19 -13 25 l-50 47 53 -37 c28 -20 52 -32 51
-27 -1 14 -117 103 -121 92 -2 -6 -12 -1 -23 12 l-20 22 21 -11 c12 -6 24 -9
27 -5 4 3 27 -13 52 -36 26 -24 52 -40 60 -37 8 3 19 -3 24 -12 14 -23 14 -7
1 21 -10 22 -10 22 6 0 19 -26 39 -31 30 -7 -4 9 -2 13 5 8 8 -4 9 1 5 17 -5
19 -3 18 10 -6 11 -18 18 -53 18 -89 1 -36 6 -61 13 -63 14 -5 49 44 39 54 -4
4 -9 -3 -13 -15 -10 -41 -28 -17 -29 39 0 34 -9 72 -23 102 -12 27 -20 51 -17
54 3 3 9 -3 12 -13 19 -54 35 -87 39 -82 3 3 -1 20 -9 39 -24 58 -28 79 -17
79 6 0 11 -8 11 -17 1 -20 38 -104 39 -88 1 6 -8 33 -19 62 -11 29 -16 55 -11
58 5 3 17 -19 25 -49 9 -30 21 -58 28 -62 8 -5 9 -2 4 12 -15 35 -35 118 -31
122 3 3 7 -1 9 -9 2 -8 12 -39 22 -69 15 -48 18 -52 25 -31 6 13 5 30 -2 42
-6 11 -8 25 -5 32 3 9 5 9 5 0 2 -23 21 -14 21 9 0 21 0 21 14 2 16 -22 13
-28 45 76 12 36 19 52 16 35 -3 -16 -7 -46 -10 -65 -4 -30 -3 -31 4 -10 8 22
9 20 9 -15 0 -51 10 -158 24 -255 6 -41 14 -131 18 -200 l7 -125 1 107 c1 59
-3 142 -9 185 -6 42 -11 138 -11 213 -1 117 2 160 15 275 2 20 87 129 94 121
2 -2 -6 -24 -17 -50 -19 -45 -28 -104 -12 -80 4 6 15 10 25 8 12 -2 17 5 18
24 0 15 9 45 19 67 l19 40 -5 -35 c-3 -19 -10 -48 -15 -64 -17 -56 -1 -37 22
23 12 34 24 60 26 58 2 -3 -6 -30 -18 -61 -11 -32 -19 -60 -16 -62 2 -3 15 25
28 61 16 47 25 61 29 49 6 -15 8 -13 14 10 4 16 9 26 12 24 2 -3 -9 -47 -26
-97 -38 -117 -38 -143 0 -36 35 98 39 75 6 -30 -13 -41 -20 -72 -15 -69 5 3
19 37 31 77 12 39 23 66 25 60 4 -11 -14 -84 -34 -140 -4 -13 -3 -15 5 -8 6 6
17 33 25 60 9 28 16 41 16 29 1 -11 -6 -43 -14 -69 -8 -27 -12 -51 -10 -53 5
-5 11 9 30 70 8 24 14 36 14 28 1 -8 -6 -37 -14 -63 -9 -30 -10 -45 -3 -41 7
5 9 -5 3 -32 -9 -49 1 -40 19 17 25 78 17 14 -9 -75 -14 -47 -53 -141 -87
-209 l-62 -122 -12 55 c-19 82 -23 188 -8 208 8 10 13 42 12 82 l-1 65 -6 -65
c-5 -51 -10 -66 -23 -68 -15 -3 -18 4 -18 49 0 65 -9 60 -12 -6 -1 -33 3 -51
14 -59 11 -8 13 -18 7 -34 -19 -51 -13 -136 14 -192 l26 -54 -61 -120 c-34
-67 -81 -143 -105 -171 -24 -27 -43 -56 -43 -63 0 -7 -11 -29 -25 -49 -13 -20
-22 -39 -20 -42 3 -2 6 -2 8 0 29 41 57 92 57 102 0 14 57 73 64 66 2 -2 8
-21 14 -41 9 -32 7 -41 -11 -65 l-21 -27 -7 25 c-7 22 -7 22 -8 -6 -1 -17 -7
-37 -13 -44 -11 -11 -10 -12 2 -5 8 4 26 21 39 37 l24 29 20 -36 21 -36 146 0
147 0 0 33 c0 17 -2 26 -5 19 -3 -9 -99 65 -152 118 -3 3 -12 6 -20 7 -39 6
-136 36 -145 45 -7 8 -6 8 4 3 9 -5 12 -4 8 2 -4 6 11 48 32 94 35 77 43 86
85 106 26 13 57 23 70 23 31 0 82 -26 103 -54 42 -53 103 -118 103 -110 0 16
-121 144 -151 159 -36 19 -76 19 -113 0 -16 -9 -31 -14 -33 -11 -2 2 20 53 50
113 53 104 57 110 106 133 28 13 49 25 47 27 -2 3 -22 -5 -45 -17 -23 -11 -41
-19 -41 -16 0 2 7 21 16 42 9 22 18 48 19 59 8 66 30 111 74 156 27 27 55 49
62 49 8 0 29 -9 48 -21 31 -19 44 -32 88 -88 8 -11 12 -12 13 -3 0 6 -23 35
-50 64 -36 38 -49 58 -45 72 5 21 5 21 -6 0 -8 -15 -18 -19 -38 -16 -22 3 -35
-5 -69 -42 -23 -25 -42 -43 -42 -40 0 3 7 35 15 72 8 37 16 84 18 105 3 20 11
45 18 55 16 21 52 51 61 52 7 0 25 -78 32 -135 2 -20 4 -15 5 15 0 25 -3 60
-9 79 -12 43 -2 61 17 30 8 -13 12 -16 9 -6 -3 9 0 17 5 17 7 0 9 -11 6 -25
-2 -14 -2 -23 2 -19 3 3 11 -16 18 -43 7 -30 11 -39 12 -23 1 14 -3 41 -9 59
-6 22 -6 31 0 25 5 -5 16 -45 25 -89 15 -78 15 -79 11 -20 -4 50 -3 55 5 30
19 -54 20 -253 3 -313 -9 -29 -14 -56 -11 -58 3 -3 8 10 12 28 4 18 13 41 19
50 11 15 14 13 31 -20 11 -20 24 -40 29 -43 8 -6 5 -52 -8 -124 l-6 -30 15 25
c8 14 14 41 15 59 0 24 3 32 10 25 7 -7 0 -59 -19 -160 -28 -141 -51 -287 -67
-416 -3 -32 -9 -56 -13 -53 -4 2 -5 -10 -2 -28 l5 -32 8 40 c5 22 11 50 14 62
4 19 10 21 75 22 40 0 74 3 77 6 3 3 -15 5 -41 5 -42 0 -46 2 -50 28 l-4 27
-2 -27 c-1 -23 -6 -28 -26 -28 -16 0 -25 6 -25 16 0 19 38 267 44 286 2 7 7
25 10 39 5 25 8 26 51 19 25 -4 45 -3 45 2 0 4 -18 8 -39 8 -22 0 -42 3 -44 8
-5 7 10 104 20 132 9 24 3 89 -13 132 -8 22 -14 42 -14 44 0 4 32 -2 73 -13 9
-2 17 0 17 6 0 5 -20 13 -45 17 -25 3 -47 10 -50 14 -3 5 -16 49 -29 99 l-23
90 21 -4 c12 -2 24 -4 29 -4 4 -1 7 -9 8 -18 0 -15 2 -15 8 2 7 17 10 14 20
-18 7 -21 15 -36 17 -34 3 2 0 16 -5 31 -14 34 -6 33 14 -1 13 -23 15 -24 10
-5 -4 12 -4 22 0 22 3 0 10 -10 14 -22 6 -14 10 517 10 1285 l1 1307 -377 0
-378 -1 60 -32 c75 -40 142 -108 210 -212 76 -115 100 -168 136 -296 32 -112
33 -118 34 -344 3 -310 -13 -579 -39 -652 -13 -36 -13 -42 0 -47 16 -6 18 -44
3 -66 -8 -12 -10 -9 -6 12 2 15 0 25 -4 22 -5 -3 -9 -11 -9 -17 0 -7 -16 -81
-36 -166 -24 -100 -39 -149 -45 -140 -12 20 -11 31 3 23 7 -4 8 -3 4 4 -11 18
-39 15 -33 -2 4 -10 1 -13 -9 -9 -17 6 -18 -8 -1 -26 9 -11 9 -12 0 -7 -7 4
-18 16 -24 28 -8 16 -8 19 1 13 9 -5 10 -1 5 16 -5 19 -4 21 5 9 9 -13 12 -12
25 4 19 25 20 42 1 27 -10 -9 -19 -6 -37 10 l-24 21 30 -18 30 -18 -16 25 c-9
13 -23 24 -30 25 -8 0 -25 2 -38 2 -18 2 -21 5 -12 15 6 8 8 17 4 20 -19 19
20 3 56 -24 35 -25 40 -26 31 -9 -16 30 -76 66 -155 93 -99 34 -185 71 -185
79 0 4 19 1 42 -8 51 -18 60 -12 16 9 -18 9 -26 17 -18 17 9 0 21 -5 27 -11
12 -12 153 27 153 43 0 5 14 2 30 -7 31 -16 42 -32 15 -21 -21 8 -19 -1 3 -13
29 -15 24 17 -5 36 l-23 15 25 26 c14 13 25 29 25 35 0 6 11 22 25 37 35 37
24 62 -54 120 -68 51 -112 70 -168 70 -17 0 -34 4 -38 10 -10 16 75 33 195 39
l115 7 -95 7 c-101 9 -188 5 -309 -13 -41 -6 -76 -8 -79 -5 -3 3 1 5 8 5 7 0
10 3 7 7 -4 3 2 13 13 20 11 8 18 19 14 24 -3 6 12 8 38 5 41 -5 40 -5 -9 7
-67 16 -72 22 -15 20 l47 -2 -50 11 c-36 8 -50 8 -53 -1 -2 -6 -11 -11 -20
-12 -9 0 -1 -7 18 -14 l35 -14 -40 6 c-22 3 -51 10 -65 14 -25 7 -24 7 5 9 27
2 26 3 -15 15 l-45 13 40 2 40 2 -30 9 c-16 5 -47 7 -67 3 -26 -4 -38 -2 -38
6 0 6 5 8 10 5 6 -4 16 -3 23 3 8 5 38 4 82 -4 133 -24 150 -24 50 2 -56 14
-113 23 -130 20 -26 -5 -27 -4 -11 5 18 11 77 9 186 -6 25 -4 20 -1 -15 9 -27
8 -71 18 -97 21 -27 4 -48 11 -48 16 0 14 31 11 125 -11 47 -11 93 -20 103
-19 9 0 -12 7 -48 15 -36 9 -72 18 -80 21 -18 8 -27 10 -40 12 -16 2 -12 21 5
21 8 0 15 5 15 10 0 6 -19 11 -42 12 -36 1 -38 2 -11 5 17 2 70 -5 118 -16 48
-12 94 -21 103 -20 15 0 -93 32 -158 45 -14 3 -32 8 -40 11 -8 4 -19 5 -23 4
-5 -1 -6 3 -2 8 3 6 15 7 28 2 12 -4 42 -11 67 -14 l45 -7 -30 15 -30 15 50
-4 c34 -3 43 -2 30 4 -11 5 -32 9 -47 9 -16 1 -28 5 -28 10 0 5 -12 11 -27 14
-16 3 -44 10 -63 15 -56 16 -1 13 65 -3 77 -18 105 -18 40 1 -133 39 -195 60
-195 66 0 7 17 4 55 -12 38 -16 215 -54 221 -48 2 3 -21 10 -51 17 -58 13 -64
20 -39 45 14 15 14 16 -5 16 -12 0 -20 -3 -20 -7 3 -19 -2 -33 -12 -33 -7 0
-9 10 -7 25 4 20 0 25 -26 30 -17 4 -49 15 -71 24 -97 42 -191 66 -115 29 44
-22 12 -32 -36 -12 -20 8 -38 13 -41 10 -2 -2 5 -7 17 -11 38 -12 90 -47 85
-56 -4 -5 -13 -5 -23 1 -32 17 -234 91 -238 87 -2 -2 40 -20 94 -41 54 -20
116 -48 138 -62 37 -24 38 -25 10 -21 -16 3 -42 0 -58 -5 -23 -8 -39 -6 -78
10 -48 20 -49 20 -52 1 -4 -27 -23 -24 -23 3 0 12 -6 23 -12 25 -7 3 -9 -4 -6
-18 5 -19 3 -21 -28 -15 l-34 7 40 -19 c22 -10 58 -25 80 -32 44 -14 62 -26
53 -36 -4 -3 -50 10 -104 30 -53 20 -102 35 -108 32 -7 -3 -6 -5 2 -5 8 -1 60
-19 118 -42 69 -27 104 -46 104 -56 0 -8 -6 -13 -12 -10 -120 49 -170 68 -173
65 -2 -2 39 -21 91 -42 107 -44 130 -70 27 -30 -105 40 -205 74 -217 73 -6 0
21 -11 59 -24 82 -29 155 -66 155 -79 0 -6 -5 -5 -12 2 -7 7 -20 12 -29 12
-10 0 -30 6 -46 14 -30 16 -179 61 -228 71 -16 3 6 -6 50 -21 105 -33 218 -76
230 -86 5 -5 -13 -1 -40 7 -82 25 -104 27 -45 4 30 -12 59 -25 65 -30 5 -5 19
-9 32 -9 13 0 23 -4 23 -10 0 -5 11 -10 24 -10 13 0 29 -7 36 -15 17 -20 7
-19 -42 5 -23 11 -50 20 -60 20 -10 0 -18 5 -18 10 0 6 -8 10 -18 10 -10 0
-58 14 -107 30 -49 17 -85 26 -80 21 6 -5 48 -21 94 -36 46 -15 95 -34 110
-42 l26 -15 -30 5 c-16 3 -41 8 -55 11 -14 4 -6 -1 16 -11 47 -21 76 -42 69
-52 -2 -4 12 -13 31 -20 20 -7 34 -15 31 -17 -2 -2 -41 10 -87 26 -45 17 -87
29 -93 27 -6 -2 28 -16 74 -31 88 -30 123 -45 117 -51 -2 -2 -35 7 -73 21
-115 41 -197 66 -202 61 -2 -3 9 -8 26 -12 17 -4 33 -11 36 -16 4 -5 14 -9 24
-9 29 0 218 -74 199 -78 -9 -2 -45 8 -80 21 -90 36 -229 80 -233 75 -3 -2 34
-16 80 -32 46 -15 87 -31 90 -37 4 -5 -4 -5 -19 1 -15 5 -26 6 -26 0 0 -5 9
-11 20 -15 11 -3 29 -20 42 -37 l22 -31 -30 8 c-16 4 -57 9 -90 10 -34 2 -137
6 -229 10 -121 5 -166 4 -161 -4 4 -6 30 -11 59 -11 51 0 200 -17 247 -28 16
-4 1 -8 -46 -12 -49 -4 -89 -15 -130 -35 -32 -16 -63 -28 -69 -26 -5 1 -7 -1
-3 -5 4 -4 3 -13 -3 -21 -6 -7 -9 -22 -6 -34 4 -15 2 -19 -9 -15 -8 3 -14 2
-14 -1 0 -12 53 -63 65 -63 13 0 78 -61 71 -67 -6 -7 -46 16 -43 25 1 4 -1 8
-6 10 -20 6 -7 -16 21 -35 18 -12 28 -24 23 -27 -5 -4 -12 -2 -16 4 -8 13 -56
13 -75 -1 -11 -8 -6 -9 23 -7 20 2 37 0 37 -5 0 -5 16 -6 36 -2 27 5 34 3 28
-6 -4 -8 -3 -10 4 -5 6 4 20 2 30 -3 14 -7 29 -7 52 2 26 9 34 9 37 0 2 -7 11
-9 20 -6 11 4 14 2 9 -5 -4 -7 -15 -12 -24 -13 -17 0 13 -10 131 -44 32 -9 57
-19 55 -21 -2 -2 -44 8 -92 21 -124 34 -367 83 -355 71 3 -3 41 -12 85 -21
107 -20 215 -47 211 -52 -3 -2 -24 1 -48 6 -54 13 -82 13 -54 1 30 -13 9 -12
-85 5 -109 19 -108 19 -103 -9 4 -17 0 -25 -14 -29 -13 -3 -11 -5 8 -6 23 -1
26 2 21 25 -3 19 -1 25 8 22 8 -2 15 -24 17 -51 3 -37 0 -47 -12 -47 -8 0 -15
5 -15 10 0 6 5 10 12 10 6 0 8 3 5 6 -3 4 -28 8 -54 10 l-48 3 35 -12 c19 -7
35 -19 35 -27 0 -11 14 -16 60 -18 33 -1 72 -6 87 -11 16 -6 30 -6 33 -1 3 5
-11 12 -32 15 -79 12 -101 25 -33 18 35 -3 71 -10 80 -15 12 -8 35 -2 86 20
42 19 63 33 54 36 -8 3 -40 12 -70 21 -43 11 -46 13 -15 9 22 -3 57 -12 77
-19 75 -25 268 1 237 32 -7 7 -7 13 -1 17 6 3 13 2 17 -4 3 -5 12 -10 18 -10
7 0 6 4 -3 10 -13 8 -12 10 3 10 9 0 17 5 17 10 0 6 7 10 16 10 11 0 15 6 12
18 -3 11 0 19 7 19 7 0 10 -8 8 -18 -3 -9 1 -20 8 -24 7 -5 10 -4 7 1 -3 5 -2
18 3 29 7 19 8 19 8 -2 1 -12 5 -25 11 -28 6 -3 7 1 4 9 -3 9 -2 16 4 16 6 0
17 -19 26 -42 9 -25 15 -33 13 -19 -1 13 4 26 11 28 8 3 10 -1 5 -13 -4 -11
-3 -15 4 -11 6 4 14 0 17 -9 3 -8 10 -12 16 -9 6 4 7 12 3 18 -5 8 -2 8 9 0 8
-7 18 -10 22 -6 4 4 9 -2 12 -14 4 -15 17 -23 42 -28 20 -4 41 -10 47 -13 11
-7 20 -8 140 -17 50 -4 87 -4 83 0 -4 4 -29 9 -54 12 -26 2 -54 9 -63 16 -12
9 -13 9 -7 0 4 -7 4 -13 -1 -13 -12 1 -48 30 -37 30 5 0 -6 8 -24 17 -18 8
-31 17 -29 19 2 2 18 -3 35 -12 32 -15 58 -11 46 7 -3 5 -15 7 -27 4 -12 -2
-16 -2 -9 1 8 4 -2 13 -25 25 -40 20 -68 26 -43 8 16 -12 17 -12 -55 14 -16 6
-39 16 -51 24 -11 7 -24 11 -27 8 -4 -3 -5 -2 -2 2 3 3 0 12 -6 19 -8 10 -4
12 19 9 39 -5 39 24 0 32 -15 3 -28 9 -28 13 0 10 31 22 38 15 3 -3 -1 -5 -9
-5 -8 -1 2 -9 21 -20 19 -11 28 -20 20 -20 -9 0 -6 -6 10 -16 l25 -15 -25 6
c-24 6 -24 5 3 -10 15 -9 25 -20 22 -25 -6 -10 8 -14 34 -10 8 1 26 -4 39 -12
19 -10 26 -10 29 -1 3 8 31 0 86 -24 45 -19 88 -36 95 -36 9 0 9 -4 2 -11 -20
-20 -10 -36 23 -37 32 0 32 0 7 -12 l-25 -11 33 -4 c17 -2 32 -7 32 -12 0 -4
12 -11 28 -15 36 -9 74 -34 67 -45 -3 -5 0 -12 6 -16 8 -4 7 -9 -2 -15 -10 -6
-8 -9 8 -9 12 0 25 -5 29 -12 5 -7 2 -9 -9 -5 -10 4 -2 -15 21 -53 25 -40 39
-55 45 -47 6 8 7 5 3 -6 -3 -10 -6 -23 -6 -28 0 -6 -4 -8 -9 -5 -4 3 -6 -6 -3
-19 2 -14 0 -25 -6 -25 -6 0 -14 -16 -18 -35 -7 -40 -11 -42 -31 -18 -13 16
-13 16 -4 -4 6 -12 11 -30 11 -40 0 -14 -5 -12 -26 12 l-26 30 22 -33 22 -33
-43 -72 c-55 -92 -85 -132 -181 -238 -51 -56 -76 -92 -74 -105 2 -10 1 -13 -1
-5 -3 8 -26 -9 -66 -49 -129 -133 -310 -163 -447 -73 -130 86 -270 204 -270
229 0 8 -7 14 -15 14 -8 0 -15 7 -15 16 0 8 -5 12 -10 9 -6 -4 -13 8 -17 25
-3 19 -9 27 -13 20 -5 -9 -9 -9 -14 -1 -4 6 -4 16 0 23 4 7 3 8 -5 4 -14 -9
-41 17 -41 38 0 9 -6 15 -13 14 -7 -2 -11 6 -9 22 2 20 1 22 -8 10 -9 -12 -10
-7 -6 20 6 30 5 32 -6 17 -12 -16 -15 -15 -32 13 -10 17 -15 37 -12 45 3 8 2
14 -2 12 -4 -1 -8 2 -9 7 -1 5 -6 12 -11 15 -5 3 -21 35 -35 71 -23 57 -25 66
-12 80 13 15 13 17 0 17 -8 0 -12 -4 -9 -9 3 -4 1 -8 -4 -8 -9 0 -29 64 -69
227 -12 49 -23 73 -35 76 -14 4 -17 18 -15 93 0 49 -4 112 -10 139 -6 28 -17
86 -23 130 -7 44 -21 125 -32 180 -17 85 -20 123 -15 255 9 220 55 400 148
581 85 164 239 306 379 350 14 4 -154 8 -372 8 l-398 1 0 -1401z m1263 624
c-7 -2 -19 -2 -25 0 -7 3 -2 5 12 5 14 0 19 -2 13 -5z m85 -35 c4 -20 -32 -26
-43 -8 -3 6 -16 10 -28 10 -12 0 -29 5 -37 10 -11 7 2 10 45 8 48 -2 60 -7 63
-20z m-317 -38 c24 -11 36 -20 27 -20 -10 0 -18 -4 -18 -9 0 -5 -13 -4 -30 2
-18 7 -30 19 -30 29 0 22 -1 22 51 -2z m148 -16 c2 -2 -12 -4 -33 -4 -22 0
-35 4 -31 10 5 9 52 4 64 -6z m-32 -30 c-3 -3 -12 -4 -19 -1 -8 3 -5 6 6 6 11
1 17 -2 13 -5z m198 -13 c38 -10 37 -10 -19 -6 -32 2 -64 9 -70 16 -12 12 10
10 89 -10z m-85 -11 c16 0 32 -5 36 -11 4 -8 -4 -9 -27 -4 -42 9 -49 13 -48
28 0 9 2 9 6 0 2 -7 18 -13 33 -13z m-170 -6 c0 -2 -7 -4 -15 -4 -8 0 -15 4
-15 10 0 5 7 7 15 4 8 -4 15 -8 15 -10z m80 1 c0 -19 -21 -19 -46 0 -18 14
-17 14 14 15 22 0 32 -5 32 -15z m-40 -15 c12 -8 11 -10 -7 -10 -13 0 -23 5
-23 10 0 13 11 13 30 0z m146 -18 c-36 -4 -79 6 -72 17 3 5 27 3 53 -3 42 -10
44 -11 19 -14z m-199 -24 c-3 -8 -6 -5 -6 6 -1 11 2 17 5 13 3 -3 4 -12 1 -19z
m63 -3 l25 -14 -37 -1 c-29 0 -36 3 -32 15 7 18 12 18 44 0z m118 -4 c4 -11
-2 -12 -24 -7 -45 11 -55 28 -15 24 19 -2 37 -9 39 -17z m-188 -43 c0 -12 -18
-10 -51 7 -42 22 -26 38 16 18 19 -9 35 -20 35 -25z m143 25 c-7 -2 -19 -2
-25 0 -7 3 -2 5 12 5 14 0 19 -2 13 -5z m-63 -13 c26 -16 3 -22 -27 -6 -23 13
-24 15 -8 15 11 1 27 -3 35 -9z m-103 -27 c24 -10 43 -21 43 -25 0 -10 -22 -4
-65 20 -49 26 -36 28 22 5z m78 7 c3 -5 2 -10 -4 -10 -5 0 -13 5 -16 10 -3 6
-2 10 4 10 5 0 13 -4 16 -10z m95 0 c12 -8 9 -10 -12 -10 -16 0 -28 5 -28 10
0 13 20 13 40 0z m0 -41 c0 -4 -7 -6 -15 -3 -8 4 -15 10 -15 15 0 4 7 6 15 3
8 -4 15 -10 15 -15z m-243 -5 c-3 -3 -12 -4 -19 -1 -8 3 -5 6 6 6 11 1 17 -2
13 -5z m58 -14 c3 -5 20 -14 38 -19 23 -7 26 -9 11 -10 -22 -1 -94 25 -94 34
0 9 39 5 45 -5z m70 0 c8 -13 -15 -13 -35 0 -12 8 -11 10 7 10 12 0 25 -4 28
-10z m115 -10 c0 -5 -7 -7 -15 -4 -8 4 -15 8 -15 10 0 2 7 4 15 4 8 0 15 -4
15 -10z m-143 -46 c-7 -7 -61 13 -65 24 -3 9 8 7 32 -5 20 -9 34 -18 33 -19z
m212 10 c2 -2 -10 -4 -27 -4 -18 0 -32 5 -32 10 0 9 47 4 59 -6z m-209 -34 c0
-10 -38 -1 -45 10 -2 4 7 5 20 2 14 -2 25 -8 25 -12z m183 13 c-7 -2 -19 -2
-25 0 -7 3 -2 5 12 5 14 0 19 -2 13 -5z m110 -19 c43 -7 61 -25 20 -20 -15 2
-20 1 -10 -1 9 -2 17 -9 17 -14 0 -12 -27 -11 -52 2 -17 9 -18 13 -7 21 10 6
1 8 -26 5 -22 -2 -31 -2 -20 1 l20 4 -20 9 c-21 9 -11 8 78 -7z m848 -94 c26
-69 22 -156 -15 -315 -42 -176 -58 -208 -156 -305 -56 -56 -92 -84 -104 -82
-13 3 -16 9 -11 25 3 12 9 39 12 60 6 38 11 44 93 101 23 15 39 30 36 33 -2 3
-20 -6 -38 -20 -39 -29 -83 -53 -75 -40 2 4 10 34 17 66 7 36 16 57 25 57 25
0 59 62 61 109 1 30 8 49 20 58 10 7 13 13 7 13 -7 0 -15 -4 -18 -10 -3 -5
-11 -10 -16 -10 -6 0 -7 6 -2 13 4 6 8 16 8 22 0 9 72 54 87 55 3 0 11 -12 17
-27 9 -24 10 -20 8 29 -2 34 1 59 7 62 7 3 8 7 1 13 -5 4 -11 16 -13 27 -6 31
20 13 35 -25 l13 -34 -5 43 c-8 65 -31 112 -53 112 -26 0 -43 -23 -87 -118
-21 -45 -39 -81 -41 -80 -4 6 23 196 31 207 4 7 26 26 48 42 l42 30 22 -28
c13 -15 33 -53 44 -83z m-964 94 c-3 -3 -12 -4 -19 -1 -8 3 -5 6 6 6 11 1 17
-2 13 -5z m-242 -54 c-3 -4 -29 1 -60 12 -30 12 -52 24 -50 28 3 4 29 -1 60
-12 30 -12 52 -24 50 -28z m74 34 c10 -9 -35 -3 -49 6 -11 8 -7 9 15 4 17 -4
32 -8 34 -10z m26 -4 c3 -5 1 -10 -4 -10 -6 0 -11 5 -11 10 0 6 2 10 4 10 3 0
8 -4 11 -10z m228 -18 c16 -7 33 -12 38 -12 26 0 3 -17 -44 -32 -36 -11 -56
-13 -64 -6 -15 12 -17 38 -3 38 6 0 10 -3 10 -7 0 -5 11 -8 25 -8 37 0 30 13
-10 21 -19 3 -33 10 -30 14 6 10 44 6 78 -8z m-369 -17 c33 -14 49 -35 26 -35
-18 0 -59 23 -64 36 -7 17 -6 17 38 -1z m123 -11 c-3 -3 -12 -4 -19 -1 -8 3
-5 6 6 6 11 1 17 -2 13 -5z m48 -4 c19 -8 19 -9 -2 -9 -12 -1 -25 4 -28 9 -7
12 2 12 30 0z m-917 -31 c30 -31 47 -77 56 -159 l5 -45 -39 75 c-22 41 -43 83
-46 93 -15 40 -52 -3 -69 -80 -7 -32 -13 -47 -14 -33 -2 63 43 180 69 180 4 0
21 -14 38 -31z m847 12 c-18 -7 -55 -4 -55 5 0 2 17 4 38 3 28 0 32 -2 17 -8z
m170 -12 c6 -17 13 -19 50 -15 l43 4 -20 -20 c-17 -17 -24 -19 -39 -9 -10 6
-26 11 -34 11 -9 0 -13 5 -10 10 3 6 1 10 -4 10 -6 0 -11 7 -11 15 0 22 18 18
25 -6z m-60 2 c3 -5 -3 -12 -12 -14 -15 -4 -14 -5 3 -6 25 -1 50 -26 35 -35
-5 -4 -29 -4 -53 -1 -31 4 -38 3 -23 -4 17 -8 17 -10 3 -10 -23 -1 -31 14 -14
28 10 8 21 8 40 1 34 -13 53 -13 41 -1 -6 5 -21 11 -35 13 -14 1 -24 7 -22 13
2 5 -5 12 -15 16 -13 6 -10 8 14 8 17 1 34 -3 38 -8z m-126 -17 c17 -4 31 -11
31 -16 0 -6 -7 -8 -15 -4 -8 3 -21 -2 -29 -10 -13 -13 -16 -12 -26 5 -18 34
-15 36 39 25z m395 -32 c-42 -30 -72 -49 -64 -39 15 17 84 67 93 67 5 0 -8
-13 -29 -28z m265 4 c45 -24 121 -77 121 -84 -2 -21 -63 -74 -116 -101 -81
-41 -135 -48 -210 -26 -59 17 -134 67 -134 88 0 13 62 84 93 107 50 37 187 46
246 16z m-877 -21 c39 -18 118 -89 118 -104 0 -17 -80 -71 -105 -71 -11 0 -26
-5 -32 -11 -19 -19 -152 -7 -203 19 -62 31 -107 71 -91 82 10 5 10 9 2 14 -16
10 -2 29 16 22 8 -3 11 -1 8 4 -8 13 -32 13 -37 -1 -2 -6 -13 -9 -23 -7 -17 3
-14 7 15 23 116 63 240 75 332 30z m109 8 c13 -16 12 -17 -3 -4 -10 7 -18 15
-18 17 0 8 8 3 21 -13z m323 -12 c-3 -9 -9 -26 -11 -38 -6 -25 -8 -26 -38 -13
-19 8 -19 9 3 9 30 1 24 23 -9 32 -19 6 -16 7 15 8 37 1 39 2 20 16 -18 13
-18 14 4 8 17 -4 21 -10 16 -22z m866 -1 c-8 -5 -19 -10 -25 -10 -5 0 -3 5 5
10 8 5 20 10 25 10 6 0 3 -5 -5 -10z m-1078 -35 c3 -13 2 -22 -2 -20 -4 3 -10
16 -12 30 -3 13 -2 22 2 20 4 -3 10 -16 12 -30z m-81 8 c13 -16 12 -17 -3 -4
-10 7 -18 15 -18 17 0 8 8 3 21 -13z m184 7 c13 -6 15 -9 5 -9 -8 0 -22 4 -30
9 -18 12 -2 12 25 0z m981 -5 c-11 -8 -22 -12 -25 -9 -6 6 19 24 34 24 6 -1 1
-7 -9 -15z m-1016 -17 c0 -11 -12 -10 -30 2 -12 7 -10 9 8 7 12 0 22 -5 22 -9z
m240 -7 c0 -5 -6 -11 -13 -14 -8 -3 -14 1 -14 9 0 8 6 14 14 14 7 0 13 -4 13
-9z m714 -13 c-10 -12 -14 -18 -7 -15 8 5 11 0 10 -12 -1 -11 -3 -18 -6 -16
-6 7 -36 -38 -33 -50 2 -6 -1 -6 -8 1 -17 17 27 114 53 114 5 0 2 -10 -9 -22z
m73 3 c1 -13 -8 -23 -28 -30 -37 -13 -37 -6 -1 14 26 15 26 16 2 10 -24 -6
-24 -5 -6 9 26 21 31 20 33 -3z m-1149 -21 c7 0 12 -4 12 -10 0 -21 -44 1 -54
27 -6 16 -6 16 12 0 10 -9 24 -17 30 -17z m13 12 c-7 -2 -18 1 -23 6 -8 8 -4
9 13 5 13 -4 18 -8 10 -11z m-825 -24 c-1 -18 -5 -39 -9 -45 -6 -9 -3 -11 7
-7 21 8 20 1 -2 -19 -17 -15 -18 -14 -17 31 0 40 9 72 19 72 1 0 2 -15 2 -32z
m937 19 c7 3 3 -3 -7 -15 -12 -14 -14 -22 -7 -22 8 0 5 -10 -8 -26 -11 -15
-18 -30 -15 -35 3 -5 -4 -9 -15 -9 -12 0 -21 5 -21 10 0 6 6 10 14 10 9 0 12
7 9 20 -4 16 -2 19 13 14 18 -6 18 -6 0 8 -18 14 -18 15 3 21 11 3 20 11 18
19 -2 7 -2 10 0 5 3 -4 10 -4 16 0z m117 3 c13 -9 13 -10 0 -10 -13 0 -13 -1
0 -10 17 -11 1 -13 -24 -4 -9 3 -13 11 -9 17 4 6 0 8 -11 4 -10 -4 -15 -3 -11
3 8 13 36 13 55 0z m-995 -39 c16 -33 22 -142 10 -211 -6 -40 -4 -49 18 -76
14 -16 36 -36 50 -43 17 -9 29 -28 37 -58 6 -25 9 -47 6 -50 -2 -2 -18 3 -35
11 -35 18 -41 19 -41 7 0 -5 19 -16 42 -23 38 -13 44 -20 55 -58 11 -37 11
-47 -1 -58 -11 -12 -18 -11 -43 2 -17 8 -37 25 -45 38 -9 13 -35 47 -60 76
-54 63 -115 222 -104 274 7 36 53 118 66 118 4 0 13 -12 18 -27 13 -35 15 -9
3 34 -6 21 -5 35 2 42 8 8 8 11 -2 11 -7 0 -9 5 -6 10 9 15 13 13 30 -19z
m1110 11 c-3 -3 -11 0 -18 7 -9 10 -8 11 6 5 10 -3 15 -9 12 -12z m-1216 -119
c-18 -67 -32 -53 -24 24 10 91 17 107 28 58 5 -26 4 -55 -4 -82z m835 105 c-5
-8 -2 -9 11 -4 14 5 16 4 7 -7 -7 -8 -10 -17 -7 -21 3 -3 -2 0 -11 8 -14 12
-13 36 2 36 3 0 2 -5 -2 -12z m291 -11 c7 -6 0 -7 -20 -3 -16 4 -34 12 -40 17
-7 7 0 8 20 3 17 -3 35 -11 40 -17z m122 -20 c4 -6 9 -20 10 -31 3 -16 1 -17
-12 -6 -11 9 -13 15 -5 20 7 4 -3 10 -22 15 -18 4 -27 9 -20 12 6 2 9 9 6 15
-4 6 2 6 14 -1 12 -6 24 -17 29 -24z m-1280 1 c-3 -8 -6 -5 -6 6 -1 11 2 17 5
13 3 -3 4 -12 1 -19z m1703 -12 c0 -2 -8 -10 -17 -17 -16 -13 -17 -12 -4 4 13
16 21 21 21 13z m-835 -26 c3 -5 1 -10 -4 -10 -6 0 -11 5 -11 10 0 6 2 10 4
10 3 0 8 -4 11 -10z m-688 -32 c-3 -8 -6 -5 -6 6 -1 11 2 17 5 13 3 -3 4 -12
1 -19z m770 -3 c0 -8 -4 -15 -9 -15 -4 0 -8 7 -8 15 0 8 4 15 8 15 5 0 9 -7 9
-15z m-442 -15 c3 -5 2 -10 -4 -10 -5 0 -13 5 -16 10 -3 6 -2 10 4 10 5 0 13
-4 16 -10z m420 -20 c-27 -12 -43 -12 -25 0 8 5 22 9 30 9 10 0 8 -3 -5 -9z
m-126 -29 c-8 -2 -7 -6 2 -12 22 -13 -36 -22 -60 -9 -12 6 -32 9 -44 5 -12 -3
1 5 28 18 39 18 54 21 68 13 10 -6 13 -12 6 -15z m-264 -62 c12 -6 -3 -6 -40
-3 -33 4 -67 11 -75 16 -19 11 86 -1 115 -13z m180 1 c25 -11 -1 -11 -35 0
-20 6 -21 8 -5 8 11 0 29 -3 40 -8z m-176 -27 c3 -3 -12 -3 -34 0 -22 4 -52 7
-67 7 -16 0 -28 4 -28 8 0 9 120 -4 129 -15z m54 10 c-7 -2 -19 -2 -25 0 -7 3
-2 5 12 5 14 0 19 -2 13 -5z m-77 -24 c32 -7 64 -16 69 -22 7 -6 -2 -7 -25 -3
-19 4 -59 10 -88 13 -29 3 -55 10 -58 14 -7 12 31 11 102 -2z m94 1 c20 -6 21
-8 5 -8 -11 0 -31 4 -45 8 -20 6 -21 8 -5 8 11 0 31 -4 45 -8z m1015 -1 c4 -6
13 -8 21 -5 8 3 14 1 14 -5 0 -6 6 -7 13 -3 9 5 9 4 1 -5 -9 -10 -20 -8 -50 8
-22 11 -31 20 -22 21 9 0 20 -5 23 -11z m15 -29 c35 -20 35 -20 5 -13 -16 3
-36 12 -43 20 -19 18 -3 16 38 -7z m65 -81 c11 -16 1 -19 -13 -3 -7 8 -8 14
-3 14 5 0 13 -5 16 -11z m85 -120 c0 -3 -6 -6 -14 -6 -8 0 -11 8 -8 20 4 14 7
16 13 5 5 -7 9 -16 9 -19z m-5 -179 c5 1 14 -18 21 -41 7 -23 9 -38 4 -33 -5
5 -13 25 -18 44 -6 19 -10 26 -11 15 0 -11 6 -37 13 -57 13 -36 12 -48 -5 -48
-5 0 -5 7 -2 17 4 10 2 14 -4 10 -7 -5 -9 1 -6 15 4 19 3 20 -6 8 -9 -13 -11
-12 -11 3 0 10 -4 15 -10 12 -6 -3 -7 1 -4 10 5 11 2 14 -11 9 -15 -6 -16 -4
-5 17 15 29 25 40 18 19 -3 -8 1 -21 9 -29 12 -11 13 -8 9 26 -4 22 -3 31 2
20 4 -10 12 -18 17 -17z m-89 -129 c-1 -16 -4 -27 -8 -25 -4 3 -12 -12 -18
-33 -5 -21 -15 -45 -21 -53 -9 -12 -9 -11 -4 5 4 11 9 31 12 45 3 23 2 22 -11
-5 -17 -35 -21 -28 -6 10 5 14 14 23 20 20 5 -3 12 7 16 22 12 51 22 57 20 14z
m155 4 c5 4 9 -1 9 -9 0 -9 6 -16 13 -16 16 0 52 -60 41 -68 -5 -4 -23 -20
-40 -35 l-30 -27 2 32 c2 18 -6 51 -17 74 -11 23 -17 49 -13 59 6 16 8 16 16
1 5 -9 13 -14 19 -11z m98 -75 c0 -23 -15 7 -22 45 l-6 30 14 -30 c8 -16 14
-37 14 -45z m31 -8 c0 -15 -2 -15 -10 -2 -13 20 -13 33 0 25 6 -3 10 -14 10
-23z m-1544 -56 c-19 -29 -21 -40 -5 -30 6 3 17 20 25 38 8 19 13 24 14 13 0
-10 4 -16 9 -13 5 3 14 -8 20 -24 5 -17 6 -28 1 -25 -4 3 -16 -16 -26 -42 -19
-53 -41 -85 -29 -43 4 14 16 45 26 69 11 24 18 46 16 48 -4 3 -26 -45 -48
-102 -6 -16 -13 -25 -16 -18 -2 7 5 33 16 59 12 26 20 49 18 51 -7 7 -24 -22
-42 -72 -15 -39 -66 -120 -65 -103 1 23 31 92 38 91 13 -3 26 33 17 47 -7 11
34 95 42 86 3 -3 -2 -17 -11 -30z m1264 11 c0 -7 -4 -6 -10 3 -8 12 -10 12
-10 1 0 -8 -3 -12 -6 -8 -9 9 6 28 17 22 5 -4 9 -12 9 -18z m353 -8 c7 -25 3
-24 -17 6 -13 19 -13 23 -2 19 8 -3 16 -14 19 -25z m53 -51 c10 -29 21 -56 22
-60 2 -4 0 -8 -5 -8 -5 0 -18 23 -29 52 -10 29 -20 56 -22 60 -2 4 0 8 5 8 5
0 18 -23 29 -52z m50 -75 c-5 -6 -30 49 -40 88 -3 13 6 0 19 -30 14 -29 24
-56 21 -58z m-1806 7 c-18 -28 -35 -49 -37 -46 -3 3 5 19 17 36 12 17 20 34
16 37 -3 3 -20 -18 -37 -46 -21 -33 -38 -50 -46 -47 -8 3 -16 -1 -19 -8 -8
-22 -34 -29 -28 -8 4 11 -2 8 -16 -8 l-22 -25 17 31 c10 17 26 41 36 55 16 20
18 21 13 4 -4 -15 0 -13 19 9 14 16 30 26 35 22 6 -4 16 3 22 14 7 13 18 19
26 16 8 -3 17 1 21 10 3 8 8 13 11 10 2 -3 -10 -28 -28 -56z m1856 -17 c-5 -5
-36 62 -36 76 1 3 10 -11 21 -32 11 -22 18 -41 15 -44z m-1703 52 c-3 -9 -8
-14 -10 -11 -3 3 -2 9 2 15 9 16 15 13 8 -4z m1078 -12 c-12 -20 -14 -14 -5
12 4 9 9 14 11 11 3 -2 0 -13 -6 -23z m513 1 c3 -8 2 -12 -4 -9 -6 3 -10 10
-10 16 0 14 7 11 14 -7z m-1613 -41 c-12 -20 -14 -14 -5 12 4 9 9 14 11 11 3
-2 0 -13 -6 -23z m183 -56 c7 -5 3 -7 -9 -5 -13 2 -21 12 -23 28 -2 24 -2 24
9 5 7 -11 17 -24 23 -28z m1123 1 c-3 -8 -6 -5 -6 6 -1 11 2 17 5 13 3 -3 4
-12 1 -19z m-1623 -20 c-3 -5 -10 -6 -15 -3 -5 4 -19 -10 -30 -30 -12 -20 -26
-34 -33 -32 -6 2 -18 -6 -28 -17 -11 -13 -17 -16 -18 -8 0 8 -5 10 -12 6 -8
-4 -10 -3 -5 2 5 5 12 9 17 9 4 0 17 11 29 25 18 21 20 22 15 5 l-6 -20 16 20
c37 46 44 52 59 52 9 0 14 -4 11 -9z m1610 -32 c-3 -15 -8 -25 -11 -23 -2 3
-1 17 3 31 3 15 8 25 11 23 2 -3 1 -17 -3 -31z m-378 2 c4 -7 3 -8 -4 -4 -7 4
-12 0 -12 -10 0 -10 -3 -15 -6 -11 -7 6 2 37 10 37 3 0 8 -5 12 -12z m735
-104 c6 -12 9 -32 6 -45 -3 -18 -5 -15 -6 11 -1 27 -4 31 -11 20 -8 -13 -11
-11 -16 8 -4 12 -10 22 -15 22 -5 0 -9 5 -9 11 0 5 5 7 10 4 6 -4 10 11 11 37
l1 43 9 -45 c5 -25 14 -54 20 -66z m-1327 26 c-6 -6 -10 -3 -10 10 0 13 4 16
10 10 7 -7 7 -13 0 -20z m535 3 c-1 -18 -3 -21 -6 -10 -2 9 -9 15 -14 12 -5
-3 -6 1 -3 9 10 26 24 18 23 -11z m-1358 -16 c-13 -12 -20 -15 -16 -7 14 26
28 41 33 35 3 -3 -5 -16 -17 -28z m279 2 c0 -15 -18 -19 -23 -6 -3 8 1 14 9
14 8 0 14 -4 14 -8z m-310 -13 c0 -2 -8 -10 -17 -17 -16 -13 -17 -12 -4 4 13
16 21 21 21 13z m834 -12 c3 -8 2 -12 -4 -9 -6 3 -10 10 -10 16 0 14 7 11 14
-7z m-14 -61 c0 -21 -3 -23 -14 -14 -7 6 -13 23 -13 36 0 20 2 23 13 14 8 -6
14 -23 14 -36z m45 7 c9 -16 13 -30 11 -30 -3 0 -12 14 -21 30 -9 17 -13 30
-11 30 3 0 12 -13 21 -30z m1342 -12 c-3 -8 -6 -5 -6 6 -1 11 2 17 5 13 3 -3
4 -12 1 -19z m-1028 -18 c19 -16 32 -32 29 -36 -4 -3 -24 10 -45 30 -46 43
-32 48 16 6z m35 4 c3 -8 2 -12 -4 -9 -6 3 -10 10 -10 16 0 14 7 11 14 -7z
m-617 -76 c-3 -7 -5 -2 -5 12 0 14 2 19 5 13 2 -7 2 -19 0 -25z m471 -3 c-3
-3 -9 2 -12 12 -6 14 -5 15 5 6 7 -7 10 -15 7 -18z m-451 -87 c-2 -18 -4 -4
-4 32 0 36 2 50 4 33 2 -18 2 -48 0 -65z m343 42 c6 -11 8 -20 6 -20 -3 0 -10
9 -16 20 -6 11 -8 20 -6 20 3 0 10 -9 16 -20z m0 -90 c6 -11 8 -20 6 -20 -3 0
-10 9 -16 20 -6 11 -8 20 -6 20 3 0 10 -9 16 -20z m70 -115 c0 -8 -2 -15 -4
-15 -2 0 -6 7 -10 15 -3 8 -1 15 4 15 6 0 10 -7 10 -15z m14 -81 c3 -8 2 -12
-4 -9 -6 3 -10 10 -10 16 0 14 7 11 14 -7z m26 -109 c0 -5 -5 -3 -10 5 -5 8
-10 20 -10 25 0 6 5 3 10 -5 5 -8 10 -19 10 -25z"/>
<path d="M2091 2079 c-13 -5 -21 -12 -18 -15 3 -3 18 1 34 10 31 17 21 20 -16
5z"/>
<path d="M2160 1996 c0 -8 -16 -52 -35 -97 -19 -45 -33 -85 -30 -87 2 -3 14
17 26 44 47 110 58 143 49 149 -6 3 -10 0 -10 -9z"/>
<path d="M1546 2164 c-21 -21 -20 -47 3 -68 41 -37 85 29 45 68 -8 9 -19 16
-24 16 -5 0 -16 -7 -24 -16z"/>
<path d="M741 2138 c-12 -33 4 -58 35 -56 31 3 45 25 33 56 -6 15 -17 22 -34
22 -17 0 -28 -7 -34 -22z"/>
<path d="M200 1845 c0 -31 72 -145 91 -145 6 0 -1 15 -14 33 -14 17 -34 51
-46 75 -19 38 -31 52 -31 37z"/>
<path d="M881 1940 c-17 -10 -5 -30 17 -29 13 1 12 3 -3 7 -20 5 -20 5 -1 12
11 3 15 9 10 13 -6 3 -16 2 -23 -3z"/>
<path d="M396 1014 c-10 -14 -16 -28 -13 -30 2 -3 12 7 21 22 10 14 16 28 13
30 -2 3 -12 -7 -21 -22z"/>
<path d="M347 993 c-4 -3 -7 -11 -7 -17 0 -6 5 -5 12 2 6 6 9 14 7 17 -3 3 -9
2 -12 -2z"/>
<path d="M1472 3501 c4 -31 33 -50 49 -34 9 9 10 18 1 35 -10 20 -11 21 -9 3
3 -29 -16 -32 -31 -4 l-13 24 3 -24z"/>
<path d="M865 3490 c-5 -16 -12 -19 -28 -14 -19 6 -20 5 -9 -9 8 -9 20 -13 27
-10 15 5 30 41 22 50 -3 2 -8 -5 -12 -17z"/>
<path d="M1681 3404 c-1 -12 6 -27 15 -34 21 -18 55 13 36 32 -9 9 -12 8 -12
-5 0 -24 -19 -21 -30 6 -9 22 -9 22 -9 1z"/>
<path d="M1192 3219 c1 -152 1 -153 9 -59 7 89 4 199 -6 209 -3 2 -4 -65 -3
-150z"/>
<path d="M1637 3275 c3 -27 9 -79 14 -115 7 -61 8 -60 4 20 -3 47 -9 99 -15
115 -8 25 -9 22 -3 -20z"/>
<path d="M946 3269 c-3 -8 -10 -40 -16 -72 -9 -46 -9 -61 1 -74 21 -24 49 18
48 71 -2 32 -3 34 -6 11 -6 -53 -13 -75 -23 -75 -13 0 -13 65 0 109 9 33 6 59
-4 30z"/>
<path d="M446 3158 c-30 -46 -68 -139 -62 -153 6 -16 32 -20 39 -7 3 4 7 23
10 42 l6 35 -11 -38 c-13 -41 -35 -45 -30 -6 2 13 19 52 38 87 33 61 39 84 10
40z"/>
<path d="M1401 3150 c-1 -42 16 -65 36 -49 7 7 13 23 12 38 -1 25 -1 25 -7 3
-10 -33 -26 -28 -33 10 l-6 33 -2 -35z"/>
<path d="M1835 3120 c3 -19 10 -55 15 -80 8 -40 9 -38 4 20 -3 35 -10 71 -15
80 -7 10 -8 4 -4 -20z"/>
<path d="M1224 3043 c0 -40 -3 -76 -7 -79 -13 -13 -21 6 -21 51 -1 25 -4 45
-8 45 -5 0 -8 -9 -8 -19 0 -11 -8 -22 -17 -24 -17 -4 -17 -5 0 -6 16 -1 22
-17 18 -48 -1 -7 11 -15 26 -19 15 -3 68 -19 117 -35 49 -16 91 -27 93 -25 3
2 -39 18 -92 36 l-97 32 7 37 c4 20 12 39 18 43 9 6 9 8 0 8 -6 0 -15 17 -20
38 -9 33 -10 29 -9 -35z"/>
<path d="M1075 3080 c11 -5 29 -8 40 -8 16 0 15 2 -5 8 -34 11 -60 11 -35 0z"/>
<path d="M1650 3075 c0 -8 5 -15 10 -15 6 0 10 7 10 15 0 8 -4 15 -10 15 -5 0
-10 -7 -10 -15z"/>
<path d="M1075 3030 c17 -4 39 -8 50 -8 16 0 15 2 -5 8 -14 4 -36 8 -50 8 -22
0 -22 -1 5 -8z"/>
<path d="M1655 2935 c4 -117 10 -137 39 -133 21 3 36 38 16 38 -6 0 -9 -4 -5
-9 8 -13 -15 -25 -26 -14 -5 5 -13 56 -18 114 l-10 104 4 -100z"/>
<path d="M991 3006 c8 -9 171 -48 176 -42 2 2 -29 11 -69 21 -40 9 -82 19 -93
22 -11 3 -17 2 -14 -1z"/>
<path d="M717 2983 c-11 -10 -8 -61 3 -68 10 -6 50 29 50 45 0 19 -18 10 -23
-11 -8 -29 -30 -13 -24 17 5 26 4 28 -6 17z"/>
<path d="M1355 2951 c55 -21 118 -47 140 -56 22 -9 36 -12 30 -7 -13 13 -238
102 -256 102 -8 0 31 -18 86 -39z"/>
<path d="M1390 2980 c8 -5 20 -10 25 -10 6 0 3 5 -5 10 -8 5 -19 10 -25 10 -5
0 -3 -5 5 -10z"/>
<path d="M1864 2900 c0 -52 1 -74 3 -47 2 26 2 68 0 95 -2 26 -3 4 -3 -48z"/>
<path d="M1084 2949 c33 -11 61 -17 63 -15 5 5 -100 37 -114 35 -4 -1 19 -10
51 -20z"/>
<path d="M466 2938 c-12 -39 -14 -65 -6 -78 8 -13 11 -13 24 0 19 19 35 87 18
76 -7 -4 -12 -18 -12 -31 0 -13 -5 -27 -12 -31 -8 -5 -9 5 -5 34 5 40 1 56 -7
30z"/>
<path d="M1030 2925 c14 -8 30 -14 35 -14 6 0 -1 6 -15 14 -14 8 -29 14 -35
14 -5 0 1 -6 15 -14z"/>
<path d="M1160 2915 c0 -9 5 -13 11 -10 17 11 83 -5 71 -17 -7 -7 -16 -6 -30
1 -30 16 -39 14 -16 -4 24 -18 42 -19 58 -2 13 13 3 30 -19 33 -6 1 -25 5 -42
9 -27 5 -33 3 -33 -10z"/>
<path d="M1697 2895 c3 -22 7 -42 9 -44 8 -9 2 45 -6 64 -7 14 -8 8 -3 -20z"/>
<path d="M1894 2850 c1 -47 -2 -55 -16 -54 -10 1 -18 -2 -18 -7 0 -16 38 -10
44 7 8 21 6 64 -4 89 -5 13 -7 2 -6 -35z"/>
<path d="M1149 2873 c26 -19 36 -21 101 -27 25 -2 63 -7 85 -11 22 -4 37 -5
34 -1 -12 12 -110 33 -135 28 -14 -2 -35 0 -47 6 -12 6 -31 13 -42 16 -17 5
-16 3 4 -11z"/>
<path d="M718 2873 c6 -2 18 -2 25 0 6 3 1 5 -13 5 -14 0 -19 -2 -12 -5z"/>
<path d="M865 2870 c27 -12 43 -12 25 0 -8 5 -22 9 -30 9 -10 0 -8 -3 5 -9z"/>
<path d="M1009 2859 c24 -11 46 -18 48 -15 4 4 -73 36 -85 35 -4 0 13 -9 37
-20z"/>
<path d="M1440 2870 c8 -5 22 -9 30 -9 10 0 8 3 -5 9 -27 12 -43 12 -25 0z"/>
<path d="M1540 2876 c0 -2 7 -7 16 -10 8 -3 12 -2 9 4 -6 10 -25 14 -25 6z"/>
<path d="M894 2820 c60 -22 111 -38 113 -36 5 5 -156 63 -194 71 -16 3 21 -12
81 -35z"/>
<path d="M805 2800 c27 -12 43 -12 25 0 -8 5 -22 9 -30 9 -10 0 -8 -3 5 -9z"/>
<path d="M1501 2792 c-1 -13 4 -32 10 -43 14 -27 39 -7 38 30 -1 20 -2 22 -6
6 -9 -37 -22 -38 -31 -4 -8 26 -10 29 -11 11z"/>
<path d="M870 2780 c8 -5 22 -9 30 -9 10 0 8 3 -5 9 -27 12 -43 12 -25 0z"/>
<path d="M1030 2770 c8 -5 20 -10 25 -10 6 0 3 5 -5 10 -8 5 -19 10 -25 10 -5
0 -3 -5 5 -10z"/>
<path d="M790 2760 c8 -5 22 -9 30 -9 10 0 8 3 -5 9 -27 12 -43 12 -25 0z"/>
<path d="M698 2753 c7 -3 16 -2 19 1 4 3 -2 6 -13 5 -11 0 -14 -3 -6 -6z"/>
<path d="M1080 2750 c8 -5 20 -10 25 -10 6 0 3 5 -5 10 -8 5 -19 10 -25 10 -5
0 -3 -5 5 -10z"/>
<path d="M690 2720 c8 -5 22 -9 30 -9 10 0 8 3 -5 9 -27 12 -43 12 -25 0z"/>
<path d="M755 2700 c11 -5 27 -9 35 -9 9 0 8 4 -5 9 -11 5 -27 9 -35 9 -9 0
-8 -4 5 -9z"/>
<path d="M700 2680 c34 -11 60 -11 35 0 -11 5 -29 8 -40 8 -16 0 -15 -2 5 -8z"/>
<path d="M820 2680 c8 -5 20 -10 25 -10 6 0 3 5 -5 10 -8 5 -19 10 -25 10 -5
0 -3 -5 5 -10z"/>
<path d="M1528 2683 c6 -2 18 -2 25 0 6 3 1 5 -13 5 -14 0 -19 -2 -12 -5z"/>
<path d="M586 2650 c-7 -38 -26 -39 -26 -2 -1 23 -2 25 -11 9 -14 -23 -2 -59
19 -55 18 3 46 64 33 72 -5 3 -11 -8 -15 -24z"/>
<path d="M337 2663 c-3 -5 -8 -47 -12 -95 -7 -78 -5 -88 10 -94 26 -11 35 14
33 96 l-2 75 -5 -74 c-4 -46 -11 -76 -18 -79 -15 -4 -15 12 -4 111 7 66 7 74
-2 60z"/>
<path d="M1638 2663 c7 -3 16 -2 19 1 4 3 -2 6 -13 5 -11 0 -14 -3 -6 -6z"/>
<path d="M1518 2653 c6 -2 18 -2 25 0 6 3 1 5 -13 5 -14 0 -19 -2 -12 -5z"/>
<path d="M1718 2653 c7 -3 16 -2 19 1 4 3 -2 6 -13 5 -11 0 -14 -3 -6 -6z"/>
<path d="M1568 2643 c7 -3 16 -2 19 1 4 3 -2 6 -13 5 -11 0 -14 -3 -6 -6z"/>
<path d="M1628 2633 c7 -3 16 -2 19 1 4 3 -2 6 -13 5 -11 0 -14 -3 -6 -6z"/>
<path d="M1508 2623 c6 -2 18 -2 25 0 6 3 1 5 -13 5 -14 0 -19 -2 -12 -5z"/>
<path d="M650 2605 c53 -17 57 -18 45 -6 -6 5 -28 12 -50 15 l-40 6 45 -15z"/>
<path d="M1558 2613 c7 -3 16 -2 19 1 4 3 -2 6 -13 5 -11 0 -14 -3 -6 -6z"/>
<path d="M750 2600 c34 -11 60 -11 35 0 -11 5 -29 8 -40 8 -16 0 -15 -2 5 -8z"/>
<path d="M1480 2600 c14 -4 34 -8 45 -8 16 0 15 2 -5 8 -14 4 -34 8 -45 8 -16
0 -15 -2 5 -8z"/>
<path d="M1618 2603 c7 -3 16 -2 19 1 4 3 -2 6 -13 5 -11 0 -14 -3 -6 -6z"/>
<path d="M1678 2593 c7 -3 16 -2 19 1 4 3 -2 6 -13 5 -11 0 -14 -3 -6 -6z"/>
<path d="M1766 2591 c-4 -7 -5 -15 -2 -18 9 -9 19 4 14 18 -4 11 -6 11 -12 0z"/>
<path d="M1558 2583 c7 -3 16 -2 19 1 4 3 -2 6 -13 5 -11 0 -14 -3 -6 -6z"/>
<path d="M1598 2573 c6 -2 18 -2 25 0 6 3 1 5 -13 5 -14 0 -19 -2 -12 -5z"/>
<path d="M1395 2560 c11 -5 29 -8 40 -8 16 0 15 2 -5 8 -34 11 -60 11 -35 0z"/>
<path d="M1663 2563 c9 -2 23 -2 30 0 6 3 -1 5 -18 5 -16 0 -22 -2 -12 -5z"/>
<path d="M1801 2549 c14 -27 -6 -54 -21 -29 -7 11 -10 11 -10 2 0 -17 29 -27
42 -14 12 12 2 62 -13 62 -6 0 -6 -8 2 -21z"/>
<path d="M625 2550 c3 -5 14 -10 24 -10 9 0 77 -20 151 -45 73 -25 135 -43
138 -41 3 4 -298 106 -313 106 -3 0 -3 -4 0 -10z"/>
<path d="M711 2556 c2 -2 18 -6 34 -10 22 -5 26 -4 15 4 -14 9 -59 15 -49 6z"/>
<path d="M1568 2553 c6 -2 18 -2 25 0 6 3 1 5 -13 5 -14 0 -19 -2 -12 -5z"/>
<path d="M1718 2553 c7 -3 16 -2 19 1 4 3 -2 6 -13 5 -11 0 -14 -3 -6 -6z"/>
<path d="M1468 2543 c6 -2 18 -2 25 0 6 3 1 5 -13 5 -14 0 -19 -2 -12 -5z"/>
<path d="M1620 2546 c0 -2 14 -6 30 -8 17 -3 30 -1 30 4 0 4 -13 8 -30 8 -16
0 -30 -2 -30 -4z"/>
<path d="M790 2530 c8 -5 22 -10 30 -10 13 0 13 1 0 10 -8 5 -22 10 -30 10
-13 0 -13 -1 0 -10z"/>
<path d="M1518 2533 c6 -2 18 -2 25 0 6 3 1 5 -13 5 -14 0 -19 -2 -12 -5z"/>
<path d="M1578 2523 c6 -2 18 -2 25 0 6 3 1 5 -13 5 -14 0 -19 -2 -12 -5z"/>
<path d="M670 2510 c8 -5 22 -9 30 -9 10 0 8 3 -5 9 -27 12 -43 12 -25 0z"/>
<path d="M1628 2513 c6 -2 18 -2 25 0 6 3 1 5 -13 5 -14 0 -19 -2 -12 -5z"/>
<path d="M728 2493 c7 -3 16 -2 19 1 4 3 -2 6 -13 5 -11 0 -14 -3 -6 -6z"/>
<path d="M1548 2493 c6 -2 18 -2 25 0 6 3 1 5 -13 5 -14 0 -19 -2 -12 -5z"/>
<path d="M1643 2483 c32 -2 81 -2 110 0 29 2 3 3 -58 3 -60 0 -84 -1 -52 -3z"/>
<path d="M1498 2473 c7 -3 16 -2 19 1 4 3 -2 6 -13 5 -11 0 -14 -3 -6 -6z"/>
<path d="M1600 2455 c14 -8 48 -14 75 -13 l50 1 -40 8 c-37 7 -35 7 18 6 31
-1 57 1 57 6 0 4 -42 7 -92 7 -86 -1 -91 -2 -68 -15z"/>
<path d="M1778 2463 c7 -3 16 -2 19 1 4 3 -2 6 -13 5 -11 0 -14 -3 -6 -6z"/>
<path d="M523 2433 c9 -2 23 -2 30 0 6 3 -1 5 -18 5 -16 0 -22 -2 -12 -5z"/>
<path d="M570 2431 c0 -6 17 -12 38 -13 65 -2 96 -5 132 -11 30 -6 29 -5 -8 8
-62 20 -162 31 -162 16z"/>
<path d="M1388 2433 c7 -3 16 -2 19 1 4 3 -2 6 -13 5 -11 0 -14 -3 -6 -6z"/>
<path d="M1535 2430 c44 -11 75 -11 75 0 0 6 -23 9 -52 9 -45 -1 -49 -2 -23
-9z"/>
<path d="M1971 2423 c-1 -12 4 -25 9 -28 14 -9 40 13 40 34 -1 11 -5 8 -15 -9
l-14 -25 -10 25 c-9 24 -10 24 -10 3z"/>
<path d="M493 2413 c15 -2 37 -2 50 0 12 2 0 4 -28 4 -27 0 -38 -2 -22 -4z"/>
<path d="M1643 2413 c9 -2 23 -2 30 0 6 3 -1 5 -18 5 -16 0 -22 -2 -12 -5z"/>
<path d="M593 2403 c9 -2 23 -2 30 0 6 3 -1 5 -18 5 -16 0 -22 -2 -12 -5z"/>
<path d="M655 2400 c-15 -6 -10 -9 25 -14 25 -4 80 -19 123 -33 43 -14 80 -23
83 -20 2 2 -33 17 -78 32 -124 41 -131 43 -153 35z"/>
<path d="M1538 2403 c6 -2 18 -2 25 0 6 3 1 5 -13 5 -14 0 -19 -2 -12 -5z"/>
<path d="M1588 2393 c6 -2 18 -2 25 0 6 3 1 5 -13 5 -14 0 -19 -2 -12 -5z"/>
<path d="M1658 2383 c6 -2 18 -2 25 0 6 3 1 5 -13 5 -14 0 -19 -2 -12 -5z"/>
<path d="M1595 2369 c22 -4 54 -8 70 -7 22 0 19 3 -15 9 -60 10 -108 9 -55 -2z"/>
<path d="M1723 2373 c9 -2 25 -2 35 0 9 3 1 5 -18 5 -19 0 -27 -2 -17 -5z"/>
<path d="M1488 2363 c7 -3 16 -2 19 1 4 3 -2 6 -13 5 -11 0 -14 -3 -6 -6z"/>
<path d="M682 2354 c9 -8 141 -34 146 -29 5 4 -56 20 -113 30 -22 4 -37 3 -33
-1z"/>
<path d="M1538 2353 c7 -3 16 -2 19 1 4 3 -2 6 -13 5 -11 0 -14 -3 -6 -6z"/>
<path d="M1914 2047 c-1 -89 1 -109 7 -72 10 67 11 195 2 195 -5 0 -8 -55 -9
-123z"/>
<path d="M1267 1989 c7 -7 15 -10 18 -7 3 3 -2 9 -12 12 -14 6 -15 5 -6 -5z"/>
<path d="M1724 1952 c-7 -4 14 -22 53 -44 36 -21 61 -32 55 -25 -6 6 -10 17
-10 22 1 6 -14 19 -32 29 -21 13 -31 15 -25 6 6 -10 4 -12 -9 -7 -10 4 -21 7
-24 7 -4 0 0 5 8 10 8 5 11 10 5 10 -5 0 -15 -4 -21 -8z m82 -37 c10 -8 15
-14 9 -14 -5 0 -19 6 -29 14 -11 8 -15 15 -10 15 6 0 19 -7 30 -15z"/>
<path d="M695 1940 c-3 -6 1 -7 9 -4 18 7 21 14 7 14 -6 0 -13 -4 -16 -10z"/>
<path d="M540 1915 c73 -15 123 -19 76 -5 -15 5 -53 11 -85 14 l-56 6 65 -15z"/>
<path d="M1460 1920 c8 -5 20 -10 25 -10 6 0 3 5 -5 10 -8 5 -19 10 -25 10 -5
0 -3 -5 5 -10z"/>
<path d="M1733 1909 c22 -11 37 -23 34 -25 -3 -3 -23 4 -46 15 -65 34 -62 24
4 -12 33 -18 75 -42 92 -55 17 -12 35 -22 40 -22 4 0 0 5 -10 11 -9 6 -15 14
-12 19 6 10 -110 90 -129 90 -6 -1 6 -10 27 -21z m77 -50 l25 -20 -32 16 c-18
8 -33 18 -33 20 0 10 16 4 40 -16z"/>
<path d="M1903 1880 c0 -25 2 -35 4 -22 2 12 2 32 0 45 -2 12 -4 2 -4 -23z"/>
<path d="M1932 1890 c0 -19 2 -27 5 -17 2 9 2 25 0 35 -3 9 -5 1 -5 -18z"/>
<path d="M1937 1820 l-8 -35 -19 24 c-14 16 -20 19 -20 8 0 -8 7 -20 16 -27
21 -18 47 8 42 41 -3 20 -5 19 -11 -11z"/>
<path d="M410 1806 c0 -2 11 -6 25 -8 14 -3 25 -1 25 3 0 5 -11 9 -25 9 -14 0
-25 -2 -25 -4z"/>
<path d="M1141 1784 c-1 -12 6 -27 14 -34 20 -16 46 4 44 34 -2 20 -2 20 -6
-1 -2 -13 -11 -23 -19 -23 -8 0 -19 10 -24 23 -9 22 -9 22 -9 1z"/>
<path d="M443 1771 c15 -5 57 -13 92 -16 36 -4 65 -12 65 -17 0 -5 5 -6 10 -3
20 12 -1 23 -57 29 -32 4 -76 9 -98 11 -35 4 -36 3 -12 -4z"/>
<path d="M395 1735 c6 -2 37 -7 70 -11 33 -4 52 -9 42 -11 -9 -3 -15 -9 -12
-14 4 -5 -2 -9 -12 -9 -15 0 -16 -2 -3 -10 12 -8 10 -10 -10 -10 -20 0 -22 -2
-10 -10 13 -8 12 -10 -2 -10 -20 0 -25 -20 -5 -20 9 0 9 -2 -1 -9 -14 -8 -24
-60 -13 -62 3 0 14 -2 23 -4 9 -2 25 6 34 16 19 21 28 53 13 43 -5 -3 -7 -10
-4 -15 3 -5 -1 -6 -10 -3 -13 5 -12 9 6 25 20 18 19 23 -6 20 -5 -1 3 10 18
24 15 14 36 25 45 26 11 1 8 4 -8 9 -23 7 -22 8 10 10 28 1 31 3 15 9 l-20 8
20 5 c11 2 -27 5 -85 5 -58 1 -100 0 -95 -2z"/>
<path d="M852 1698 c-2 -57 -28 -68 -35 -15 l-4 32 -1 -33 c-1 -21 3 -35 14
-39 25 -9 36 11 31 58 l-4 44 -1 -47z"/>
<path d="M1582 1660 c0 -14 2 -19 5 -12 2 6 2 18 0 25 -3 6 -5 1 -5 -13z"/>
<path d="M515 1660 c-3 -5 -1 -10 4 -10 6 0 11 5 11 10 0 6 -2 10 -4 10 -3 0
-8 -4 -11 -10z"/>
<path d="M1233 1627 c-23 -12 -43 -25 -43 -30 0 -4 19 3 43 15 23 13 51 26 62
29 l20 7 -20 0 c-11 1 -39 -9 -62 -21z"/>
<path d="M1023 1633 c-15 -5 -17 -23 -4 -23 5 0 11 7 15 15 3 8 4 15 3 14 -1
0 -8 -3 -14 -6z"/>
<path d="M1090 1620 c8 -5 22 -10 30 -10 13 0 13 1 0 10 -8 5 -22 10 -30 10
-13 0 -13 -1 0 -10z"/>
<path d="M1834 1595 c35 -51 42 -57 23 -19 -9 17 -23 37 -33 44 -9 8 -4 -3 10
-25z"/>
<path d="M1572 1595 c0 -16 2 -22 5 -12 2 9 2 23 0 30 -3 6 -5 -1 -5 -18z"/>
<path d="M1063 1603 c-22 -8 -14 -29 14 -42 29 -13 47 -3 38 21 -7 17 -33 27
-52 21z"/>
<path d="M1265 1603 c-11 -3 -25 -13 -32 -22 -25 -33 -15 -35 49 -11 29 11 35
17 26 27 -6 7 -13 12 -17 12 -3 -1 -15 -4 -26 -6z"/>
<path d="M1026 1575 c3 -16 6 -30 7 -30 1 0 12 -8 24 -18 16 -14 23 -15 29 -6
4 7 3 10 -3 6 -12 -8 -32 13 -51 52 l-12 26 6 -30z"/>
<path d="M1815 1566 c10 -14 19 -26 22 -26 7 0 -17 39 -28 46 -6 3 -3 -5 6
-20z"/>
<path d="M474 1528 c-16 -18 -21 -26 -11 -19 18 14 24 2 7 -15 -5 -5 -6 -15
-1 -22 5 -8 14 -2 31 20 13 19 16 27 7 19 -16 -13 -25 -2 -10 13 6 6 14 36 9
36 -1 0 -15 -14 -32 -32z"/>
<path d="M1561 1544 c0 -11 3 -14 6 -6 3 7 2 16 -1 19 -3 4 -6 -2 -5 -13z"/>
<path d="M1604 1515 c-3 -19 -9 -37 -13 -39 -11 -7 -28 8 -34 29 -3 15 -5 13
-6 -8 -1 -32 24 -47 44 -26 13 14 31 79 21 79 -3 0 -8 -16 -12 -35z"/>
<path d="M1805 1523 c34 -53 45 -67 45 -60 0 10 -51 87 -57 87 -3 0 3 -12 12
-27z"/>
<path d="M1245 1502 c-11 -9 -27 -26 -35 -37 -8 -11 3 -4 23 14 33 31 42 42
35 41 -2 -1 -12 -8 -23 -18z"/>
<path d="M691 1480 c-1 -25 16 -43 33 -37 9 4 15 14 15 24 -1 17 -2 17 -6 1
-6 -25 -22 -22 -33 5 -5 12 -9 15 -9 7z"/>
<path d="M1294 1430 c2 -18 38 -20 42 -2 1 7 0 8 -3 2 -7 -14 -31 -13 -36 3
-2 7 -3 6 -3 -3z"/>
<path d="M1760 1386 c0 -2 8 -10 18 -17 15 -13 16 -12 3 4 -13 16 -21 21 -21
13z"/>
<path d="M536 1333 c-6 -14 -5 -15 5 -6 7 7 10 15 7 18 -3 3 -9 -2 -12 -12z"/>
<path d="M556 1325 c-3 -9 -6 -22 -5 -28 0 -7 5 -1 10 12 5 13 8 26 5 28 -2 2
-6 -3 -10 -12z"/>
<path d="M1611 1308 c-1 -41 1 -43 30 -28 12 7 19 20 18 38 -1 21 -2 22 -6 7
-3 -11 -10 -26 -17 -34 -9 -12 -12 -8 -17 20 l-6 34 -2 -37z"/>
<path d="M1051 1295 c-72 -18 -84 -32 -35 -41 41 -8 363 1 372 10 12 12 -11
20 -95 32 -107 16 -171 16 -242 -1z"/>
<path d="M741 1284 c-1 -25 23 -49 39 -39 5 3 9 14 9 23 -1 15 -2 15 -6 -1 -6
-24 -26 -16 -34 14 -6 22 -7 22 -8 3z"/>
<path d="M611 1244 c0 -11 3 -14 6 -6 3 7 2 16 -1 19 -3 4 -6 -2 -5 -13z"/>
<path d="M1015 1151 c-3 -6 10 -7 32 -4 50 8 55 13 10 13 -20 0 -38 -4 -42 -9z"/>
<path d="M1130 1139 c26 -6 20 -7 -27 -4 -85 6 -80 -10 5 -18 106 -11 154 -7
202 13 l45 19 -130 -1 c-91 0 -119 -3 -95 -9z"/>
<path d="M861 1099 c-1 -38 29 -126 50 -145 17 -16 19 -16 25 1 7 17 -24 90
-34 81 -2 -3 3 -15 12 -28 17 -24 21 -48 8 -48 -13 0 -41 67 -51 120 -6 29 -9
36 -10 19z"/>
<path d="M1784 1060 c-11 -33 -17 -57 -13 -54 9 5 43 104 37 109 -2 2 -13 -23
-24 -55z"/>
<path d="M1460 1021 c0 -8 -8 -11 -20 -8 -11 3 -20 1 -20 -4 0 -13 37 -11 45
2 4 6 4 13 1 16 -3 4 -6 1 -6 -6z"/>
<path d="M1697 990 c-3 -19 -9 -60 -11 -90 -4 -42 -2 -35 9 25 8 44 13 85 11
90 -1 6 -6 -6 -9 -25z"/>
<path d="M1101 943 c-2 -24 12 -43 30 -43 10 0 19 4 19 10 0 5 -7 7 -15 4 -9
-4 -18 2 -24 17 -5 13 -10 19 -10 12z"/>
<path d="M365 882 c-11 -11 -4 -20 12 -18 22 3 29 23 8 23 -8 0 -17 -3 -20 -5z"/>
<path d="M209 831 c-12 -23 -24 -39 -27 -37 -2 2 4 16 14 30 9 15 14 29 12 32
-3 3 -22 -23 -42 -58 -19 -35 -45 -79 -56 -98 -12 -19 -14 -26 -6 -15 40 53
48 61 42 43 -7 -25 1 -22 15 3 8 15 8 19 0 15 -16 -10 -13 7 5 30 13 16 15 16
10 2 -3 -10 -4 -18 -2 -18 8 0 67 102 63 107 -3 2 -15 -14 -28 -36z"/>
<path d="M1821 825 c2 -33 -1 -45 -11 -45 -5 0 -10 12 -10 27 0 20 -3 24 -11
16 -15 -15 -3 -63 15 -63 20 0 38 48 26 68 -9 15 -10 15 -9 -3z"/>
<path d="M201 767 c-13 -21 -12 -21 5 -5 10 10 16 20 13 22 -3 3 -11 -5 -18
-17z"/>
<path d="M290 765 c-7 -9 -11 -17 -9 -20 3 -2 10 5 17 15 14 24 10 26 -8 5z"/>
<path d="M454 718 c-22 -26 -23 -28 -4 -12 39 34 63 37 94 13 15 -12 29 -19
32 -16 7 7 -60 47 -78 47 -8 0 -27 -15 -44 -32z"/>
<path d="M1960 716 c0 -9 30 -14 35 -6 4 6 -3 10 -14 10 -12 0 -21 -2 -21 -4z"/>
<path d="M2038 693 c32 -15 82 -70 82 -89 0 -5 10 -20 21 -34 15 -19 14 -11
-7 28 -30 58 -85 112 -112 112 -10 0 -3 -7 16 -17z"/>
<path d="M492 660 c0 -14 2 -19 5 -12 2 6 2 18 0 25 -3 6 -5 1 -5 -13z"/>
<path d="M389 602 c5 -34 6 -35 9 -8 2 16 0 32 -5 37 -5 5 -7 -7 -4 -29z"/>
<path d="M1410 624 c0 -8 5 -12 10 -9 6 4 8 11 5 16 -9 14 -15 11 -15 -7z"/>
<path d="M502 600 c0 -14 2 -19 5 -12 2 6 2 18 0 25 -3 6 -5 1 -5 -13z"/>
<path d="M1479 568 c0 -39 -3 -48 -9 -33 -8 18 -9 18 -10 -5 -2 -24 -3 -23
-10 5 -6 22 -8 25 -10 10 -1 -11 -2 -28 -1 -37 1 -10 -3 -26 -9 -35 -9 -15
-10 -14 -6 9 5 21 3 26 -8 22 -11 -4 -14 -15 -10 -37 5 -31 5 -31 -12 -12 -16
20 -16 20 -11 -3 3 -12 1 -20 -4 -16 -5 3 -9 -1 -9 -8 0 -9 -3 -9 -10 2 -8 13
-10 12 -10 -3 0 -10 -4 -15 -10 -12 -14 9 -13 0 6 -43 9 -20 20 -53 24 -72 l7
-35 12 43 c7 24 9 53 5 65 -4 16 0 14 19 -11 l25 -33 -4 48 c-2 26 -1 40 2 30
7 -24 25 -17 36 14 8 23 7 23 -7 5 -18 -23 -18 -24 0 39 7 28 14 41 14 31 2
-40 12 -6 17 52 2 35 0 63 -6 67 -6 4 -10 -14 -11 -47z"/>
<path d="M1461 574 c0 -11 3 -14 6 -6 3 7 2 16 -1 19 -3 4 -6 -2 -5 -13z"/>
<path d="M381 533 c1 -16 5 -41 9 -58 5 -24 7 -18 8 28 0 31 -4 57 -9 57 -5 0
-8 -12 -8 -27z"/>
<path d="M511 544 c0 -11 3 -14 6 -6 3 7 2 16 -1 19 -3 4 -6 -2 -5 -13z"/>
<path d="M1160 537 c0 -13 6 -31 13 -41 12 -16 14 -16 26 -2 7 8 11 23 8 33
-4 14 -5 13 -6 -4 0 -13 -5 -23 -10 -23 -12 0 -24 37 -16 50 3 5 1 10 -4 10
-6 0 -11 -10 -11 -23z"/>
<path d="M831 529 c-1 -27 20 -54 32 -42 4 3 7 13 7 22 0 14 -2 14 -10 1 -8
-13 -9 -13 -14 0 -2 8 -7 22 -9 30 -3 8 -6 3 -6 -11z"/>
<path d="M2160 539 c0 -12 52 -120 57 -116 2 3 -9 31 -26 63 -16 33 -30 56
-31 53z"/>
<path d="M183 475 c0 -33 2 -45 4 -27 2 18 2 45 0 60 -2 15 -4 0 -4 -33z"/>
<path d="M521 504 c0 -11 3 -14 6 -6 3 7 2 16 -1 19 -3 4 -6 -2 -5 -13z"/>
<path d="M1541 472 c-1 -39 14 -39 37 -1 12 21 12 22 -1 7 -19 -24 -25 -23
-30 5 -3 15 -5 12 -6 -11z"/>
<path d="M911 480 c-1 -21 15 -44 27 -36 13 8 22 46 11 46 -5 0 -9 -7 -9 -15
0 -21 -18 -19 -23 3 -3 12 -5 13 -6 2z"/>
<path d="M520 416 c-23 -30 -23 -30 -1 -11 23 20 23 20 38 0 15 -19 15 -19 8
5 -11 39 -18 40 -45 6z"/>
<path d="M402 410 c0 -19 2 -27 5 -17 2 9 2 25 0 35 -3 9 -5 1 -5 -18z"/>
<path d="M1316 390 c6 -37 -9 -33 -19 5 -3 11 -4 -5 -3 -35 2 -32 8 -56 16
-58 8 -3 10 2 6 16 -4 12 -2 23 5 28 8 4 9 3 5 -4 -4 -7 -4 -18 1 -24 4 -7 6
-26 5 -43 l-3 -30 15 28 c17 30 14 45 -23 127 -10 23 -11 22 -5 -10z"/>
<path d="M412 340 c0 -14 2 -19 5 -12 2 6 2 18 0 25 -3 6 -5 1 -5 -13z"/>
<path d="M1000 348 c0 -9 5 -20 10 -23 6 -3 10 -11 10 -17 0 -7 -6 -6 -15 2
-24 20 -18 5 17 -45 18 -25 34 -41 36 -36 2 6 8 11 14 11 5 0 7 -9 3 -19 -3
-11 0 -23 6 -27 9 -5 10 -2 6 12 -7 18 -7 18 8 0 8 -11 15 -17 15 -13 0 13
-24 57 -31 57 -4 0 -24 26 -43 57 -20 32 -36 50 -36 41z m60 -103 c0 -5 -9 1
-20 15 -11 14 -20 30 -20 35 0 6 9 -1 20 -15 11 -14 20 -29 20 -35z"/>
<path d="M191 334 c0 -11 3 -14 6 -6 3 7 2 16 -1 19 -3 4 -6 -2 -5 -13z"/>
<path d="M596 327 c3 -10 9 -15 12 -12 3 3 0 11 -7 18 -10 9 -11 8 -5 -6z"/>
<path d="M421 294 c0 -11 3 -14 6 -6 3 7 2 16 -1 19 -3 4 -6 -2 -5 -13z"/>
<path d="M175 290 c-16 -7 -17 -9 -3 -9 9 -1 19 -9 21 -18 3 -11 5 -7 6 10 0
15 0 27 -1 26 -2 0 -12 -4 -23 -9z"/>
<path d="M1167 293 c-4 -3 -7 -13 -7 -22 1 -13 3 -13 11 2 11 19 8 33 -4 20z"/>
<path d="M110 270 c-18 -12 -2 -12 25 0 13 6 15 9 5 9 -8 0 -22 -4 -30 -9z"/>
<path d="M990 269 c0 -9 14 -33 30 -54 17 -21 30 -34 30 -30 0 5 -6 16 -14 24
-8 9 -22 30 -30 46 -9 17 -16 23 -16 14z"/>
<path d="M437 238 c8 -44 13 -48 13 -10 0 17 -4 34 -10 37 -6 4 -7 -6 -3 -27z"/>
<path d="M2060 240 c11 -16 26 -33 32 -36 7 -4 -1 9 -16 29 -34 44 -46 50 -16
7z"/>
<path d="M883 225 c2 -23 7 -30 22 -30 14 0 20 7 21 25 1 23 1 23 -3 2 -5 -29
-25 -24 -35 9 -6 22 -7 21 -5 -6z"/>
<path d="M10 230 c-8 -5 -11 -10 -5 -10 6 0 17 5 25 10 8 5 11 10 5 10 -5 0
-17 -5 -25 -10z"/>
<path d="M640 190 c-11 -8 -7 -9 15 -4 37 8 45 14 19 14 -10 0 -26 -5 -34 -10z"/>
<path d="M451 185 c1 -19 18 -51 18 -35 0 8 -4 22 -9 30 -5 8 -9 11 -9 5z"/>
<path d="M2132 133 c18 -34 34 -60 36 -58 5 4 -32 75 -53 100 -8 11 -1 -8 17
-42z"/>
<path d="M589 153 l-24 -28 28 24 c25 23 32 31 24 31 -2 0 -14 -12 -28 -27z"/>
<path d="M690 141 c5 -11 15 -23 21 -27 6 -3 3 5 -6 20 -20 30 -30 35 -15 7z"/>
<path d="M2272 60 c0 -19 2 -27 5 -17 2 9 2 25 0 35 -3 9 -5 1 -5 -18z"/>
<path d="M490 65 c0 -5 5 -17 10 -25 5 -8 10 -10 10 -5 0 6 -5 17 -10 25 -5 8
-10 11 -10 5z"/>
<path d="M755 46 c10 -14 19 -26 22 -26 7 0 -17 39 -28 46 -6 3 -3 -5 6 -20z"/>
</g>
</svg>
