<?xml version="1.0" standalone="no"?>
<!DOCTYPE svg PUBLIC "-//W3C//DTD SVG 20010904//EN"
 "http://www.w3.org/TR/2001/REC-SVG-20010904/DTD/svg10.dtd">
<svg version="1.0" xmlns="http://www.w3.org/2000/svg"
 width="900.000000pt" height="728.000000pt" viewBox="0 0 900.000000 728.000000"
 preserveAspectRatio="xMidYMid meet">

<g transform="translate(0.000000,728.000000) scale(0.100000,-0.100000)"
fill="#000000" stroke="none">
<path d="M3585 7209 c-907 -57 -1698 -569 -2094 -1356 -57 -114 -74 -161 -102
-286 -109 -493 -58 -1074 158 -1799 4 -14 -1 -18 -21 -18 -36 0 -100 -60 -131
-123 -79 -165 -70 -452 25 -722 132 -376 396 -679 705 -807 103 -43 219 -71
263 -63 l37 6 102 -128 c56 -70 135 -166 176 -212 l75 -85 -24 -35 c-12 -20
-33 -62 -45 -94 -16 -42 -31 -63 -56 -78 -19 -12 -92 -67 -161 -122 -201 -159
-220 -169 -305 -175 -39 -2 -125 3 -190 12 -167 24 -255 23 -306 -3 -72 -37
-107 -77 -166 -192 -37 -69 -80 -135 -117 -175 -53 -59 -63 -80 -60 -124 1
-13 -21 -20 -101 -32 -56 -9 -165 -37 -242 -61 -77 -25 -175 -52 -218 -61 -43
-8 -100 -27 -125 -42 -69 -41 -178 -158 -252 -272 l-65 -100 -70 -1 c-98 -2
-205 -19 -233 -37 -33 -22 -23 -26 25 -9 23 8 89 17 148 21 l107 7 -11 -21
c-10 -18 -9 -22 3 -22 9 0 49 51 90 113 116 175 206 271 299 318 21 11 74 26
117 34 43 8 135 32 204 54 137 44 264 71 330 71 23 0 82 -13 131 -30 56 -19
109 -30 144 -30 53 0 57 -2 78 -34 22 -34 53 -102 53 -116 0 -3 -25 -5 -54 -2
-110 9 -305 -36 -460 -107 -38 -17 -122 -49 -188 -71 -129 -43 -271 -108 -358
-164 l-55 -35 797 -1 798 0 -6 33 c-23 127 -95 285 -238 526 -128 217 -190
281 -268 281 -51 0 -75 -19 -175 -142 -69 -85 -89 -98 -142 -91 -39 5 -41 7
-41 41 0 28 10 46 60 99 39 41 76 96 105 154 52 102 101 161 159 192 54 27
175 29 354 3 112 -16 143 -17 196 -8 35 7 90 12 122 13 l59 1 -47 11 -48 12
138 106 c188 144 207 158 199 135 -4 -10 -32 -122 -63 -249 -146 -605 -209
-826 -286 -1002 -22 -50 -42 -96 -45 -102 -3 -8 3 -13 16 -13 17 0 28 12 45
53 84 190 154 424 256 862 40 171 86 355 102 410 29 97 91 240 110 251 5 4 62
-45 126 -108 65 -63 144 -137 176 -165 l59 -50 -31 -46 c-100 -145 -168 -342
-191 -552 -12 -110 -5 -377 14 -514 8 -63 15 -121 15 -128 0 -10 34 -13 155
-13 l154 0 16 57 c55 200 161 449 230 540 40 53 86 84 114 76 17 -4 93 -173
167 -371 30 -78 50 -105 39 -52 -9 44 -123 351 -175 472 -22 50 -40 92 -40 93
0 1 53 -20 119 -46 287 -115 689 -259 881 -317 293 -87 309 -86 431 29 147
140 430 559 679 1006 33 59 60 101 60 92 0 -130 57 -435 124 -673 44 -154 79
-239 51 -120 -26 108 -77 355 -73 357 1 1 48 24 104 51 l101 49 59 -19 c32
-10 135 -56 228 -103 l169 -85 -6 -101 c-8 -121 -41 -249 -103 -397 -73 -171
-220 -404 -313 -492 -40 -38 -39 -46 3 -46 30 0 42 8 82 55 210 243 382 631
387 876 1 38 6 69 10 69 5 0 65 -33 135 -73 116 -66 140 -85 285 -226 87 -86
157 -163 157 -173 0 -48 -117 -299 -209 -448 -43 -69 -47 -80 -30 -80 13 0 33
22 63 68 81 124 196 375 196 424 0 17 25 -3 113 -90 190 -190 363 -304 557
-368 78 -25 100 -28 276 -32 148 -3 211 0 280 13 193 35 554 146 554 171 0 7
-1 14 -3 14 -2 0 -57 -20 -123 -44 -244 -91 -464 -136 -659 -136 -243 0 -444
65 -643 208 -99 70 -160 129 -327 312 -71 78 -178 188 -236 244 l-106 101 -42
122 c-22 67 -64 177 -92 245 l-51 123 -162 161 c-177 177 -341 312 -516 428
-63 42 -118 77 -123 79 -5 1 7 54 26 117 33 110 73 271 97 391 l11 57 62 -14
c247 -56 449 -175 668 -394 159 -158 236 -257 406 -515 338 -514 446 -667 548
-774 76 -81 123 -112 210 -143 91 -33 135 -40 253 -40 147 0 294 33 412 92
165 83 309 247 310 351 0 27 10 49 40 87 l40 50 0 191 c0 105 -3 191 -7 191
-5 0 -8 26 -9 58 0 35 -9 75 -22 105 -12 26 -24 63 -27 81 -6 30 -3 35 29 55
22 14 36 30 36 43 0 19 0 19 -34 -1 -18 -12 -36 -21 -39 -21 -2 0 -8 17 -12
37 -28 150 -192 288 -405 342 -83 21 -230 41 -301 41 -25 0 -94 16 -155 36
-172 56 -266 74 -419 81 -134 5 -144 4 -220 -21 -83 -28 -205 -90 -263 -133
l-32 -24 -66 26 c-150 60 -296 79 -413 54 l-49 -10 -92 55 c-50 30 -126 69
-169 85 -83 32 -223 71 -254 71 -18 0 -19 5 -13 48 19 137 37 310 42 419 l7
123 56 0 c76 1 102 15 162 85 173 204 268 510 269 865 0 535 -211 974 -433
901 -43 -14 -118 -79 -147 -126 -12 -19 -25 -35 -29 -35 -4 0 -13 35 -20 78
-36 218 -164 743 -227 931 -242 726 -935 1207 -1829 1271 -151 11 -152 11
-330 -1z m467 -114 c716 -84 1266 -491 1574 -1165 81 -178 94 -221 158 -515
202 -925 266 -1413 266 -2019 -1 -460 -41 -782 -141 -1131 -167 -580 -499
-1058 -969 -1394 -149 -106 -146 -106 -340 -105 -195 0 -308 14 -485 59 -393
101 -755 321 -1133 690 -649 632 -1180 1593 -1426 2580 -95 385 -133 696 -123
1020 12 387 94 643 309 963 296 439 861 810 1458 956 295 72 583 93 852 61z
m2205 -2056 c104 -50 201 -264 255 -559 17 -92 21 -158 22 -335 1 -236 -9
-313 -60 -482 -60 -200 -199 -383 -290 -383 -67 0 -64 -9 -64 226 l0 214 34
68 c19 37 41 92 50 122 25 82 47 247 40 293 -13 88 -65 149 -140 163 -28 5
-32 10 -37 49 -5 35 1 63 32 146 33 92 41 104 67 111 77 23 207 -20 262 -88
l30 -36 -14 59 c-17 75 -85 213 -128 258 -76 80 -137 29 -224 -188 -22 -54
-42 -101 -46 -104 -3 -4 -6 9 -6 28 -1 19 -9 83 -19 144 l-19 110 24 48 c44
85 121 155 173 157 8 0 34 -9 58 -21z m-4680 -1369 c7 -19 34 -95 61 -167 27
-73 48 -133 47 -133 -2 0 -35 14 -75 31 -39 16 -81 29 -93 27 -38 -5 -50 -51
-51 -185 -1 -103 2 -125 16 -140 17 -16 17 -14 12 33 -6 45 -3 53 22 84 69 83
140 122 178 96 12 -8 43 -64 69 -125 l49 -111 -15 -57 c-9 -35 -14 -88 -12
-132 7 -143 84 -247 246 -331 74 -39 76 -40 141 -147 37 -60 101 -157 142
-217 42 -59 76 -110 76 -112 0 -14 -122 0 -186 21 -354 119 -725 601 -810
1055 -24 126 -15 291 21 390 30 80 66 145 87 153 34 15 62 2 75 -33z m6185
-1165 c47 -8 149 -35 226 -59 77 -24 171 -47 208 -51 326 -32 490 -89 598
-206 101 -108 122 -229 92 -523 -9 -88 -16 -165 -16 -172 0 -7 -26 15 -57 48
-97 101 -224 163 -418 203 -95 20 -274 22 -375 5 -39 -7 -73 -10 -74 -9 -2 2
-29 40 -61 84 -189 259 -391 463 -501 505 -16 7 -49 13 -74 15 -25 2 -65 7
-89 11 l-43 7 68 45 c79 51 139 80 204 98 63 17 211 17 312 -1z m-849 -101
c32 -8 94 -31 139 -50 66 -29 90 -35 126 -31 74 8 106 -7 143 -65 52 -85 158
-291 185 -359 20 -53 41 -81 121 -161 53 -54 95 -99 92 -100 -2 -2 -16 -14
-31 -27 l-27 -24 -73 68 c-102 93 -282 227 -388 288 -57 34 -126 87 -195 151
-113 105 -138 127 -196 166 -21 14 -69 53 -108 87 l-71 62 33 5 c17 3 43 7 57
9 43 5 133 -4 193 -19z"/>
<path d="M5163 5431 c-62 -129 -244 -332 -698 -778 -307 -302 -358 -356 -349
-371 20 -32 42 -23 121 46 114 102 466 473 669 707 148 170 274 348 289 406
11 45 -9 39 -32 -10z"/>
<path d="M5114 4540 c-233 -25 -452 -94 -713 -224 -190 -96 -215 -128 -166
-213 48 -82 189 -213 279 -258 l79 -40 156 1 c143 0 163 3 236 28 281 96 465
335 465 604 0 106 -9 112 -152 111 -62 -1 -145 -5 -184 -9z m288 -56 c15 -33
-1 -155 -32 -237 -32 -84 -113 -200 -178 -254 -160 -130 -450 -189 -618 -125
-136 51 -294 206 -294 287 0 49 27 75 125 121 182 86 413 162 620 203 126 25
148 27 268 29 96 2 98 2 109 -24z"/>
<path d="M4770 4217 c-32 -16 -41 -74 -14 -94 22 -16 76 -17 92 -1 16 16 15
73 0 86 -24 18 -53 22 -78 9z"/>
<path d="M1960 4472 c0 -69 491 -220 1145 -351 288 -58 378 -71 399 -59 21 12
20 45 -1 57 -10 5 -106 23 -213 40 -670 109 -1115 210 -1265 290 -66 35 -65
34 -65 23z"/>
<path d="M3140 3964 c-256 -29 -450 -83 -643 -180 -149 -75 -221 -123 -225
-152 -11 -74 140 -242 279 -311 112 -55 207 -75 329 -68 119 7 203 28 306 78
143 68 224 162 268 308 32 110 12 257 -44 313 -26 25 -35 28 -92 27 -35 -1
-115 -8 -178 -15z m214 -39 c18 -9 41 -30 51 -48 29 -47 26 -160 -5 -257 -20
-64 -32 -84 -84 -136 -100 -100 -241 -164 -405 -184 -203 -26 -427 69 -546
231 -59 80 -58 98 5 139 187 120 470 211 788 255 131 18 159 18 196 0z"/>
<path d="M2930 3691 c-36 -36 -37 -54 -5 -86 30 -30 54 -31 89 -4 46 36 31
100 -27 113 -23 5 -34 1 -57 -23z"/>
<path d="M3714 3906 c-3 -7 13 -40 35 -72 34 -49 47 -85 80 -214 60 -231 79
-359 105 -695 3 -33 5 -83 5 -111 l1 -51 131 -89 c110 -74 133 -86 147 -76 10
7 63 35 120 62 115 55 126 73 57 97 -38 14 -167 13 -220 -2 -17 -5 -27 11 -76
117 -41 91 -58 140 -63 188 -19 178 -57 356 -106 496 -51 147 -171 364 -200
364 -6 0 -13 -6 -16 -14z"/>
<path d="M4695 2134 c-268 -30 -392 -74 -553 -196 -29 -22 -62 -54 -73 -71
-38 -63 -15 -134 40 -124 42 8 584 184 699 227 110 42 142 62 142 90 0 55
-118 89 -255 74z"/>
<path d="M5675 598 c-37 -20 -96 -83 -125 -133 -55 -96 -110 -310 -110 -427
l0 -38 60 0 60 0 0 74 c0 41 7 110 15 155 19 97 77 269 111 328 33 57 31 64
-11 41z"/>
<path d="M4320 228 c0 -4 10 -23 21 -43 12 -19 34 -68 49 -108 28 -72 29 -72
69 -75 23 -2 41 0 41 3 0 21 -178 242 -180 223z"/>
</g>
</svg>
