<?xml version="1.0" standalone="no"?>
<!DOCTYPE svg PUBLIC "-//W3C//DTD SVG 20010904//EN"
 "http://www.w3.org/TR/2001/REC-SVG-20010904/DTD/svg10.dtd">
<svg version="1.0" xmlns="http://www.w3.org/2000/svg"
 width="1400.000000pt" height="1244.000000pt" viewBox="0 0 1400.000000 1244.000000"
 preserveAspectRatio="xMidYMid meet">

<g transform="translate(0.000000,1244.000000) scale(0.100000,-0.100000)"
fill="#000000" stroke="none">
<path d="M6505 12333 c-464 -412 -891 -917 -1216 -1438 -302 -483 -580 -1090
-750 -1636 -25 -83 -38 -107 -63 -127 -17 -14 -72 -67 -123 -118 -318 -323
-460 -792 -413 -1359 13 -154 52 -389 89 -533 l29 -112 -18 -183 c-66 -652
-61 -1242 16 -1782 18 -126 77 -428 97 -495 l13 -45 -71 -80 c-112 -126 -245
-300 -257 -337 -2 -5 -72 18 -155 51 -84 34 -175 66 -204 72 -165 36 -318 -45
-517 -271 l-83 -95 -62 -8 c-188 -24 -544 -194 -811 -386 l-81 -59 -60 9
c-248 35 -427 31 -522 -11 -53 -23 -208 -171 -319 -303 -135 -161 -248 -345
-306 -498 -27 -71 -32 -97 -31 -169 1 -88 36 -284 72 -400 l20 -64 -37 -40
c-84 -91 -169 -237 -236 -403 -92 -229 -148 -450 -272 -1058 -46 -231 -87
-428 -90 -437 -4 -13 0 -18 15 -18 11 0 22 8 25 18 3 9 44 208 91 441 131 644
205 915 310 1138 62 132 195 328 207 307 3 -5 15 -40 28 -79 75 -232 270 -652
440 -950 171 -299 445 -690 583 -832 26 -27 50 -43 65 -43 21 0 14 10 -53 87
-459 522 -954 1461 -1090 2068 -45 202 -52 280 -30 360 36 135 154 343 295
520 96 121 254 279 308 308 88 48 259 55 497 21 l41 -6 -32 -33 c-32 -34 -78
-105 -68 -105 3 0 29 21 57 46 291 261 752 501 1033 536 89 11 93 13 77 30
-15 16 -7 26 118 150 170 169 213 193 344 193 87 0 94 -2 247 -64 l157 -64
-35 -61 c-135 -232 -340 -728 -404 -976 -6 -25 -14 -54 -17 -65 -16 -59 16 15
91 206 178 456 318 748 461 963 81 122 183 253 243 309 l29 28 27 -88 c170
-549 406 -965 740 -1298 189 -189 367 -322 566 -425 36 -19 67 -35 69 -37 3
-2 -6 -11 -20 -20 -82 -58 -289 -241 -443 -392 -326 -322 -559 -603 -920
-1111 -485 -684 -550 -770 -720 -960 -100 -112 -105 -120 -79 -120 48 0 242
231 520 618 85 119 158 220 162 224 3 4 4 -57 3 -135 -5 -198 17 -398 69 -619
17 -73 24 -88 40 -88 23 0 23 -9 -1 92 -52 219 -64 333 -65 579 l0 236 39 59
c61 92 284 395 394 537 161 207 356 430 522 598 149 150 381 362 388 354 2 -2
-16 -30 -39 -61 -64 -86 -163 -254 -223 -379 -104 -212 -170 -428 -202 -651
-21 -154 -14 -412 15 -558 54 -266 170 -512 340 -723 55 -69 71 -83 95 -83
l29 0 -39 43 c-186 202 -323 476 -384 762 -30 144 -38 402 -16 558 51 364 205
718 470 1082 38 52 73 95 77 95 10 0 46 -138 74 -284 39 -202 48 -310 42 -550
-5 -233 -22 -368 -71 -552 -14 -49 -22 -91 -20 -93 9 -9 55 110 78 204 54 213
76 493 57 710 -17 185 -76 485 -116 587 -6 14 2 13 47 -9 81 -39 329 -119 458
-147 205 -44 356 -59 600 -60 124 0 277 6 340 13 738 82 1473 369 2227 868
164 108 457 325 592 437 86 72 93 76 87 50 -38 -183 -59 -424 -59 -674 0 -238
12 -389 45 -585 17 -100 19 -145 13 -270 -17 -402 -72 -889 -161 -1420 -25
-150 -25 -150 -67 -194 -57 -59 -361 -313 -541 -452 -130 -100 -145 -114 -121
-117 14 -2 37 3 49 12 43 28 421 333 531 429 60 52 111 95 112 94 0 -1 -19
-117 -43 -257 -24 -140 -44 -261 -44 -267 0 -7 9 -13 20 -13 11 0 20 2 20 5 0
3 29 177 64 388 162 956 211 1372 223 1862 6 277 -5 497 -35 690 -19 125 -20
319 -3 478 14 123 51 348 60 363 6 12 185 175 227 207 22 17 27 17 106 1 64
-13 111 -15 213 -11 71 4 139 8 149 9 17 3 23 -12 48 -102 169 -631 166 -1302
-8 -2195 -55 -277 -94 -452 -214 -945 -50 -206 -111 -460 -135 -563 -41 -183
-42 -188 -22 -185 18 3 24 17 40 88 10 47 52 224 93 395 226 937 287 1219 338
1555 29 192 56 418 56 475 0 22 3 50 6 63 8 29 16 26 159 -43 262 -128 378
-268 504 -608 120 -324 171 -381 442 -502 586 -260 932 -475 1194 -740 160
-163 261 -318 324 -497 17 -48 33 -110 37 -138 5 -40 10 -50 25 -50 26 0 25
28 -6 136 -33 117 -119 291 -196 395 -86 118 -282 308 -426 414 -230 169 -529
335 -903 500 -96 43 -193 90 -215 105 -98 68 -151 152 -226 353 -28 78 -67
175 -85 215 -101 222 -278 386 -528 488 l-92 38 -1 256 c-1 361 -32 630 -109
938 -19 79 -37 149 -40 155 -3 8 26 22 83 41 392 126 818 485 1207 1019 177
244 373 592 449 797 80 218 117 502 87 678 -24 142 -106 265 -215 319 -27 14
-51 27 -53 28 -2 2 33 95 78 206 240 600 390 1193 456 1799 21 202 29 647 15
845 -70 949 -387 1717 -984 2384 -152 170 -328 331 -360 331 -22 0 4 -30 177
-202 111 -112 247 -259 302 -328 495 -624 763 -1331 825 -2180 15 -204 6 -658
-16 -860 -65 -594 -214 -1181 -450 -1770 l-81 -205 -130 -6 c-146 -7 -206 -24
-316 -89 -83 -50 -96 -67 -26 -36 139 61 216 79 348 80 118 1 129 -1 188 -28
103 -48 165 -133 198 -274 13 -52 15 -100 11 -217 -9 -247 -55 -408 -194 -685
-213 -426 -534 -860 -840 -1136 -431 -390 -850 -548 -1212 -458 -74 19 -49 33
-231 -130 -768 -691 -1660 -1197 -2475 -1404 -349 -89 -559 -116 -895 -116
-265 0 -396 13 -610 60 -118 26 -365 102 -357 110 2 2 57 -13 123 -35 145 -48
308 -85 474 -108 170 -23 561 -23 750 0 995 125 2030 647 3004 1517 l149 133
71 -17 c224 -52 452 -18 701 104 94 46 230 128 193 116 -159 -50 -384 -107
-458 -116 -174 -23 -286 14 -400 131 l-65 68 -103 -117 c-715 -818 -1546
-1345 -2487 -1577 -193 -48 -396 -84 -632 -112 -215 -25 -860 -25 -1088 1 -88
10 -185 20 -215 21 -65 4 -106 18 -220 75 -372 185 -697 481 -941 853 -615
939 -764 2387 -433 4206 304 1674 765 2797 1549 3776 226 282 560 631 823 859
56 49 102 91 102 93 0 1 -12 3 -27 3 -21 -1 -58 -28 -148 -107z m-2060 -3384
c-123 -426 -286 -1198 -345 -1634 -12 -88 -24 -167 -27 -175 -7 -20 -48 169
-73 338 -78 527 0 976 228 1322 50 75 239 286 249 277 2 -2 -13 -60 -32 -128z"/>
<path d="M5840 10343 c-30 -2 -103 -8 -162 -14 -132 -13 -199 -31 -83 -22 44
4 211 6 370 6 314 0 470 -14 690 -59 108 -23 402 -115 498 -158 22 -9 36 -13
33 -8 -13 21 -179 92 -315 136 -242 78 -403 104 -686 112 -99 2 -205 6 -235 7
-30 1 -80 1 -110 0z"/>
<path d="M8725 9880 c11 -4 67 -13 125 -20 332 -37 738 -154 1091 -315 246
-112 579 -309 797 -473 101 -75 114 -82 72 -37 -45 47 -186 154 -315 237 -455
294 -916 483 -1398 574 -116 21 -316 45 -372 43 l-20 0 20 -9z"/>
<path d="M5635 9410 c-135 -15 -223 -50 -254 -101 -27 -44 -45 -176 -38 -278
10 -152 57 -253 166 -362 230 -227 666 -293 1021 -153 82 33 186 102 235 155
51 57 96 156 102 229 5 51 2 67 -21 114 -99 202 -555 378 -1031 399 -60 3
-141 2 -180 -3z m409 -45 c203 -31 368 -81 531 -160 250 -121 319 -256 224
-435 -64 -121 -205 -216 -398 -268 -85 -22 -115 -25 -266 -25 -151 0 -181 3
-266 25 -268 72 -446 234 -490 448 -14 68 -7 260 12 315 22 62 81 94 214 116
71 11 322 3 439 -16z"/>
<path d="M6031 9118 c-33 -12 -50 -37 -50 -73 0 -74 82 -106 129 -50 19 23 18
80 -4 104 -22 24 -45 30 -75 19z"/>
<path d="M7223 9185 c-12 -55 -27 -127 -33 -160 -23 -124 -91 -367 -138 -496
-125 -340 -262 -605 -635 -1236 l-126 -213 34 -132 c31 -124 60 -213 74 -230
3 -4 5 104 3 240 l-4 247 129 220 c459 779 633 1198 709 1706 21 143 14 175
-13 54z"/>
<path d="M8635 8763 c-60 -8 -141 -35 -176 -59 -66 -45 -106 -146 -115 -289
-18 -289 173 -568 501 -730 191 -94 365 -132 564 -122 247 12 447 101 609 270
73 76 92 116 92 189 0 180 -240 396 -620 561 -306 133 -656 206 -855 180z
m366 -53 c576 -121 1081 -444 1081 -689 0 -65 -25 -114 -95 -184 -113 -113
-271 -197 -439 -231 -98 -20 -281 -21 -386 -1 -356 68 -659 297 -764 580 -19
51 -22 81 -22 195 0 117 3 143 22 192 39 96 74 125 187 155 70 18 294 9 416
-17z"/>
<path d="M9085 8345 c-49 -48 -18 -135 48 -135 65 0 94 98 41 139 -35 27 -59
26 -89 -4z"/>
<path d="M6670 6772 c0 -14 49 -56 57 -49 3 4 -4 18 -17 32 -24 25 -40 32 -40
17z"/>
<path d="M12260 6384 c-253 -47 -611 -304 -926 -665 l-84 -97 6 -54 c8 -73
-11 -201 -41 -266 -33 -71 -121 -157 -215 -207 l-74 -40 -52 -115 -51 -115 27
-3 c99 -11 428 244 547 425 22 34 43 60 45 58 2 -2 4 4 5 13 1 9 14 51 28 92
22 61 26 87 23 140 -5 69 -35 150 -70 187 l-20 22 143 144 c88 87 183 171 244
214 l100 71 3 -34 c5 -52 -24 -150 -70 -244 -44 -87 -49 -100 -35 -100 4 0 7
2 7 5 0 3 9 14 20 25 49 49 107 209 112 310 3 61 4 64 43 88 54 35 203 99 250
108 l38 7 -20 -29 c-34 -48 -79 -145 -101 -216 -31 -100 -37 -197 -18 -303 31
-175 18 -257 -69 -424 -30 -57 -53 -106 -51 -108 10 -10 64 72 109 164 45 93
50 110 55 192 3 54 0 115 -9 157 -16 84 -16 204 1 275 15 65 81 210 116 256
31 41 70 44 111 9 25 -22 28 -30 28 -90 0 -36 -6 -71 -12 -77 -9 -9 -9 -1 -2
32 19 84 -12 149 -70 149 -24 0 -35 -9 -59 -48 -40 -61 -79 -150 -98 -221 -18
-69 -20 -205 -4 -288 20 -102 9 -225 -28 -313 -18 -41 -46 -96 -64 -122 -18
-26 -66 -95 -107 -155 -41 -59 -90 -127 -109 -150 -19 -24 -30 -43 -26 -43 19
1 89 47 87 58 -2 6 3 9 11 6 20 -8 121 107 198 226 120 184 213 393 270 610
24 92 31 142 35 254 5 154 -3 188 -47 211 -32 17 -93 25 -130 19z m-829 -719
c30 -61 31 -70 27 -149 -4 -75 -9 -95 -46 -168 -89 -181 -279 -367 -470 -462
l-72 -36 14 32 c67 158 62 151 131 186 82 43 183 135 218 201 36 65 57 164 57
269 l0 83 48 55 c26 29 50 54 54 54 4 0 21 -29 39 -65z"/>
<path d="M11341 5664 c-41 -47 -41 -47 -41 -129 0 -144 -31 -248 -102 -336
-35 -44 -126 -113 -196 -148 -23 -12 -47 -32 -52 -44 -4 -12 -20 -48 -34 -80
l-26 -57 58 29 c179 90 385 297 464 467 25 54 33 85 36 150 4 72 1 89 -21 138
-14 31 -30 56 -36 56 -5 0 -28 -21 -50 -46z"/>
<path d="M11847 6141 l-39 -27 -2 -117 -2 -118 27 58 c31 65 62 181 57 211 -3
19 -5 19 -41 -7z"/>
<path d="M5580 5921 c0 -40 32 -187 60 -271 90 -274 252 -470 490 -590 362
-183 876 -151 1355 85 137 68 357 207 344 219 -2 2 -107 15 -234 30 -930 108
-1401 226 -1872 471 -119 62 -143 71 -143 56z m698 -317 c330 -100 675 -165
1212 -228 118 -14 229 -27 245 -28 28 -3 26 -6 -50 -56 -105 -70 -314 -172
-441 -216 -604 -207 -1155 -94 -1432 293 l-46 64 64 59 c88 81 270 167 320
151 8 -2 66 -20 128 -39z"/>
<path d="M11470 5805 l-43 -44 25 -39 c71 -106 76 -246 14 -372 l-17 -35 21
25 c30 36 97 178 109 230 18 77 13 150 -13 205 -36 79 -45 82 -96 30z"/>
<path d="M11260 4624 c-104 -54 -220 -66 -356 -38 -131 27 -269 6 -368 -56
-58 -37 -55 -50 4 -20 59 30 183 60 251 60 32 0 88 -7 126 -16 131 -31 317 2
378 66 34 35 27 36 -35 4z"/>
<path d="M9900 3653 c-214 -180 -618 -464 -875 -616 -643 -380 -1279 -609
-1895 -683 -197 -24 -566 -24 -744 -1 -230 31 -419 78 -614 153 -63 24 -116
44 -119 44 -3 0 -2 -8 2 -17 15 -39 64 -254 79 -343 19 -115 36 -284 36 -352
0 -44 6 -59 53 -126 28 -42 95 -120 147 -173 372 -377 925 -477 1658 -299 720
174 1649 683 2274 1245 l46 42 -8 69 c-37 285 -33 654 10 959 12 81 20 148 18
150 -2 1 -32 -22 -68 -52z"/>
<path d="M1707 2855 c-27 -176 -17 -693 19 -980 9 -66 19 -210 24 -320 10
-248 28 -323 119 -480 46 -81 189 -222 276 -273 210 -123 460 -126 688 -10
133 67 289 200 387 329 30 39 116 133 191 208 139 139 192 204 248 302 48 86
37 91 -20 8 -70 -101 -144 -191 -226 -272 l-69 -68 37 78 c171 359 131 732
-103 948 -137 127 -347 216 -544 231 -340 27 -681 -184 -861 -531 -46 -89 -93
-215 -93 -248 0 -12 -4 -17 -9 -12 -19 22 -44 400 -50 765 -4 233 -9 356 -14
325z m895 -584 c-1 -7 2 -10 8 -6 18 11 33 -41 26 -90 -9 -54 -77 -191 -94
-188 -6 2 -9 -4 -6 -12 8 -20 -161 -189 -181 -181 -8 3 -14 0 -12 -6 4 -20
-104 -68 -155 -68 -70 0 -96 37 -85 120 6 49 54 153 66 146 5 -3 8 2 7 12 0 9
4 16 10 15 7 -1 11 5 10 15 0 9 4 17 11 17 6 0 15 4 20 9 5 5 3 6 -4 2 -23
-13 -14 10 15 37 16 15 31 25 34 21 3 -3 9 0 14 7 5 8 3 10 -6 4 -8 -5 -11 -3
-8 6 3 8 11 14 19 14 20 1 40 15 34 24 -7 13 32 44 46 35 7 -4 10 -3 6 3 -9
14 40 46 55 37 6 -4 8 -3 4 4 -6 10 53 37 99 45 30 5 70 -9 67 -22z"/>
<path d="M11528 1149 c-4 -157 -9 -227 -21 -264 -14 -42 -14 -47 -1 -30 33 44
66 177 67 270 0 84 -15 192 -33 224 -4 8 -10 -82 -12 -200z"/>
<path d="M11446 865 c-42 -188 -131 -420 -276 -723 -47 -97 -64 -142 -54 -142
28 0 236 452 298 648 29 92 50 202 43 229 -3 13 -6 10 -11 -12z"/>
<path d="M874 202 c4 -6 18 -54 31 -104 12 -51 28 -94 34 -96 14 -5 9 21 -21
118 -11 36 -27 72 -36 80 -8 8 -12 9 -8 2z"/>
<path d="M13207 3 c18 -2 50 -2 70 0 21 2 7 4 -32 4 -38 0 -55 -2 -38 -4z"/>
</g>
</svg>
