<?xml version="1.0" encoding="UTF-8"?>
<svg version="1.1" xmlns="http://www.w3.org/2000/svg" width="1875" height="617">
<path d="M0 0 C2.14084103 2.01021006 2.14084103 2.01021006 4.68359375 3.96875 C8.30756551 6.90521586 11.11277736 10.38242827 14.11328125 13.9375 C14.87898438 14.81535156 15.6446875 15.69320312 16.43359375 16.59765625 C38.59244353 42.40333868 52.62834789 73.65822957 59.11328125 106.9375 C59.27699219 107.74960938 59.44070313 108.56171875 59.609375 109.3984375 C64.44624791 134.42225934 64.31206746 162.99453649 59.11328125 187.9375 C58.81526611 189.37125977 58.81526611 189.37125977 58.51123047 190.83398438 C47.955687 239.82435693 20.28381817 284.86218518 -22.20507812 312.44238281 C-52.57864902 331.43531698 -85.92151867 341.15971058 -121.69921875 341.1875 C-122.47950439 341.18817474 -123.25979004 341.18884949 -124.0637207 341.18954468 C-136.23681073 341.17284056 -147.96948343 340.61683416 -159.88671875 337.9375 C-160.65226074 337.77121094 -161.41780273 337.60492188 -162.20654297 337.43359375 C-189.1798442 331.41600124 -213.22563477 319.76466911 -235.2421875 303.1875 C-235.78887085 302.77628906 -236.3355542 302.36507813 -236.89880371 301.94140625 C-238.22870201 300.94089228 -239.55779605 299.93930944 -240.88671875 298.9375 C-240.88818531 299.64703921 -240.88965187 300.35657843 -240.89116287 301.08761883 C-240.92831162 318.40025054 -240.98743263 335.71266998 -241.07062149 353.02514172 C-241.11032932 361.39754215 -241.14276355 369.76984971 -241.15771484 378.14233398 C-241.17077438 385.44490813 -241.19784788 392.74727722 -241.24133182 400.04973584 C-241.2638506 403.91174409 -241.27963525 407.77350035 -241.2786026 411.63558006 C-241.27785025 415.280919 -241.29602772 418.92570294 -241.32788658 422.57089806 C-241.34028503 424.52571131 -241.33336656 426.48061827 -241.32557678 428.43545532 C-241.47980129 441.69156233 -244.72464845 453.11764004 -253.88671875 462.9375 C-263.2519261 470.84874822 -270.52619076 472.31902052 -282.57421875 472.375 C-283.80333984 472.40787109 -285.03246094 472.44074219 -286.29882812 472.47460938 C-295.97774525 472.53139236 -302.25928942 470.5366117 -309.875 464.61328125 C-318.03779383 456.31329761 -323.0453464 448.31153968 -323.02093983 436.50600338 C-323.02329206 435.73901616 -323.02564429 434.97202894 -323.0280678 434.18179968 C-323.03476811 431.5906631 -323.03429926 428.99957654 -323.03388977 426.40843201 C-323.03718776 424.54030962 -323.04091319 422.67218795 -323.04503125 420.80406719 C-323.05506688 415.6538358 -323.05877056 410.50361606 -323.06142056 405.35337627 C-323.06531902 399.8051236 -323.07489772 394.25688019 -323.08363342 388.70863342 C-323.1034115 375.3007468 -323.11346605 361.89285941 -323.12236121 348.48496184 C-323.12674218 342.17384819 -323.13210951 335.86273538 -323.13735008 329.55162239 C-323.15436421 308.5765765 -323.16888357 287.60153078 -323.17609882 266.62647915 C-323.17657358 265.2697372 -323.17704947 263.91299526 -323.17752649 262.55625332 C-323.17776286 261.88342922 -323.17799924 261.21060513 -323.17824278 260.51739243 C-323.17944398 257.10851877 -323.18065943 253.69964513 -323.18188477 250.29077148 C-323.18212492 249.61426915 -323.18236507 248.93776682 -323.18261249 248.24076441 C-323.19050402 226.31086396 -323.21393205 204.38101763 -323.24644071 182.4511408 C-323.28074661 159.26653874 -323.30044958 136.08196703 -323.30374306 112.89733559 C-323.3059095 100.25887393 -323.3146777 87.62049178 -323.34020424 74.98205376 C-323.36189251 64.21897235 -323.36997088 53.45598975 -323.36023746 42.69288897 C-323.35568727 37.20105438 -323.3576209 31.70942376 -323.3769989 26.21761703 C-323.39459187 21.1882642 -323.39366411 16.15926471 -323.37810161 11.12990833 C-323.37571967 9.3121966 -323.38007942 7.49446065 -323.39193026 5.676786 C-323.48056577 -8.81803195 -321.38017832 -19.28173524 -311.0390625 -29.97265625 C-302.81070743 -37.67753744 -293.14662748 -40.86531385 -281.94140625 -41.1328125 C-270.48409599 -40.62426348 -261.27819794 -36.4843796 -253.07421875 -28.50390625 C-246.34442921 -20.99298042 -243.45559657 -12.70334735 -240.88671875 -3.0625 C-240.41105469 -3.52398437 -239.93539062 -3.98546875 -239.4453125 -4.4609375 C-174.46576582 -65.01278027 -63.24246677 -59.3108747 0 0 Z M-212.26171875 63.97265625 C-225.39539245 78.80667164 -233.51681005 95.97514599 -238.88671875 114.9375 C-239.22832031 116.11570312 -239.56992187 117.29390625 -239.921875 118.5078125 C-247.26611729 149.59274498 -241.5178239 185.4708485 -225.0390625 212.671875 C-208.71888815 237.43351884 -185.41873744 257.0560669 -155.78613281 263.38623047 C-124.55518521 269.55145578 -95.41112464 264.06437158 -68.63671875 246.84765625 C-41.75336564 227.65036819 -25.67767124 198.80434069 -20.25488281 166.48779297 C-15.63839695 134.50913825 -22.60485239 100.64240088 -41.7890625 74.328125 C-43.76398209 71.80961368 -45.80428932 69.36765217 -47.88671875 66.9375 C-48.56347656 66.11507812 -49.24023438 65.29265625 -49.9375 64.4453125 C-67.00602054 44.41242367 -92.89725959 31.93628375 -118.88671875 28.9375 C-154.91746798 26.87303545 -187.04365449 37.83823791 -212.26171875 63.97265625 Z " fill="#FF4F5D" transform="translate(1100.88671875,145.0625)"/>
<path d="M0 0 C22.55866634 23.23331804 38.79259545 52.47291939 47.5 83.5625 C47.72671387 84.36743896 47.95342773 85.17237793 48.18701172 86.00170898 C52.44098992 102.25100946 53.67656177 118.38575765 53.5625 135.125 C53.55912628 136.08989349 53.55575256 137.05478699 53.55227661 138.04891968 C53.47925679 152.48280372 52.89694093 166.36722503 49.125 180.375 C48.87830566 181.31988281 48.63161133 182.26476562 48.37744141 183.23828125 C44.83939233 196.49564868 40.20826771 209.0798419 34.125 221.375 C33.7935498 222.04499023 33.46209961 222.71498047 33.12060547 223.40527344 C22.10040418 245.38107298 6.40651821 266.86888395 -12.875 282.375 C-13.36162109 282.77396484 -13.84824219 283.17292969 -14.34960938 283.58398438 C-37.80797164 302.78228563 -64.16290364 316.53576413 -93.6875 323.75 C-94.66412598 323.98879883 -95.64075195 324.22759766 -96.64697266 324.47363281 C-111.25814462 327.83291407 -125.63382062 328.7573195 -140.5625 328.6875 C-141.39571777 328.68534485 -142.22893555 328.6831897 -143.08740234 328.68096924 C-155.87641713 328.62799807 -168.352994 328.20714645 -180.875 325.375 C-182.19395264 325.07698486 -182.19395264 325.07698486 -183.53955078 324.77294922 C-228.26900619 314.27289243 -267.46423536 289.36025825 -294.875 252.375 C-295.64714844 251.33601563 -296.41929688 250.29703125 -297.21484375 249.2265625 C-320.66116756 216.50884527 -332.08630697 177.69276779 -332.125 137.625 C-332.12651062 136.53517822 -332.12651062 136.53517822 -332.12805176 135.42333984 C-332.11634596 122.87747582 -331.27391764 110.71521669 -328.875 98.375 C-328.6581958 97.24868164 -328.6581958 97.24868164 -328.43701172 96.09960938 C-327.44580805 91.13371194 -326.2397848 86.25071974 -324.875 81.375 C-324.68631348 80.69115234 -324.49762695 80.00730469 -324.30322266 79.30273438 C-317.13180853 54.04714001 -304.02215052 30.22221308 -286.875 10.375 C-286.19308594 9.58351563 -285.51117187 8.79203125 -284.80859375 7.9765625 C-282.53828491 5.4016505 -280.22074709 2.88136353 -277.875 0.375 C-276.56789063 -1.03072266 -276.56789063 -1.03072266 -275.234375 -2.46484375 C-263.76757327 -14.51226829 -250.33411179 -24.4495209 -235.875 -32.625 C-235.25753906 -32.98013672 -234.64007812 -33.33527344 -234.00390625 -33.70117188 C-211.41780983 -46.60431805 -185.83681998 -55.18227146 -159.875 -57.625 C-158.71355469 -57.74617188 -157.55210937 -57.86734375 -156.35546875 -57.9921875 C-97.17955551 -62.98953548 -42.17271205 -40.93233816 0 0 Z M-208.875 42.375 C-209.68195313 43.03886719 -210.48890625 43.70273438 -211.3203125 44.38671875 C-233.53974686 63.22796325 -245.70725854 91.00866355 -249.875 119.375 C-251.81334992 154.52196281 -245.51286422 187.9954638 -221.875 215.375 C-205.40997086 233.74699579 -185.82458825 245.57974508 -161.875 251.375 C-160.39 251.74431641 -160.39 251.74431641 -158.875 252.12109375 C-131.6775191 257.72284763 -103.17016203 250.7062425 -79.875 236.375 C-76.32716485 233.91410108 -73.09108032 231.25107877 -69.875 228.375 C-69.05902344 227.68921875 -68.24304687 227.0034375 -67.40234375 226.296875 C-47.27227571 208.99808392 -35.68433075 185.98632833 -29.875 160.375 C-29.648125 159.38886719 -29.42125 158.40273438 -29.1875 157.38671875 C-23.38198785 126.94809603 -30.15773065 92.9558976 -47.1887207 67.07177734 C-51.57030242 60.69977908 -56.53648718 54.95398637 -61.875 49.375 C-62.49761719 48.68921875 -63.12023438 48.0034375 -63.76171875 47.296875 C-79.91003663 30.09908572 -105.4850857 18.7426857 -128.93237305 17.16992188 C-132.14548971 17.07204778 -135.34795608 17.04579487 -138.5625 17.0625 C-139.70444824 17.06813965 -140.84639648 17.0737793 -142.02294922 17.07958984 C-166.56985845 17.43050815 -190.35565407 26.06924592 -208.875 42.375 Z " fill="#FF5B58" transform="translate(1821.875,156.625)"/>
<path d="M0 0 C8.68961593 8.45793244 12.65034 18.28962475 13.1237793 30.39819336 C12.58705932 43.99509949 6.79984472 53.16505776 -2.00512695 63.10131836 C-3.3782363 64.70828695 -4.74166989 66.32309982 -6.10400391 67.93920898 C-7.50583207 69.60215482 -8.91362808 71.25992307 -10.3215332 72.91772461 C-12.72983997 75.76374989 -15.09237836 78.64457009 -17.44262695 81.53881836 C-21.39956113 86.4018126 -25.46948637 91.15832039 -29.5612793 95.9074707 C-33.35676062 100.32163602 -37.05790608 104.80465034 -40.7277832 109.32397461 C-43.28716749 112.44528203 -45.89106486 115.52581866 -48.50512695 118.60131836 C-51.87796284 122.57035379 -55.21689341 126.56148857 -58.50512695 130.60131836 C-62.25365341 135.20665086 -66.07596942 139.7433628 -69.92138672 144.26757812 C-72.80058015 147.66085945 -75.63716932 151.08399622 -78.44262695 154.53881836 C-82.39956113 159.4018126 -86.46948637 164.15832039 -90.5612793 168.9074707 C-93.61172542 172.45515605 -96.61434445 176.03429228 -99.56762695 179.66381836 C-100.27918945 180.53393555 -100.99075195 181.40405273 -101.72387695 182.30053711 C-102.93043761 183.78187957 -104.13562596 185.264394 -105.3293457 186.75610352 C-112.15773844 195.27485818 -118.11610545 202.16820621 -129.00512695 205.10131836 C-139.06663584 206.12101294 -150.16569687 206.55796655 -159.00512695 201.10131836 C-159.71668945 200.6772168 -160.42825195 200.25311523 -161.16137695 199.81616211 C-168.60022887 194.83379674 -174.01129944 186.84796316 -176.00512695 178.10131836 C-177.84708917 166.43555765 -177.30217317 156.32745399 -170.38012695 146.47631836 C-166.8775773 142.00688571 -163.12138853 137.7874276 -159.2746582 133.61303711 C-157.01205368 131.10898426 -154.87592884 128.53864994 -152.75512695 125.91381836 C-149.09666561 121.39190897 -145.32819979 116.98352937 -141.50512695 112.60131836 C-137.77097528 108.31925544 -134.08053591 104.01800001 -130.50512695 99.60131836 C-126.42690979 94.56703564 -122.19895637 89.67621128 -117.94482422 84.79101562 C-113.95864394 80.21093915 -110.01787724 75.59572277 -106.10595703 70.95214844 C-103.21476087 67.52276197 -100.2999944 64.11493867 -97.37158203 60.71728516 C-92.11246481 54.61373466 -86.97469841 48.44483016 -82.00512695 42.10131836 C-98.12421411 29.10812895 -121.41945218 28.6761965 -141.00512695 30.10131836 C-161.93673588 32.59581625 -180.68729642 42.06151582 -197.00512695 55.10131836 C-197.66125977 55.60276367 -198.31739258 56.10420898 -198.9934082 56.62084961 C-204.50411071 61.01674334 -208.71857443 66.54637418 -213.00512695 72.10131836 C-213.61485352 72.8837793 -214.22458008 73.66624023 -214.8527832 74.47241211 C-234.5987836 101.14525547 -240.69119934 135.34128717 -236.3449707 167.80053711 C-231.35250703 197.98015297 -215.23145012 225.97880139 -190.50512695 244.22631836 C-167.06265851 260.79805773 -137.64579103 267.76322143 -109.31762695 262.91381836 C-87.73164336 258.80456571 -68.53728016 249.16417138 -53.25512695 233.27709961 C-41.64350924 222.04850401 -29.80642589 213.81811895 -13.28833008 213.78442383 C-2.42165564 213.98320446 6.00488899 218.19472155 13.6784668 225.76147461 C20.43818583 233.16176553 23.89889462 241.74297199 24.0300293 251.79663086 C22.80298025 272.80610484 6.98245541 286.4819578 -7.81274414 299.71850586 C-36.94351703 324.5524459 -77.0845942 340.10345471 -115.3684082 340.30444336 C-116.24047409 340.31014343 -117.11253998 340.31584351 -118.0110321 340.32171631 C-119.85060437 340.33110622 -121.69019301 340.33767617 -123.52978516 340.34155273 C-126.27253718 340.35116041 -129.01450632 340.38220083 -131.75708008 340.41381836 C-147.99670291 340.512015 -163.8013541 338.66141406 -179.50512695 334.41381836 C-180.45597168 334.15963135 -181.40681641 333.90544434 -182.38647461 333.64355469 C-212.76848607 325.21139816 -238.58293616 309.1524394 -261.75512695 288.03881836 C-262.27421631 287.56839111 -262.79330566 287.09796387 -263.328125 286.61328125 C-278.13173311 272.91059299 -289.5960388 255.81277479 -299.00512695 238.10131836 C-299.34237793 237.47080566 -299.67962891 236.84029297 -300.02709961 236.19067383 C-309.1153453 218.88266754 -314.89168211 199.35462372 -318.00512695 180.10131836 C-318.12082031 179.39442871 -318.23651367 178.68753906 -318.35571289 177.95922852 C-326.12706769 127.9066303 -313.26035977 74.48848471 -283.46606445 33.57006836 C-278.37047605 26.73687742 -272.87524778 20.28135239 -267.00512695 14.10131836 C-266.51592773 13.57957031 -266.02672852 13.05782227 -265.52270508 12.52026367 C-231.40572499 -23.66377947 -183.67255706 -44.64005915 -134.08618164 -46.81713867 C-85.95739241 -48.0909117 -35.78674741 -33.25584362 0 0 Z " fill="#FF4362" transform="translate(681.005126953125,144.898681640625)"/>
<path d="M0 0 C1.05040484 -0.00694553 2.10080968 -0.01389106 3.18304497 -0.02104706 C6.67271224 -0.03921818 10.16169206 -0.02908001 13.65138245 -0.01878357 C16.1655274 -0.02584699 18.6796681 -0.03459378 21.19380188 -0.04489136 C27.29581838 -0.06501863 33.39758442 -0.06642497 39.49962121 -0.05826581 C44.46256544 -0.05194731 49.42545543 -0.05311974 54.38839912 -0.05953789 C55.45086829 -0.06089037 55.45086829 -0.06089037 56.53480147 -0.06227018 C57.97406484 -0.06412151 59.41332819 -0.06598408 60.85259152 -0.06785773 C74.32669886 -0.08440861 87.80070127 -0.07574015 101.27480228 -0.05887216 C113.58158769 -0.04417759 125.88812889 -0.05880487 138.19488286 -0.08764232 C150.85597458 -0.11708733 163.5169538 -0.12799376 176.17807823 -0.11846012 C177.61213781 -0.11743765 179.04619742 -0.11644304 180.48025703 -0.11547661 C181.53842143 -0.11476202 181.53842143 -0.11476202 182.61796288 -0.114033 C187.56979929 -0.1118756 192.52152836 -0.12163687 197.47334099 -0.13624763 C204.14906683 -0.15567159 210.8242684 -0.14860536 217.5 -0.12404823 C219.9444411 -0.11905096 222.38891691 -0.12250173 224.83333015 -0.13519669 C252.97030629 -0.26972198 252.97030629 -0.26972198 264.25514221 10.5693512 C272.28144272 19.51140411 275.61774486 28.30815773 275.28248596 40.30763245 C274.07396683 54.08810756 265.72678557 63.04102782 257.01686096 73.03419495 C254.43208724 76.00246866 251.91941201 79.02093511 249.43873596 82.0771637 C246.17345293 86.0982446 242.85565752 90.06811531 239.50123596 94.0146637 C236.12840007 97.98369913 232.78946951 101.97483391 229.50123596 106.0146637 C225.75335798 110.6191995 221.93140152 115.15485561 218.08717346 119.6787262 C215.18878773 123.09525909 212.32968496 126.53971207 209.50123596 130.0146637 C205.75335798 134.6191995 201.93140152 139.15485561 198.08717346 143.6787262 C195.18878773 147.09525909 192.32968496 150.53971207 189.50123596 154.0146637 C185.75335798 158.6191995 181.93140152 163.15485561 178.08717346 167.6787262 C175.18878773 171.09525909 172.32968496 174.53971207 169.50123596 178.0146637 C165.75335798 182.6191995 161.93140152 187.15485561 158.08717346 191.6787262 C155.18878773 195.09525909 152.32968496 198.53971207 149.50123596 202.0146637 C145.75335798 206.6191995 141.93140152 211.15485561 138.08717346 215.6787262 C135.18878773 219.09525909 132.32968496 222.53971207 129.50123596 226.0146637 C125.75335798 230.6191995 121.93140152 235.15485561 118.08717346 239.6787262 C115.18878773 243.09525909 112.32968496 246.53971207 109.50123596 250.0146637 C105.75335798 254.6191995 101.93140152 259.15485561 98.08717346 263.6787262 C94.44803777 267.96843363 90.88398553 272.31550116 87.33326721 276.6787262 C84.19807633 280.49137038 81.00709837 284.25539934 77.80592346 288.01271057 C75.1477423 291.13744566 72.55729533 294.30614455 70.00123596 297.5146637 C71.31845469 297.51962892 71.31845469 297.51962892 72.6622839 297.52469444 C94.04590294 297.60597355 115.42945153 297.69808215 136.81297207 297.80219078 C147.15395064 297.8522771 157.49492144 297.89872047 167.83595276 297.9365387 C176.85093505 297.96951672 185.86585633 298.00938 194.88077122 298.05745375 C199.65250027 298.08266098 204.42418915 298.10445927 209.19596672 298.11800766 C213.69145551 298.1308805 218.18680614 298.15299087 222.68221855 298.18204689 C224.32806907 298.19108194 225.97394181 298.19680334 227.61981583 298.19887733 C242.21368725 298.22055221 254.21088109 299.64809086 265.43873596 309.86231995 C273.43765382 318.32117559 275.61636953 328.67858057 275.35670471 340.04200745 C274.16031996 351.7297662 268.19679179 359.83540419 259.75123596 367.5771637 C253.26542508 372.14671227 246.30400406 374.63342641 238.35341358 374.64609146 C237.44394248 374.64993261 236.53447137 374.65377375 235.59744054 374.65773129 C234.60717939 374.65686481 233.61691824 374.65599833 232.59664917 374.65510559 C231.53770909 374.65807671 230.47876901 374.66104784 229.38773984 374.66410899 C225.83352289 374.67279202 222.27933964 374.67430391 218.72511292 374.67579651 C216.17905607 374.68042497 213.63299992 374.68544966 211.08694458 374.69084167 C204.1653021 374.70396513 197.24367071 374.7104474 190.32201791 374.71485233 C185.99764843 374.71761746 181.67328117 374.72185532 177.34891319 374.72635651 C165.36905336 374.73854742 153.38919531 374.74884693 141.40932941 374.7522316 C140.64294171 374.75245116 139.87655401 374.75267073 139.08694245 374.75289695 C138.31875106 374.75311523 137.55055968 374.75333351 136.75908977 374.7535584 C135.20251675 374.75400186 133.64594374 374.75444842 132.08937073 374.75489807 C131.3172615 374.7551195 130.54515227 374.75534093 129.74964579 374.75556907 C117.24396368 374.75951551 104.73833989 374.77696563 92.2326803 374.80025759 C79.3842304 374.82399425 66.53580975 374.83643451 53.68733758 374.83759952 C46.47707611 374.838515 39.26689064 374.84423534 32.05665016 374.86241913 C25.2727922 374.87946766 18.48910283 374.88105546 11.70522118 374.87228012 C9.21801238 374.87150972 6.73079584 374.87585282 4.24360657 374.88573837 C0.84248023 374.89846156 -2.55813594 374.89257853 -5.95925903 374.88215637 C-6.93836658 374.89021278 -7.91747412 374.89826918 -8.92625159 374.90656972 C-20.10717025 374.8267001 -30.34606887 371.45405019 -38.78392029 363.9209137 C-47.21090261 354.78270269 -49.50676205 344.65170611 -49.26829529 332.6240387 C-48.55064208 317.19626227 -36.80498084 306.1183617 -27.16673279 295.1474762 C-23.76005559 291.26194066 -20.49349928 287.27190098 -17.24095154 283.2568512 C-14.69622721 280.14466221 -12.10258179 277.07739873 -9.49876404 274.0146637 C-6.12587802 270.04567218 -2.7869963 266.0544919 0.50123596 262.0146637 C4.24976242 257.40933119 8.07207843 252.87261925 11.91749573 248.34840393 C14.79668916 244.95512261 17.63327833 241.53198584 20.43873596 238.0771637 C24.39567014 233.21416946 28.46559538 228.45766166 32.55738831 223.70851135 C36.35286963 219.29434603 40.05401509 214.81133171 43.72389221 210.29200745 C46.2832765 207.17070002 48.88717387 204.0901634 51.50123596 201.0146637 C54.87407185 197.04562827 58.21300242 193.05449348 61.50123596 189.0146637 C65.24911394 184.41012789 69.07107041 179.87447178 72.91529846 175.3506012 C75.81368419 171.9340683 78.67278697 168.48961532 81.50123596 165.0146637 C85.24911394 160.41012789 89.07107041 155.87447178 92.91529846 151.3506012 C95.81368419 147.9340683 98.67278697 144.48961532 101.50123596 141.0146637 C105.24976242 136.40933119 109.07207843 131.87261925 112.91749573 127.34840393 C115.79668916 123.95512261 118.63327833 120.53198584 121.43873596 117.0771637 C124.89398205 112.83073424 128.42834546 108.66181882 132.00123596 104.5146637 C138.54449679 96.91573892 144.8834295 89.16512604 151.14674377 81.33399963 C151.86823608 80.43195801 152.58972839 79.52991638 153.33308411 78.60054016 C153.88357422 77.91220093 154.43406433 77.22386169 155.00123596 76.5146637 C154.15585612 76.51319714 153.31047628 76.51173058 152.43947887 76.51021957 C131.83956447 76.47311705 111.23981413 76.41405661 90.64003277 76.33076096 C80.67799305 76.29100499 70.71603193 76.25859502 60.75392151 76.2436676 C52.06775074 76.23063324 43.38175317 76.20362306 34.69567996 76.16005063 C30.09933225 76.13747593 25.50319784 76.12175062 20.90678978 76.12277985 C16.57368231 76.12352882 12.24104565 76.1054832 7.90806007 76.07349586 C6.32433344 76.06503078 4.7405538 76.06322371 3.15681458 76.06886101 C-10.16528188 76.10993639 -21.2240125 74.21319885 -30.99876404 64.5146637 C-38.72803818 54.95877772 -42.08023471 44.78163098 -40.99876404 32.5146637 C-38.78686388 21.29526651 -33.89525843 12.39469539 -24.32201105 5.89375681 C-16.58471984 1.30085518 -8.86984852 -0.07616002 0 0 Z " fill="#FF3E63" transform="translate(48.99876403808594,104.48533630371094)"/>
<path d="M0 0 C8.51770901 9.07431178 12.24241122 19.14888033 12.02172852 31.55615234 C12.00163223 32.83702728 11.98153595 34.11790222 11.96083069 35.43759155 C11.93364058 36.82037586 11.90632964 38.2031578 11.87890625 39.5859375 C11.85457802 41.01224981 11.83073585 42.43857048 11.80735779 43.86489868 C11.74478556 47.60334872 11.67564417 51.34164903 11.60510254 55.07995605 C11.53417512 58.90089143 11.46950466 62.72193224 11.40429688 66.54296875 C11.27563125 74.02876252 11.14002079 81.5144091 11 89 C12.08835144 88.99333817 13.17670288 88.98667633 14.29803467 88.97981262 C24.5955657 88.91878234 34.89305964 88.87392262 45.19073105 88.84456348 C50.48383928 88.82896185 55.77680054 88.80782489 61.06982422 88.77368164 C66.1856555 88.74089097 71.30134614 88.72310569 76.41727448 88.71536827 C78.36113954 88.70985995 80.30499761 88.69910431 82.24880219 88.68280983 C97.80889724 88.55765696 111.22758471 88.90695048 123.19140625 100.0390625 C131.01837179 108.19755696 134.44105837 117.87373359 134.2734375 129.12109375 C133.1260321 141.20163349 127.88906537 149.98928364 118.875 157.8125 C107.0485455 166.16702956 93.87493479 165.54387394 80.04296875 165.390625 C78.04373241 165.38314925 76.04448865 165.37746264 74.04524231 165.37347412 C68.82554296 165.35832275 63.60630063 165.31913336 58.38677979 165.2746582 C53.04372334 165.23347701 47.70059185 165.21541466 42.35742188 165.1953125 C31.90474895 165.15262737 21.45241273 165.08450575 11 165 C11.08425854 182.81255037 11.17952029 200.62500735 11.28752708 218.43742943 C11.33743713 226.7098955 11.38388054 234.98235272 11.421875 243.25488281 C11.45503849 250.47358228 11.49499964 257.69220836 11.54279006 264.91082633 C11.5678158 268.72542218 11.58966443 272.53997088 11.60334396 276.3546257 C11.7317266 310.74982633 13.14919649 345.10261847 39 371 C39.54011719 371.55171875 40.08023437 372.1034375 40.63671875 372.671875 C55.85262741 386.92960302 76.36699127 390.93964267 96.43359375 392.03515625 C108.49683077 392.89334627 118.02338747 397.42775847 126.25 406.3125 C133.62728927 415.37832414 134.7137384 425.67270731 134 437 C132.15934941 447.99710735 125.9119211 456.51860284 117 463 C99.83522122 474.07405083 74.02043372 468.77903563 55.3125 464.8125 C27.17946549 458.50649311 2.27199115 445.38468092 -19 426 C-20.40185547 424.72382812 -20.40185547 424.72382812 -21.83203125 423.421875 C-53.43307007 393.22231286 -68.78522041 348.44340326 -70.10953522 305.44343567 C-70.26537643 296.26075781 -70.23707419 287.0779031 -70.20278788 277.89433193 C-70.19010606 273.91192267 -70.18909651 269.92950887 -70.18673706 265.94708252 C-70.1805727 258.43953493 -70.1642318 250.93204705 -70.14403808 243.4245255 C-70.12151998 234.86316895 -70.11064605 226.30180924 -70.10064721 217.74043036 C-70.07985979 200.16025263 -70.04478432 182.58013267 -70 165 C-70.85118408 165.01571045 -71.70236816 165.0314209 -72.5793457 165.04760742 C-75.79058507 165.09927151 -79.00160997 165.13660717 -82.21313477 165.16479492 C-83.59308926 165.17971942 -84.97299772 165.20006661 -86.3527832 165.22631836 C-99.21814201 165.46465229 -110.62608678 164.15461836 -121 156 C-129.40456517 147.72607574 -133.32202802 138.76960446 -133.5 127 C-133.34483997 115.88715206 -129.85448579 106.93179372 -122 99 C-113.09582228 91.68127838 -103.529588 88.85163899 -92.0703125 88.90234375 C-90.13671875 88.90717773 -90.13671875 88.90717773 -88.1640625 88.91210938 C-86.81770764 88.92046267 -85.47135348 88.92892759 -84.125 88.9375 C-82.75520996 88.9425217 -81.38541815 88.94708343 -80.015625 88.95117188 C-76.6770381 88.96292746 -73.33854185 88.97936036 -70 89 C-70.00888245 88.17251755 -70.01776489 87.3450351 -70.0269165 86.49247742 C-70.10743069 78.6522569 -70.16815015 70.81217743 -70.20724869 62.97163677 C-70.22802623 58.94176627 -70.25616097 54.91224052 -70.30175781 50.88256836 C-70.34557062 46.98568703 -70.36921083 43.08913498 -70.37950897 39.19202614 C-70.38683741 37.7134159 -70.40114622 36.23482144 -70.42292023 34.75635338 C-70.6241794 20.50988523 -67.68474093 9.76846861 -58 -1 C-41.07359662 -15.70004762 -16.26939241 -15.56202752 0 0 Z " fill="#FF4C5E" transform="translate(1322,12)"/>
</svg>
